<svg xmlns="http://www.w3.org/2000/svg" xmlns:xlink="http://www.w3.org/1999/xlink" width="2304" zoomAndPan="magnify" viewBox="0 0 1728 1295.99994" height="1728" preserveAspectRatio="xMidYMid meet" version="1.0"><defs><clipPath id="d77048b798"><path d="M 807 260.078125 L 857 260.078125 L 857 310 L 807 310 Z M 807 260.078125 " clip-rule="nonzero"/></clipPath><clipPath id="1a6da3a5f2"><path d="M 706 930 L 978 930 L 978 956.828125 L 706 956.828125 Z M 706 930 " clip-rule="nonzero"/></clipPath><clipPath id="39d4f34e98"><path d="M 169 361.503906 L 531 361.503906 L 531 862 L 169 862 Z M 169 361.503906 " clip-rule="nonzero"/></clipPath><clipPath id="d0e5020c52"><path d="M 169 361.503906 L 459 361.503906 L 459 833 L 169 833 Z M 169 361.503906 " clip-rule="nonzero"/></clipPath><clipPath id="e8534f4152"><path d="M 66 361.503906 L 427 361.503906 L 427 862 L 66 862 Z M 66 361.503906 " clip-rule="nonzero"/></clipPath><clipPath id="a5666fc21f"><path d="M 138 361.503906 L 427 361.503906 L 427 833 L 138 833 Z M 138 361.503906 " clip-rule="nonzero"/></clipPath><clipPath id="abad533777"><path d="M 282 993 L 315 993 L 315 1058.253906 L 282 1058.253906 Z M 282 993 " clip-rule="nonzero"/></clipPath><clipPath id="f768b99e43"><path d="M 509 766 L 573.75 766 L 573.75 800 L 509 800 Z M 509 766 " clip-rule="nonzero"/></clipPath><clipPath id="6c56e6925a"><path d="M 22.5 766 L 88 766 L 88 800 L 22.5 800 Z M 22.5 766 " clip-rule="nonzero"/></clipPath><clipPath id="7409138051"><path d="M 1110.941406 406.265625 L 1625 406.265625 L 1625 920.015625 L 1110.941406 920.015625 Z M 1110.941406 406.265625 " clip-rule="nonzero"/></clipPath></defs><path fill="#f8f6f7" d="M 1323.085938 713.347656 C 1321.234375 703.953125 1321.441406 694.773438 1321.996094 685.363281 C 1323.535156 658.957031 1318.816406 633.066406 1314.34375 607.21875 C 1303.097656 542.015625 1278.648438 481.925781 1241.988281 427.15625 C 1216.765625 389.476562 1186.265625 356.148438 1150.691406 327.632812 C 1120.679688 303.5625 1087.800781 284.867188 1051.699219 271.839844 C 1018.261719 259.765625 983.152344 257.671875 948.164062 256.1875 C 907.601562 254.449219 866.960938 256.949219 826.328125 254.84375 C 807.824219 253.890625 789.613281 251.089844 771.460938 247.71875 C 733.226562 240.675781 696.019531 229.414062 658.625 219.054688 C 620.949219 208.597656 582.953125 199.390625 543.886719 196.835938 C 513.046875 194.835938 482.085938 196.019531 451.574219 201.867188 C 402.648438 211.234375 359.324219 232.214844 321.480469 264.785156 C 286.046875 295.230469 260.441406 332.148438 245.347656 376.460938 C 232.496094 414.128906 224.691406 453.003906 216.316406 491.785156 C 210.699219 517.636719 206.90625 543.796875 205.140625 570.191406 C 203.140625 599.984375 206.160156 629.328125 215.324219 657.9375 C 222.695312 680.984375 229.765625 704.089844 243.226562 724.582031 C 267.347656 761.308594 299.96875 789.878906 332.808594 818.121094 C 353.191406 835.632812 375.179688 851.257812 395.863281 868.417969 C 426.59375 893.929688 456.414062 920.5 488.503906 944.265625 C 519.4375 967.179688 550.441406 990.160156 585.578125 1006.394531 C 640.554688 1031.808594 697.054688 1053.566406 754.628906 1072.238281 C 812.296875 1090.933594 871.5 1101.320312 932.390625 1099.855469 C 942.058594 1099.855469 951.796875 1100.410156 961.449219 1099.730469 C 986.769531 1097.992188 1012.089844 1096.183594 1037.328125 1093.515625 C 1058.851562 1091.273438 1080.039062 1087.167969 1100.476562 1079.539062 C 1126.746094 1069.707031 1151.886719 1057.511719 1176.050781 1043.339844 C 1189.621094 1035.359375 1203.695312 1028.109375 1215.539062 1017.492188 C 1243.386719 992.605469 1260.359375 961.277344 1270.3125 925.609375 C 1276.660156 902.765625 1282.386719 879.691406 1290.628906 857.417969 C 1295.074219 845.425781 1301.832031 834.164062 1304.238281 821.519531 C 1309.011719 796.402344 1316.082031 771.75 1319.425781 746.363281 C 1320.867188 735.351562 1325.289062 724.5 1323.085938 713.347656 Z M 1289.144531 817.589844 C 1286.289062 831.691406 1278.171875 843.957031 1274.050781 857.636719 C 1266.925781 881.378906 1260.085938 905.199219 1252.851562 928.902344 C 1240.84375 968.320312 1219.210938 1000.34375 1182.726562 1021.503906 C 1153.234375 1038.636719 1123.457031 1055.128906 1091.105469 1066.320312 C 1066.914062 1074.699219 1041.785156 1077.921875 1016.386719 1080 C 988.347656 1082.300781 960.335938 1084.839844 920.085938 1084.964844 C 873.851562 1085.710938 817.152344 1075.785156 761.792969 1058.246094 C 707.878906 1041.179688 655.378906 1020.199219 603.472656 997.71875 C 562.804688 980.125 527.324219 954.070312 492.164062 927.664062 C 464.125 906.558594 437.785156 883.347656 410.902344 860.804688 C 390.289062 843.546875 368.488281 827.734375 347.847656 810.503906 C 315.078125 783.121094 282.945312 755.011719 258.359375 719.480469 C 243.730469 698.351562 236.660156 674.144531 229.167969 650.050781 C 221.414062 625.289062 218.804688 599.886719 220.3125 574.105469 C 221.621094 551.914062 224.625 529.886719 228.933594 508.035156 C 236.535156 469.539062 244.476562 431.113281 256.117188 393.570312 C 267.59375 356.582031 285.203125 323.417969 312.371094 294.902344 C 342.613281 263.21875 378.183594 240.730469 418.953125 226.328125 C 442.09375 218.167969 466.351562 213.640625 491.089844 212.785156 C 494.867188 212.664062 498.609375 211.957031 502.359375 211.765625 C 547.34375 209.5625 591.03125 217.394531 634.285156 228.625 C 670.457031 237.996094 706.152344 249.132812 742.605469 257.46875 C 768.769531 263.476562 795.136719 268.386719 822.058594 269.9375 C 861.804688 272.261719 901.59375 269.839844 941.339844 271.308594 C 975.917969 272.589844 1010.648438 274.261719 1043.839844 285.574219 C 1080.636719 298.125 1113.636719 317.394531 1143.785156 341.964844 C 1176.160156 368.359375 1204.265625 398.832031 1227.425781 433.21875 C 1258.007812 478.621094 1281.011719 527.832031 1293.007812 581.777344 C 1323.914062 720.785156 1295.578125 785.742188 1289.144531 817.589844 Z M 1289.144531 817.589844 " fill-opacity="1" fill-rule="nonzero"/><path fill="#f8f6f7" d="M 932.847656 1091.273438 C 865.554688 1090.714844 791.519531 1083.851562 722.648438 1086.390625 C 649.507812 1089.226562 579.570312 1113.613281 507.722656 1125.0625 C 381.117188 1142.621094 265.398438 1058.152344 197.824219 957.71875 C 148.085938 886.554688 129.617188 797.671875 139.492188 711.648438 C 141.3125 682.882812 153.144531 657.605469 163.824219 631.976562 C 178.09375 597.679688 193.972656 563.996094 217.132812 534.535156 C 293.320312 442.167969 401.003906 384.171875 491.898438 308.121094 C 500.789062 301.085938 506.953125 291.910156 512.167969 281.898438 C 540.53125 223.496094 569.921875 159.859375 632.210938 131.0625 C 733.644531 74.726562 866.640625 90.972656 953.3125 168.210938 C 974.917969 187.90625 992.964844 210.960938 1014.867188 230.21875 C 1078.046875 288.777344 1140.457031 360.082031 1228.324219 378.707031 C 1321.316406 386.726562 1369.671875 317.628906 1469.351562 349.035156 C 1565.8125 374.417969 1598.460938 486.601562 1594.226562 576.042969 C 1587.066406 657.027344 1554.539062 734.109375 1511.054688 802.085938 C 1369.863281 1004.496094 1178.34375 1095.722656 932.847656 1091.273438 Z M 932.847656 1091.273438 " fill-opacity="1" fill-rule="nonzero"/><path fill="#ffb401" d="M 979.203125 592.152344 L 902.402344 592.152344 L 902.402344 575.710938 L 979.203125 575.710938 C 1008.195312 575.710938 1033.5625 556.066406 1040.8125 528.0625 L 1058.375 459.789062 C 1059.210938 456.445312 1058.515625 452.964844 1056.421875 450.175781 C 1054.332031 447.390625 1051.125 445.859375 1047.640625 445.859375 L 954.8125 445.859375 L 954.8125 429.417969 L 1047.640625 429.417969 C 1056.285156 429.417969 1064.230469 433.316406 1069.527344 440.144531 C 1074.820312 446.972656 1076.632812 455.609375 1074.402344 463.96875 L 1056.839844 532.242188 C 1047.640625 567.492188 1015.722656 592.152344 979.203125 592.152344 Z M 979.203125 592.152344 " fill-opacity="1" fill-rule="nonzero"/><path fill="#ffb401" d="M 781.835938 592.152344 L 705.035156 592.152344 C 668.515625 592.152344 636.597656 567.492188 627.539062 532.101562 L 609.976562 463.832031 C 607.882812 455.472656 609.558594 446.832031 614.851562 440.003906 C 620.148438 433.179688 628.09375 429.277344 636.738281 429.277344 L 729.566406 429.277344 L 729.566406 445.71875 L 636.738281 445.71875 C 633.253906 445.71875 630.046875 447.25 627.957031 450.039062 C 625.863281 452.824219 625.027344 456.308594 626.003906 459.652344 L 643.566406 527.921875 C 650.816406 556.066406 676.183594 575.574219 705.175781 575.574219 L 781.976562 575.574219 L 781.976562 592.152344 Z M 781.835938 592.152344 " fill-opacity="1" fill-rule="nonzero"/><path fill="#ffb401" d="M 842.1875 686.757812 L 823.789062 686.757812 C 830.898438 675.890625 824.628906 657.917969 812.640625 645.796875 L 842.050781 645.796875 L 842.050781 686.757812 Z M 842.1875 686.757812 " fill-opacity="1" fill-rule="nonzero"/><path fill="#ffb401" d="M 842.1875 686.757812 L 860.589844 686.757812 C 853.480469 675.890625 859.75 657.917969 871.738281 645.796875 L 842.328125 645.796875 L 842.328125 686.757812 Z M 842.1875 686.757812 " fill-opacity="1" fill-rule="nonzero"/><path fill="#ffb401" d="M 842.1875 686.757812 L 823.789062 686.757812 C 830.898438 697.625 824.628906 715.597656 812.640625 727.722656 L 842.050781 727.722656 L 842.050781 686.757812 Z M 842.1875 686.757812 " fill-opacity="1" fill-rule="nonzero"/><path fill="#ffb401" d="M 842.1875 686.757812 L 860.589844 686.757812 C 853.480469 697.625 859.75 715.597656 871.738281 727.722656 L 842.328125 727.722656 L 842.328125 686.757812 Z M 842.1875 686.757812 " fill-opacity="1" fill-rule="nonzero"/><path fill="#ffb401" d="M 812.640625 727.859375 L 871.460938 727.859375 L 871.460938 769.378906 L 812.640625 769.378906 Z M 812.640625 727.859375 " fill-opacity="1" fill-rule="nonzero"/><path fill="#fec701" d="M 852.644531 686.757812 C 847.765625 675.890625 852.085938 657.917969 860.171875 645.796875 L 820.027344 645.796875 C 828.113281 658.054688 832.433594 676.03125 827.554688 686.757812 C 832.433594 697.625 828.113281 715.597656 820.027344 727.722656 L 820.027344 769.242188 L 860.308594 769.242188 L 860.308594 727.722656 C 852.085938 715.597656 847.765625 697.625 852.644531 686.757812 Z M 852.644531 686.757812 " fill-opacity="1" fill-rule="nonzero"/><path fill="#ffb401" d="M 925.125 812.292969 L 759.253906 812.292969 C 756.46875 812.292969 754.65625 809.089844 756.1875 806.71875 L 763.855469 795.015625 C 775.285156 777.460938 792.429688 764.363281 812.222656 757.675781 C 831.597656 751.128906 852.644531 751.128906 872.15625 757.675781 C 891.949219 764.363281 909.09375 777.601562 920.523438 795.015625 L 928.191406 806.71875 C 929.582031 809.226562 927.910156 812.292969 925.125 812.292969 Z M 925.125 812.292969 " fill-opacity="1" fill-rule="nonzero"/><path fill="#fec701" d="M 907.421875 808.949219 L 773.054688 808.949219 C 770.683594 808.949219 769.292969 805.882812 770.683594 803.515625 L 776.816406 792.230469 C 786.15625 775.230469 799.957031 762.414062 815.984375 756.003906 C 831.734375 749.59375 848.742188 749.59375 864.492188 756.003906 C 880.519531 762.554688 894.320312 775.230469 903.65625 792.230469 L 909.789062 803.515625 C 911.183594 805.882812 909.789062 808.949219 907.421875 808.949219 Z M 907.421875 808.949219 " fill-opacity="1" fill-rule="nonzero"/><path fill="#fed201" d="M 841.769531 751.546875 C 802.742188 761.4375 786.4375 803.515625 786.4375 803.515625 C 785.320312 805.882812 786.574219 808.949219 788.527344 808.949219 L 813.617188 808.949219 C 811.386719 808.949219 806.226562 780.246094 841.769531 751.546875 Z M 841.769531 751.546875 " fill-opacity="1" fill-rule="nonzero"/><path fill="#fed201" d="M 838.984375 686.757812 C 837.867188 675.890625 838.84375 657.917969 840.65625 645.796875 L 831.457031 645.796875 C 833.269531 658.054688 834.246094 676.03125 833.128906 686.757812 C 834.246094 697.625 833.269531 715.597656 831.457031 727.722656 L 831.457031 756.5625 L 840.515625 752.101562 L 840.515625 727.722656 C 838.84375 715.597656 837.867188 697.625 838.984375 686.757812 Z M 838.984375 686.757812 " fill-opacity="1" fill-rule="nonzero"/><path fill="#ffb401" d="M 812.640625 645.796875 C 819.46875 652.761719 824.488281 661.816406 826.019531 670.175781 C 829.503906 671.015625 832.851562 671.710938 835.917969 672.269531 L 848.183594 672.269531 C 851.390625 671.851562 854.734375 671.152344 858.078125 670.175781 C 859.75 661.816406 864.628906 652.902344 871.460938 645.796875 Z M 812.640625 645.796875 " fill-opacity="1" fill-rule="nonzero"/><path fill="#fec701" d="M 989.238281 387.617188 C 987.984375 376.472656 978.648438 367.972656 967.496094 367.972656 L 716.882812 367.972656 C 705.730469 367.972656 696.394531 376.472656 695.140625 387.617188 C 674.511719 571.53125 780.023438 645.238281 836.195312 653.457031 L 848.460938 653.457031 C 904.355469 645.238281 1010.007812 571.53125 989.238281 387.617188 Z M 989.238281 387.617188 " fill-opacity="1" fill-rule="nonzero"/><path fill="#fed201" d="M 950.628906 387.617188 C 949.65625 376.472656 941.988281 367.972656 932.648438 367.972656 L 726.640625 367.972656 C 717.441406 367.972656 709.773438 376.472656 708.660156 387.617188 C 691.652344 571.53125 778.351562 645.238281 824.628906 653.457031 L 834.664062 653.457031 C 880.800781 645.238281 967.636719 571.53125 950.628906 387.617188 Z M 950.628906 387.617188 " fill-opacity="1" fill-rule="nonzero"/><path fill="#fee676" d="M 785.179688 385.527344 C 785.878906 375.636719 791.59375 368.113281 798.421875 368.113281 L 743.785156 368.113281 C 736.953125 368.113281 731.378906 375.636719 730.542969 385.527344 C 720.226562 520.539062 761.765625 588.949219 795.636719 612.914062 C 802.605469 617.789062 811.941406 611.242188 809.433594 603.019531 C 798.421875 566.515625 777.515625 498.800781 785.179688 385.527344 Z M 785.179688 385.527344 " fill-opacity="1" fill-rule="nonzero"/><path fill="#fec701" d="M 974.1875 367.972656 L 709.914062 367.972656 C 698.066406 367.972656 688.308594 376.890625 686.914062 388.59375 C 686.496094 392.078125 686.21875 395.421875 685.9375 398.765625 C 685.519531 402.945312 688.867188 406.566406 693.1875 406.566406 L 990.914062 406.566406 C 995.09375 406.566406 998.4375 402.945312 998.160156 398.765625 C 997.882812 395.421875 997.464844 392.078125 997.183594 388.59375 C 995.792969 377.027344 986.035156 367.972656 974.1875 367.972656 Z M 974.1875 367.972656 " fill-opacity="1" fill-rule="nonzero"/><path fill="#fed201" d="M 924.566406 367.972656 L 714.09375 367.972656 C 704.617188 367.972656 696.8125 376.890625 695.835938 388.59375 C 695.558594 392.078125 695.277344 395.421875 695 398.765625 C 694.71875 402.945312 697.367188 406.566406 700.714844 406.566406 L 937.945312 406.566406 C 941.292969 406.566406 943.941406 402.945312 943.660156 398.765625 C 943.382812 395.421875 943.105469 392.078125 942.824219 388.59375 C 941.710938 377.027344 933.90625 367.972656 924.566406 367.972656 Z M 924.566406 367.972656 " fill-opacity="1" fill-rule="nonzero"/><path fill="#fee676" d="M 722.039062 385.527344 C 721.484375 392.773438 721.0625 399.738281 720.785156 406.707031 L 775.5625 406.707031 C 775.84375 399.878906 776.261719 392.773438 776.679688 385.527344 C 777.375 375.636719 783.089844 368.113281 789.921875 368.113281 L 735.28125 368.113281 C 728.453125 367.972656 722.738281 375.636719 722.039062 385.527344 Z M 722.039062 385.527344 " fill-opacity="1" fill-rule="nonzero"/><path fill="#ffb401" d="M 692.769531 416.320312 L 991.46875 416.320312 C 991.332031 412.835938 991.191406 409.351562 990.914062 405.730469 L 693.328125 405.730469 C 693.046875 409.214844 692.910156 412.835938 692.769531 416.320312 Z M 692.769531 416.320312 " fill-opacity="1" fill-rule="nonzero"/><path fill="#ffb401" d="M 906.304688 510.644531 C 906.304688 511.695312 906.28125 512.742188 906.230469 513.789062 C 906.175781 514.839844 906.101562 515.882812 905.996094 516.925781 C 905.894531 517.972656 905.765625 519.011719 905.613281 520.050781 C 905.457031 521.085938 905.277344 522.121094 905.074219 523.148438 C 904.871094 524.179688 904.640625 525.199219 904.382812 526.21875 C 904.128906 527.234375 903.851562 528.246094 903.546875 529.25 C 903.242188 530.253906 902.910156 531.25 902.558594 532.238281 C 902.203125 533.226562 901.828125 534.203125 901.425781 535.171875 C 901.023438 536.140625 900.597656 537.101562 900.148438 538.046875 C 899.703125 538.996094 899.230469 539.933594 898.734375 540.859375 C 898.242188 541.78125 897.722656 542.695312 897.183594 543.59375 C 896.644531 544.496094 896.082031 545.378906 895.5 546.253906 C 894.917969 547.125 894.3125 547.980469 893.6875 548.824219 C 893.0625 549.667969 892.417969 550.492188 891.753906 551.304688 C 891.085938 552.117188 890.402344 552.910156 889.695312 553.6875 C 888.992188 554.464844 888.269531 555.222656 887.527344 555.964844 C 886.785156 556.707031 886.023438 557.429688 885.246094 558.132812 C 884.46875 558.839844 883.675781 559.523438 882.863281 560.1875 C 882.054688 560.855469 881.226562 561.5 880.382812 562.125 C 879.539062 562.75 878.683594 563.351562 877.8125 563.9375 C 876.9375 564.519531 876.050781 565.078125 875.152344 565.617188 C 874.253906 566.15625 873.339844 566.675781 872.414062 567.167969 C 871.488281 567.664062 870.550781 568.136719 869.601562 568.582031 C 868.652344 569.03125 867.695312 569.457031 866.726562 569.859375 C 865.757812 570.261719 864.777344 570.636719 863.789062 570.992188 C 862.800781 571.34375 861.804688 571.671875 860.800781 571.976562 C 859.796875 572.28125 858.785156 572.5625 857.769531 572.816406 C 856.75 573.070312 855.726562 573.300781 854.699219 573.503906 C 853.667969 573.710938 852.636719 573.890625 851.597656 574.042969 C 850.558594 574.199219 849.519531 574.324219 848.472656 574.429688 C 847.429688 574.53125 846.382812 574.609375 845.335938 574.660156 C 844.289062 574.710938 843.238281 574.738281 842.1875 574.738281 C 841.140625 574.738281 840.089844 574.710938 839.042969 574.660156 C 837.996094 574.609375 836.949219 574.53125 835.90625 574.429688 C 834.859375 574.324219 833.820312 574.199219 832.78125 574.042969 C 831.742188 573.890625 830.710938 573.710938 829.679688 573.503906 C 828.652344 573.300781 827.628906 573.070312 826.609375 572.816406 C 825.59375 572.5625 824.582031 572.28125 823.578125 571.976562 C 822.574219 571.671875 821.578125 571.34375 820.589844 570.992188 C 819.601562 570.636719 818.621094 570.261719 817.652344 569.859375 C 816.683594 569.457031 815.722656 569.03125 814.777344 568.582031 C 813.828125 568.136719 812.890625 567.664062 811.964844 567.167969 C 811.039062 566.675781 810.125 566.15625 809.226562 565.617188 C 808.328125 565.078125 807.441406 564.519531 806.566406 563.9375 C 805.695312 563.351562 804.835938 562.75 803.996094 562.125 C 803.152344 561.5 802.324219 560.855469 801.515625 560.1875 C 800.703125 559.523438 799.910156 558.839844 799.132812 558.132812 C 798.355469 557.429688 797.59375 556.707031 796.851562 555.964844 C 796.109375 555.222656 795.386719 554.464844 794.683594 553.6875 C 793.976562 552.910156 793.292969 552.117188 792.625 551.304688 C 791.960938 550.492188 791.316406 549.667969 790.691406 548.824219 C 790.066406 547.980469 789.460938 547.125 788.878906 546.253906 C 788.296875 545.378906 787.734375 544.496094 787.195312 543.59375 C 786.65625 542.695312 786.136719 541.78125 785.644531 540.859375 C 785.148438 539.933594 784.675781 538.996094 784.226562 538.046875 C 783.78125 537.101562 783.355469 536.140625 782.953125 535.171875 C 782.550781 534.203125 782.175781 533.226562 781.820312 532.238281 C 781.46875 531.25 781.136719 530.253906 780.832031 529.25 C 780.527344 528.246094 780.25 527.234375 779.992188 526.21875 C 779.738281 525.199219 779.507812 524.179688 779.304688 523.148438 C 779.101562 522.121094 778.921875 521.085938 778.765625 520.050781 C 778.613281 519.011719 778.484375 517.972656 778.382812 516.925781 C 778.277344 515.882812 778.203125 514.839844 778.148438 513.789062 C 778.097656 512.742188 778.074219 511.695312 778.074219 510.644531 C 778.074219 509.597656 778.097656 508.546875 778.148438 507.5 C 778.203125 506.453125 778.277344 505.40625 778.382812 504.363281 C 778.484375 503.320312 778.613281 502.277344 778.765625 501.242188 C 778.921875 500.203125 779.101562 499.171875 779.304688 498.140625 C 779.507812 497.113281 779.738281 496.089844 779.992188 495.074219 C 780.25 494.054688 780.527344 493.042969 780.832031 492.039062 C 781.136719 491.035156 781.46875 490.042969 781.820312 489.054688 C 782.175781 488.066406 782.550781 487.085938 782.953125 486.117188 C 783.355469 485.148438 783.78125 484.191406 784.226562 483.242188 C 784.675781 482.292969 785.148438 481.359375 785.644531 480.433594 C 786.136719 479.507812 786.65625 478.59375 787.195312 477.695312 C 787.734375 476.796875 788.296875 475.910156 788.878906 475.039062 C 789.460938 474.167969 790.066406 473.308594 790.691406 472.464844 C 791.316406 471.625 791.960938 470.796875 792.625 469.988281 C 793.292969 469.175781 793.976562 468.382812 794.683594 467.605469 C 795.386719 466.828125 796.109375 466.066406 796.851562 465.324219 C 797.59375 464.585938 798.355469 463.863281 799.132812 463.15625 C 799.910156 462.453125 800.703125 461.769531 801.515625 461.101562 C 802.324219 460.4375 803.152344 459.792969 803.996094 459.167969 C 804.835938 458.542969 805.695312 457.9375 806.566406 457.355469 C 807.441406 456.773438 808.328125 456.210938 809.226562 455.671875 C 810.125 455.132812 811.039062 454.617188 811.964844 454.121094 C 812.890625 453.628906 813.828125 453.15625 814.777344 452.707031 C 815.722656 452.257812 816.683594 451.835938 817.652344 451.433594 C 818.621094 451.03125 819.601562 450.652344 820.589844 450.300781 C 821.578125 449.945312 822.574219 449.617188 823.578125 449.3125 C 824.582031 449.007812 825.59375 448.730469 826.609375 448.476562 C 827.628906 448.21875 828.652344 447.988281 829.679688 447.785156 C 830.710938 447.582031 831.742188 447.402344 832.78125 447.246094 C 833.820312 447.09375 834.859375 446.964844 835.90625 446.863281 C 836.949219 446.761719 837.996094 446.683594 839.042969 446.632812 C 840.089844 446.578125 841.140625 446.554688 842.1875 446.554688 C 843.238281 446.554688 844.289062 446.578125 845.335938 446.632812 C 846.382812 446.683594 847.429688 446.761719 848.472656 446.863281 C 849.519531 446.964844 850.558594 447.09375 851.597656 447.246094 C 852.636719 447.402344 853.667969 447.582031 854.699219 447.785156 C 855.726562 447.988281 856.75 448.21875 857.769531 448.476562 C 858.785156 448.730469 859.796875 449.007812 860.800781 449.3125 C 861.804688 449.617188 862.800781 449.949219 863.789062 450.300781 C 864.777344 450.652344 865.757812 451.03125 866.726562 451.433594 C 867.695312 451.835938 868.652344 452.257812 869.601562 452.707031 C 870.550781 453.15625 871.488281 453.628906 872.414062 454.121094 C 873.339844 454.617188 874.253906 455.132812 875.152344 455.671875 C 876.050781 456.210938 876.9375 456.773438 877.8125 457.355469 C 878.683594 457.9375 879.539062 458.542969 880.382812 459.167969 C 881.226562 459.792969 882.054688 460.4375 882.863281 461.101562 C 883.675781 461.769531 884.46875 462.453125 885.246094 463.15625 C 886.023438 463.863281 886.785156 464.585938 887.527344 465.324219 C 888.269531 466.066406 888.992188 466.828125 889.695312 467.605469 C 890.402344 468.382812 891.085938 469.175781 891.753906 469.988281 C 892.417969 470.796875 893.0625 471.625 893.6875 472.464844 C 894.3125 473.308594 894.917969 474.167969 895.5 475.039062 C 896.082031 475.910156 896.644531 476.796875 897.183594 477.695312 C 897.722656 478.59375 898.242188 479.507812 898.734375 480.433594 C 899.230469 481.359375 899.703125 482.292969 900.148438 483.242188 C 900.597656 484.191406 901.023438 485.148438 901.425781 486.117188 C 901.828125 487.085938 902.203125 488.066406 902.558594 489.054688 C 902.910156 490.042969 903.242188 491.035156 903.546875 492.039062 C 903.851562 493.042969 904.128906 494.054688 904.382812 495.074219 C 904.640625 496.089844 904.871094 497.113281 905.074219 498.140625 C 905.277344 499.171875 905.457031 500.203125 905.613281 501.242188 C 905.765625 502.277344 905.894531 503.320312 905.996094 504.363281 C 906.101562 505.40625 906.175781 506.453125 906.230469 507.5 C 906.28125 508.546875 906.304688 509.597656 906.304688 510.644531 Z M 906.304688 510.644531 " fill-opacity="1" fill-rule="nonzero"/><path fill="#ffffff" d="M 845.675781 475.117188 L 853.898438 491.695312 C 854.457031 492.8125 855.570312 493.648438 856.824219 493.785156 L 875.085938 496.433594 C 878.289062 496.851562 879.542969 500.890625 877.3125 503.121094 L 864.074219 515.941406 C 863.097656 516.777344 862.679688 518.167969 862.957031 519.421875 L 866.023438 537.535156 C 866.582031 540.742188 863.238281 543.109375 860.308594 541.714844 L 844 533.078125 C 842.886719 532.519531 841.492188 532.519531 840.378906 533.078125 L 824.070312 541.714844 C 821.140625 543.25 817.796875 540.742188 818.355469 537.535156 L 821.421875 519.421875 C 821.699219 518.167969 821.28125 516.914062 820.304688 515.941406 L 807.066406 503.121094 C 804.695312 500.890625 806.089844 496.992188 809.292969 496.433594 L 827.554688 493.785156 C 828.808594 493.648438 829.921875 492.8125 830.480469 491.695312 L 838.703125 475.117188 C 840.097656 472.191406 844.140625 472.191406 845.675781 475.117188 Z M 845.675781 475.117188 " fill-opacity="1" fill-rule="nonzero"/><path fill="#fed201" d="M 1046.667969 392.632812 C 1046.667969 379.117188 1035.65625 368.113281 1022.132812 368.113281 C 1035.65625 368.113281 1046.667969 357.105469 1046.667969 343.589844 C 1046.667969 357.105469 1057.679688 368.113281 1071.199219 368.113281 C 1057.679688 367.972656 1046.667969 378.980469 1046.667969 392.632812 Z M 1046.667969 392.632812 " fill-opacity="1" fill-rule="nonzero"/><path fill="#fed201" d="M 706.566406 686.757812 C 706.566406 673.242188 695.558594 662.234375 682.035156 662.234375 C 695.558594 662.234375 706.566406 651.230469 706.566406 637.714844 C 706.566406 651.230469 717.578125 662.234375 731.101562 662.234375 C 717.578125 662.234375 706.566406 673.242188 706.566406 686.757812 Z M 706.566406 686.757812 " fill-opacity="1" fill-rule="nonzero"/><g clip-path="url(#d77048b798)"><path fill="#fed201" d="M 831.597656 309.175781 C 831.597656 295.660156 820.585938 284.652344 807.066406 284.652344 C 820.585938 284.652344 831.597656 273.644531 831.597656 260.132812 C 831.597656 273.644531 842.609375 284.652344 856.128906 284.652344 C 842.609375 284.515625 831.597656 295.519531 831.597656 309.175781 Z M 831.597656 309.175781 " fill-opacity="1" fill-rule="nonzero"/></g><path fill="#fed201" d="M 655.136719 362.679688 C 655.136719 354.597656 648.585938 348.1875 640.640625 348.1875 C 648.722656 348.1875 655.136719 341.640625 655.136719 333.699219 C 655.136719 341.777344 661.6875 348.1875 669.632812 348.1875 C 661.6875 348.1875 655.136719 354.734375 655.136719 362.679688 Z M 655.136719 362.679688 " fill-opacity="1" fill-rule="nonzero"/><path fill="#fed201" d="M 871.597656 345.402344 C 871.597656 337.320312 865.046875 330.910156 857.105469 330.910156 C 865.1875 330.910156 871.597656 324.363281 871.597656 316.421875 C 871.597656 324.5 878.152344 330.910156 886.09375 330.910156 C 878.011719 330.769531 871.597656 337.320312 871.597656 345.402344 Z M 871.597656 345.402344 " fill-opacity="1" fill-rule="nonzero"/><path fill="#fed201" d="M 962.894531 643.566406 C 962.894531 635.484375 956.34375 629.074219 948.398438 629.074219 C 956.484375 629.074219 962.894531 622.527344 962.894531 614.585938 C 962.894531 622.667969 969.449219 629.074219 977.390625 629.074219 C 969.449219 629.074219 962.894531 635.625 962.894531 643.566406 Z M 962.894531 643.566406 " fill-opacity="1" fill-rule="nonzero"/><path fill="#4d4d4d" d="M 729.707031 812.433594 L 954.671875 812.433594 L 954.671875 927.796875 L 729.707031 927.796875 Z M 729.707031 812.433594 " fill-opacity="1" fill-rule="nonzero"/><path fill="#ffb401" d="M 909.652344 900.628906 L 774.449219 900.628906 C 768.875 900.628906 764.414062 896.171875 764.414062 890.597656 L 764.414062 849.773438 C 764.414062 844.199219 768.875 839.742188 774.449219 839.742188 L 909.652344 839.742188 C 915.226562 839.742188 919.6875 844.199219 919.6875 849.773438 L 919.6875 890.597656 C 919.828125 896.171875 915.226562 900.628906 909.652344 900.628906 Z M 909.652344 900.628906 " fill-opacity="1" fill-rule="nonzero"/><path fill="#fec701" d="M 767.898438 890.457031 L 767.898438 849.632812 C 767.898438 846.011719 770.824219 843.085938 774.449219 843.085938 L 909.652344 843.085938 C 913.277344 843.085938 916.203125 846.011719 916.203125 849.632812 L 916.203125 890.457031 C 916.203125 894.078125 913.277344 897.007812 909.652344 897.007812 L 774.449219 897.007812 C 770.824219 897.144531 767.898438 894.078125 767.898438 890.457031 Z M 767.898438 890.457031 " fill-opacity="1" fill-rule="nonzero"/><path fill="#333333" d="M 729.707031 815.359375 L 954.671875 815.359375 L 954.671875 833.054688 L 729.707031 833.054688 Z M 729.707031 815.359375 " fill-opacity="1" fill-rule="nonzero"/><path fill="#fed201" d="M 786.4375 843.085938 L 820.304688 843.085938 L 820.304688 897.144531 L 786.4375 897.144531 Z M 786.4375 843.085938 " fill-opacity="1" fill-rule="nonzero"/><path fill="#666666" d="M 965.40625 809.925781 L 965.40625 820.234375 C 965.40625 822.324219 963.734375 823.859375 961.78125 823.859375 L 722.597656 823.859375 C 720.507812 823.859375 718.972656 822.1875 718.972656 820.234375 L 718.972656 809.925781 C 718.972656 807.835938 720.644531 806.300781 722.597656 806.300781 L 961.640625 806.300781 C 963.734375 806.164062 965.40625 807.835938 965.40625 809.925781 Z M 965.40625 809.925781 " fill-opacity="1" fill-rule="nonzero"/><g clip-path="url(#1a6da3a5f2)"><path fill="#1a1a1a" d="M 706.847656 930.167969 L 706.847656 950.925781 C 706.847656 954.132812 709.496094 956.777344 712.703125 956.777344 L 971.675781 956.777344 C 974.882812 956.777344 977.53125 954.132812 977.53125 950.925781 L 977.53125 930.167969 Z M 706.847656 930.167969 " fill-opacity="1" fill-rule="nonzero"/></g><path fill="#333333" d="M 715.347656 920.414062 L 706.847656 930.167969 L 977.390625 930.167969 L 968.890625 920.414062 C 966.660156 917.765625 963.316406 916.371094 959.828125 916.371094 L 724.410156 916.371094 C 720.925781 916.371094 717.578125 917.90625 715.347656 920.414062 Z M 715.347656 920.414062 " fill-opacity="1" fill-rule="nonzero"/><path fill="#333333" d="M 912.855469 850.46875 C 912.855469 850.894531 912.777344 851.304688 912.613281 851.695312 C 912.449219 852.089844 912.21875 852.433594 911.917969 852.734375 C 911.617188 853.035156 911.269531 853.269531 910.878906 853.429688 C 910.484375 853.59375 910.078125 853.675781 909.652344 853.675781 C 909.226562 853.675781 908.816406 853.59375 908.425781 853.429688 C 908.03125 853.269531 907.683594 853.035156 907.382812 852.734375 C 907.082031 852.433594 906.851562 852.089844 906.691406 851.695312 C 906.527344 851.304688 906.445312 850.894531 906.445312 850.46875 C 906.445312 850.046875 906.527344 849.636719 906.691406 849.242188 C 906.851562 848.851562 907.082031 848.503906 907.382812 848.203125 C 907.683594 847.902344 908.03125 847.671875 908.425781 847.507812 C 908.816406 847.347656 909.226562 847.265625 909.652344 847.265625 C 910.078125 847.265625 910.484375 847.347656 910.878906 847.507812 C 911.269531 847.671875 911.617188 847.902344 911.917969 848.203125 C 912.21875 848.503906 912.449219 848.851562 912.613281 849.242188 C 912.777344 849.636719 912.855469 850.046875 912.855469 850.46875 Z M 912.855469 850.46875 " fill-opacity="1" fill-rule="nonzero"/><path fill="#666666" d="M 907.949219 849.164062 L 908.34375 848.769531 L 911.296875 851.722656 L 910.90625 852.117188 Z M 907.949219 849.164062 " fill-opacity="1" fill-rule="nonzero"/><path fill="#666666" d="M 907.949219 851.722656 L 910.90625 848.769531 L 911.296875 849.164062 L 908.34375 852.117188 Z M 907.949219 851.722656 " fill-opacity="1" fill-rule="nonzero"/><path fill="#333333" d="M 912.855469 889.621094 C 912.855469 890.046875 912.777344 890.457031 912.613281 890.847656 C 912.449219 891.242188 912.21875 891.585938 911.917969 891.886719 C 911.617188 892.1875 911.269531 892.417969 910.878906 892.582031 C 910.484375 892.746094 910.078125 892.824219 909.652344 892.824219 C 909.226562 892.824219 908.816406 892.746094 908.425781 892.582031 C 908.03125 892.417969 907.683594 892.1875 907.382812 891.886719 C 907.082031 891.585938 906.851562 891.242188 906.691406 890.847656 C 906.527344 890.457031 906.445312 890.046875 906.445312 889.621094 C 906.445312 889.195312 906.527344 888.789062 906.691406 888.394531 C 906.851562 888.003906 907.082031 887.65625 907.382812 887.355469 C 907.683594 887.054688 908.03125 886.824219 908.425781 886.660156 C 908.816406 886.5 909.226562 886.417969 909.652344 886.417969 C 910.078125 886.417969 910.484375 886.5 910.878906 886.660156 C 911.269531 886.824219 911.617188 887.054688 911.917969 887.355469 C 912.21875 887.65625 912.449219 888.003906 912.613281 888.394531 C 912.777344 888.789062 912.855469 889.195312 912.855469 889.621094 Z M 912.855469 889.621094 " fill-opacity="1" fill-rule="nonzero"/><path fill="#666666" d="M 907.929688 888.320312 L 908.324219 887.925781 L 911.28125 890.882812 L 910.886719 891.277344 Z M 907.929688 888.320312 " fill-opacity="1" fill-rule="nonzero"/><path fill="#666666" d="M 907.929688 890.882812 L 910.886719 887.925781 L 911.28125 888.320312 L 908.324219 891.277344 Z M 907.929688 890.882812 " fill-opacity="1" fill-rule="nonzero"/><path fill="#333333" d="M 777.792969 850.46875 C 777.792969 850.894531 777.710938 851.304688 777.550781 851.695312 C 777.386719 852.089844 777.15625 852.433594 776.855469 852.734375 C 776.554688 853.035156 776.207031 853.269531 775.816406 853.429688 C 775.421875 853.59375 775.011719 853.675781 774.589844 853.675781 C 774.164062 853.675781 773.753906 853.59375 773.359375 853.429688 C 772.96875 853.269531 772.621094 853.035156 772.320312 852.734375 C 772.019531 852.433594 771.789062 852.089844 771.625 851.695312 C 771.464844 851.304688 771.382812 850.894531 771.382812 850.46875 C 771.382812 850.046875 771.464844 849.636719 771.625 849.242188 C 771.789062 848.851562 772.019531 848.503906 772.320312 848.203125 C 772.621094 847.902344 772.96875 847.671875 773.359375 847.507812 C 773.753906 847.347656 774.164062 847.265625 774.589844 847.265625 C 775.011719 847.265625 775.421875 847.347656 775.816406 847.507812 C 776.207031 847.671875 776.554688 847.902344 776.855469 848.203125 C 777.15625 848.503906 777.386719 848.851562 777.550781 849.242188 C 777.710938 849.636719 777.792969 850.046875 777.792969 850.46875 Z M 777.792969 850.46875 " fill-opacity="1" fill-rule="nonzero"/><path fill="#666666" d="M 772.910156 849.226562 L 773.304688 848.832031 L 776.261719 851.789062 L 775.867188 852.183594 Z M 772.910156 849.226562 " fill-opacity="1" fill-rule="nonzero"/><path fill="#666666" d="M 772.910156 851.789062 L 775.867188 848.832031 L 776.261719 849.226562 L 773.304688 852.183594 Z M 772.910156 851.789062 " fill-opacity="1" fill-rule="nonzero"/><path fill="#333333" d="M 777.792969 889.621094 C 777.792969 890.046875 777.710938 890.457031 777.550781 890.847656 C 777.386719 891.242188 777.15625 891.585938 776.855469 891.886719 C 776.554688 892.1875 776.207031 892.417969 775.816406 892.582031 C 775.421875 892.746094 775.011719 892.824219 774.589844 892.824219 C 774.164062 892.824219 773.753906 892.746094 773.359375 892.582031 C 772.96875 892.417969 772.621094 892.1875 772.320312 891.886719 C 772.019531 891.585938 771.789062 891.242188 771.625 890.847656 C 771.464844 890.457031 771.382812 890.046875 771.382812 889.621094 C 771.382812 889.195312 771.464844 888.789062 771.625 888.394531 C 771.789062 888.003906 772.019531 887.65625 772.320312 887.355469 C 772.621094 887.054688 772.96875 886.824219 773.359375 886.660156 C 773.753906 886.5 774.164062 886.417969 774.589844 886.417969 C 775.011719 886.417969 775.421875 886.5 775.816406 886.660156 C 776.207031 886.824219 776.554688 887.054688 776.855469 887.355469 C 777.15625 887.65625 777.386719 888.003906 777.550781 888.394531 C 777.710938 888.789062 777.792969 889.195312 777.792969 889.621094 Z M 777.792969 889.621094 " fill-opacity="1" fill-rule="nonzero"/><path fill="#666666" d="M 772.894531 888.386719 L 773.289062 887.992188 L 776.246094 890.945312 L 775.851562 891.339844 Z M 772.894531 888.386719 " fill-opacity="1" fill-rule="nonzero"/><path fill="#666666" d="M 772.894531 890.945312 L 775.851562 887.992188 L 776.246094 888.386719 L 773.289062 891.339844 Z M 772.894531 890.945312 " fill-opacity="1" fill-rule="nonzero"/><g clip-path="url(#39d4f34e98)"><path fill="#7ed957" d="M 530.242188 361.503906 L 370.40625 688.789062 L 334.257812 762.871094 L 298.273438 836.625 L 286.277344 861.265625 L 169.722656 804.367188 L 226.136719 688.789062 L 262.121094 615.03125 L 298.273438 540.949219 L 385.96875 361.503906 Z M 530.242188 361.503906 " fill-opacity="1" fill-rule="nonzero"/></g><g clip-path="url(#d0e5020c52)"><path fill="#00bf63" d="M 458.105469 361.503906 L 334.421875 615.03125 L 298.273438 688.949219 L 262.285156 762.871094 L 228.082031 832.738281 L 169.722656 804.367188 L 226.136719 688.789062 L 262.121094 615.03125 L 298.273438 540.949219 L 385.96875 361.503906 Z M 458.105469 361.503906 " fill-opacity="1" fill-rule="nonzero"/></g><g clip-path="url(#e8534f4152)"><path fill="#00bf63" d="M 426.820312 804.367188 L 310.265625 861.265625 L 298.273438 836.625 L 262.285156 762.871094 L 226.136719 688.789062 L 66.300781 361.503906 L 210.574219 361.503906 L 298.273438 540.949219 L 334.421875 615.03125 L 370.40625 688.789062 Z M 426.820312 804.367188 " fill-opacity="1" fill-rule="nonzero"/></g><g clip-path="url(#a5666fc21f)"><path fill="#7ed957" d="M 426.820312 804.367188 L 368.460938 832.738281 L 334.257812 762.871094 L 298.273438 688.949219 L 262.121094 615.03125 L 138.4375 361.503906 L 210.574219 361.503906 L 298.273438 540.949219 L 334.421875 615.03125 L 370.40625 688.789062 Z M 426.820312 804.367188 " fill-opacity="1" fill-rule="nonzero"/></g><path fill="#f7d70e" d="M 460.375 782.972656 C 460.375 785.625 460.308594 788.273438 460.179688 790.925781 C 460.050781 793.574219 459.855469 796.21875 459.59375 798.859375 C 459.332031 801.5 459.007812 804.132812 458.621094 806.757812 C 458.230469 809.378906 457.777344 811.992188 457.257812 814.59375 C 456.742188 817.199219 456.160156 819.785156 455.515625 822.359375 C 454.871094 824.933594 454.164062 827.488281 453.394531 830.027344 C 452.625 832.566406 451.792969 835.082031 450.898438 837.582031 C 450.003906 840.078125 449.050781 842.554688 448.035156 845.003906 C 447.019531 847.457031 445.945312 849.878906 444.8125 852.277344 C 443.675781 854.675781 442.484375 857.046875 441.234375 859.386719 C 439.984375 861.726562 438.675781 864.03125 437.3125 866.308594 C 435.949219 868.582031 434.527344 870.824219 433.054688 873.03125 C 431.582031 875.234375 430.054688 877.40625 428.472656 879.535156 C 426.894531 881.667969 425.261719 883.757812 423.578125 885.808594 C 421.894531 887.859375 420.164062 889.867188 418.382812 891.832031 C 416.601562 893.796875 414.773438 895.71875 412.894531 897.59375 C 411.019531 899.46875 409.097656 901.300781 407.132812 903.082031 C 405.167969 904.863281 403.160156 906.59375 401.109375 908.277344 C 399.058594 909.960938 396.96875 911.59375 394.835938 913.171875 C 392.707031 914.753906 390.535156 916.28125 388.332031 917.753906 C 386.125 919.226562 383.882812 920.648438 381.609375 922.011719 C 379.332031 923.375 377.027344 924.683594 374.6875 925.933594 C 372.347656 927.183594 369.976562 928.375 367.578125 929.511719 C 365.179688 930.644531 362.757812 931.71875 360.304688 932.734375 C 357.855469 933.75 355.378906 934.703125 352.882812 935.597656 C 350.382812 936.492188 347.867188 937.324219 345.328125 938.09375 C 342.789062 938.863281 340.234375 939.570312 337.660156 940.214844 C 335.085938 940.859375 332.5 941.441406 329.894531 941.957031 C 327.292969 942.476562 324.679688 942.929688 322.058594 943.320312 C 319.433594 943.707031 316.800781 944.03125 314.160156 944.292969 C 311.519531 944.554688 308.875 944.75 306.226562 944.878906 C 303.574219 945.007812 300.925781 945.074219 298.273438 945.074219 C 295.617188 945.074219 292.96875 945.007812 290.316406 944.878906 C 287.667969 944.75 285.023438 944.554688 282.382812 944.292969 C 279.742188 944.03125 277.109375 943.707031 274.484375 943.320312 C 271.863281 942.929688 269.25 942.476562 266.648438 941.957031 C 264.042969 941.441406 261.457031 940.859375 258.882812 940.214844 C 256.308594 939.570312 253.753906 938.863281 251.214844 938.09375 C 248.675781 937.324219 246.160156 936.492188 243.660156 935.597656 C 241.164062 934.703125 238.6875 933.75 236.238281 932.734375 C 233.785156 931.71875 231.363281 930.644531 228.964844 929.511719 C 226.566406 928.375 224.195312 927.183594 221.855469 925.933594 C 219.515625 924.683594 217.210938 923.375 214.933594 922.011719 C 212.660156 920.648438 210.417969 919.226562 208.210938 917.753906 C 206.007812 916.28125 203.835938 914.753906 201.707031 913.171875 C 199.574219 911.59375 197.484375 909.960938 195.433594 908.277344 C 193.382812 906.59375 191.375 904.863281 189.410156 903.082031 C 187.445312 901.300781 185.523438 899.46875 183.648438 897.59375 C 181.769531 895.71875 179.941406 893.796875 178.160156 891.832031 C 176.378906 889.867188 174.648438 887.859375 172.964844 885.808594 C 171.28125 883.757812 169.648438 881.667969 168.070312 879.535156 C 166.488281 877.40625 164.960938 875.234375 163.488281 873.03125 C 162.015625 870.824219 160.59375 868.582031 159.230469 866.308594 C 157.867188 864.03125 156.558594 861.726562 155.308594 859.386719 C 154.058594 857.046875 152.867188 854.675781 151.730469 852.277344 C 150.597656 849.878906 149.523438 847.457031 148.507812 845.003906 C 147.492188 842.554688 146.539062 840.078125 145.644531 837.582031 C 144.75 835.082031 143.917969 832.566406 143.148438 830.027344 C 142.378906 827.488281 141.671875 824.933594 141.027344 822.359375 C 140.382812 819.785156 139.800781 817.199219 139.285156 814.59375 C 138.765625 811.992188 138.3125 809.378906 137.921875 806.757812 C 137.535156 804.132812 137.210938 801.5 136.949219 798.859375 C 136.6875 796.21875 136.492188 793.574219 136.363281 790.925781 C 136.234375 788.273438 136.167969 785.625 136.167969 782.972656 C 136.167969 780.316406 136.234375 777.667969 136.363281 775.015625 C 136.492188 772.367188 136.6875 769.722656 136.949219 767.082031 C 137.210938 764.441406 137.535156 761.808594 137.921875 759.183594 C 138.3125 756.5625 138.765625 753.949219 139.285156 751.347656 C 139.800781 748.742188 140.382812 746.15625 141.027344 743.582031 C 141.671875 741.007812 142.378906 738.453125 143.148438 735.914062 C 143.917969 733.375 144.75 730.859375 145.644531 728.359375 C 146.539062 725.863281 147.492188 723.386719 148.507812 720.9375 C 149.523438 718.484375 150.597656 716.0625 151.730469 713.664062 C 152.867188 711.265625 154.058594 708.894531 155.308594 706.554688 C 156.558594 704.214844 157.867188 701.910156 159.230469 699.632812 C 160.59375 697.359375 162.015625 695.117188 163.488281 692.910156 C 164.960938 690.707031 166.488281 688.535156 168.070312 686.40625 C 169.648438 684.273438 171.28125 682.183594 172.964844 680.132812 C 174.648438 678.082031 176.378906 676.074219 178.160156 674.109375 C 179.941406 672.144531 181.769531 670.222656 183.648438 668.347656 C 185.523438 666.46875 187.445312 664.640625 189.410156 662.859375 C 191.375 661.078125 193.382812 659.347656 195.433594 657.664062 C 197.484375 655.980469 199.574219 654.347656 201.707031 652.769531 C 203.835938 651.1875 206.007812 649.660156 208.210938 648.1875 C 210.417969 646.714844 212.660156 645.292969 214.933594 643.929688 C 217.210938 642.566406 219.515625 641.257812 221.855469 640.007812 C 224.195312 638.757812 226.566406 637.566406 228.964844 636.429688 C 231.363281 635.296875 233.785156 634.222656 236.238281 633.207031 C 238.6875 632.191406 241.164062 631.238281 243.660156 630.34375 C 246.160156 629.449219 248.675781 628.617188 251.214844 627.847656 C 253.753906 627.078125 256.308594 626.371094 258.882812 625.726562 C 261.457031 625.082031 264.042969 624.5 266.648438 623.984375 C 269.25 623.464844 271.863281 623.011719 274.484375 622.621094 C 277.109375 622.234375 279.742188 621.910156 282.382812 621.648438 C 285.023438 621.386719 287.667969 621.191406 290.316406 621.0625 C 292.96875 620.933594 295.617188 620.867188 298.273438 620.867188 C 300.925781 620.867188 303.574219 620.933594 306.226562 621.0625 C 308.875 621.191406 311.519531 621.386719 314.160156 621.648438 C 316.800781 621.910156 319.433594 622.234375 322.058594 622.621094 C 324.679688 623.011719 327.292969 623.464844 329.894531 623.984375 C 332.5 624.5 335.085938 625.082031 337.660156 625.726562 C 340.234375 626.371094 342.789062 627.078125 345.328125 627.847656 C 347.867188 628.617188 350.382812 629.449219 352.882812 630.34375 C 355.378906 631.238281 357.855469 632.191406 360.304688 633.207031 C 362.757812 634.222656 365.179688 635.296875 367.578125 636.429688 C 369.976562 637.566406 372.347656 638.757812 374.6875 640.007812 C 377.027344 641.257812 379.332031 642.566406 381.609375 643.929688 C 383.882812 645.292969 386.125 646.714844 388.332031 648.1875 C 390.535156 649.660156 392.707031 651.1875 394.835938 652.769531 C 396.96875 654.347656 399.058594 655.980469 401.109375 657.664062 C 403.160156 659.347656 405.167969 661.078125 407.132812 662.859375 C 409.097656 664.640625 411.019531 666.46875 412.894531 668.347656 C 414.773438 670.222656 416.601562 672.144531 418.382812 674.109375 C 420.164062 676.074219 421.894531 678.082031 423.578125 680.132812 C 425.261719 682.183594 426.894531 684.273438 428.472656 686.40625 C 430.054688 688.535156 431.582031 690.707031 433.054688 692.910156 C 434.527344 695.117188 435.949219 697.359375 437.3125 699.632812 C 438.675781 701.910156 439.984375 704.214844 441.234375 706.554688 C 442.484375 708.894531 443.675781 711.265625 444.8125 713.664062 C 445.945312 716.0625 447.019531 718.484375 448.035156 720.9375 C 449.050781 723.386719 450.003906 725.863281 450.898438 728.359375 C 451.792969 730.859375 452.625 733.375 453.394531 735.914062 C 454.164062 738.453125 454.871094 741.007812 455.515625 743.582031 C 456.160156 746.15625 456.742188 748.742188 457.257812 751.347656 C 457.777344 753.949219 458.230469 756.5625 458.621094 759.183594 C 459.007812 761.808594 459.332031 764.441406 459.59375 767.082031 C 459.855469 769.722656 460.050781 772.367188 460.179688 775.015625 C 460.308594 777.667969 460.375 780.316406 460.375 782.972656 Z M 460.375 782.972656 " fill-opacity="1" fill-rule="nonzero"/><path fill="#f8f6f7" d="M 298.273438 678.089844 L 321.777344 750.550781 L 398.125 750.550781 L 336.367188 795.289062 L 359.871094 867.914062 L 298.273438 823.011719 L 236.671875 867.914062 L 260.175781 795.289062 L 198.417969 750.550781 L 274.765625 750.550781 Z M 298.273438 678.089844 " fill-opacity="1" fill-rule="nonzero"/><g clip-path="url(#abad533777)"><path fill="#ffbd59" d="M 298.273438 1058.546875 C 297.742188 1058.546875 297.210938 1058.519531 296.683594 1058.46875 C 296.152344 1058.414062 295.628906 1058.335938 295.109375 1058.234375 C 294.589844 1058.128906 294.074219 1058 293.566406 1057.847656 C 293.058594 1057.695312 292.558594 1057.515625 292.066406 1057.3125 C 291.578125 1057.109375 291.097656 1056.882812 290.628906 1056.632812 C 290.160156 1056.382812 289.707031 1056.109375 289.265625 1055.8125 C 288.824219 1055.519531 288.398438 1055.203125 287.988281 1054.867188 C 287.578125 1054.53125 287.183594 1054.171875 286.808594 1053.796875 C 286.433594 1053.421875 286.078125 1053.03125 285.742188 1052.621094 C 285.402344 1052.207031 285.089844 1051.78125 284.792969 1051.339844 C 284.5 1050.898438 284.226562 1050.445312 283.976562 1049.976562 C 283.726562 1049.507812 283.5 1049.03125 283.296875 1048.539062 C 283.09375 1048.046875 282.914062 1047.550781 282.757812 1047.042969 C 282.605469 1046.53125 282.476562 1046.019531 282.371094 1045.496094 C 282.269531 1044.976562 282.191406 1044.453125 282.140625 1043.925781 C 282.085938 1043.394531 282.0625 1042.867188 282.0625 1042.335938 L 282.0625 1009.914062 C 282.0625 1009.382812 282.085938 1008.855469 282.140625 1008.324219 C 282.191406 1007.796875 282.269531 1007.273438 282.371094 1006.753906 C 282.476562 1006.230469 282.605469 1005.71875 282.757812 1005.210938 C 282.914062 1004.703125 283.09375 1004.203125 283.296875 1003.710938 C 283.5 1003.222656 283.726562 1002.742188 283.976562 1002.273438 C 284.226562 1001.804688 284.5 1001.351562 284.792969 1000.910156 C 285.089844 1000.46875 285.402344 1000.042969 285.742188 999.632812 C 286.078125 999.222656 286.433594 998.828125 286.808594 998.453125 C 287.183594 998.078125 287.578125 997.722656 287.988281 997.382812 C 288.398438 997.046875 288.824219 996.730469 289.265625 996.4375 C 289.707031 996.140625 290.160156 995.867188 290.628906 995.617188 C 291.097656 995.367188 291.578125 995.140625 292.066406 994.9375 C 292.558594 994.734375 293.058594 994.558594 293.566406 994.402344 C 294.074219 994.25 294.589844 994.121094 295.109375 994.015625 C 295.628906 993.914062 296.152344 993.835938 296.683594 993.78125 C 297.210938 993.730469 297.742188 993.703125 298.273438 993.703125 C 298.800781 993.703125 299.332031 993.730469 299.859375 993.78125 C 300.390625 993.835938 300.914062 993.914062 301.433594 994.015625 C 301.953125 994.121094 302.46875 994.25 302.976562 994.402344 C 303.484375 994.558594 303.984375 994.734375 304.476562 994.9375 C 304.964844 995.140625 305.445312 995.367188 305.914062 995.617188 C 306.382812 995.867188 306.835938 996.140625 307.277344 996.4375 C 307.71875 996.730469 308.144531 997.046875 308.554688 997.382812 C 308.964844 997.722656 309.359375 998.078125 309.734375 998.453125 C 310.109375 998.828125 310.464844 999.222656 310.800781 999.632812 C 311.140625 1000.042969 311.453125 1000.46875 311.75 1000.910156 C 312.042969 1001.351562 312.316406 1001.804688 312.566406 1002.273438 C 312.816406 1002.742188 313.042969 1003.222656 313.246094 1003.710938 C 313.449219 1004.203125 313.628906 1004.703125 313.785156 1005.210938 C 313.9375 1005.71875 314.066406 1006.230469 314.171875 1006.753906 C 314.273438 1007.273438 314.351562 1007.796875 314.402344 1008.324219 C 314.457031 1008.855469 314.480469 1009.382812 314.480469 1009.914062 L 314.480469 1042.335938 C 314.480469 1042.867188 314.457031 1043.394531 314.402344 1043.925781 C 314.351562 1044.453125 314.273438 1044.976562 314.171875 1045.496094 C 314.066406 1046.019531 313.9375 1046.53125 313.785156 1047.042969 C 313.628906 1047.550781 313.449219 1048.046875 313.246094 1048.539062 C 313.042969 1049.03125 312.816406 1049.507812 312.566406 1049.976562 C 312.316406 1050.445312 312.042969 1050.898438 311.75 1051.339844 C 311.453125 1051.78125 311.140625 1052.207031 310.800781 1052.621094 C 310.464844 1053.03125 310.109375 1053.421875 309.734375 1053.796875 C 309.359375 1054.171875 308.964844 1054.53125 308.554688 1054.867188 C 308.144531 1055.203125 307.71875 1055.519531 307.277344 1055.8125 C 306.835938 1056.109375 306.382812 1056.382812 305.914062 1056.632812 C 305.445312 1056.882812 304.964844 1057.109375 304.476562 1057.3125 C 303.984375 1057.515625 303.484375 1057.695312 302.976562 1057.847656 C 302.46875 1058 301.953125 1058.128906 301.433594 1058.234375 C 300.914062 1058.335938 300.390625 1058.414062 299.859375 1058.46875 C 299.332031 1058.519531 298.800781 1058.546875 298.273438 1058.546875 Z M 298.273438 1058.546875 " fill-opacity="1" fill-rule="nonzero"/></g><path fill="#ffbd59" d="M 481.609375 982.519531 C 479.484375 982.511719 477.4375 982.097656 475.472656 981.285156 C 473.507812 980.472656 471.773438 979.316406 470.261719 977.820312 L 447.246094 954.960938 C 446.867188 954.585938 446.511719 954.191406 446.171875 953.777344 C 445.835938 953.367188 445.519531 952.9375 445.222656 952.496094 C 444.925781 952.050781 444.652344 951.59375 444.402344 951.125 C 444.152344 950.65625 443.925781 950.175781 443.722656 949.679688 C 443.515625 949.1875 443.339844 948.6875 443.183594 948.179688 C 443.03125 947.667969 442.902344 947.152344 442.796875 946.628906 C 442.691406 946.105469 442.617188 945.582031 442.5625 945.050781 C 442.511719 944.519531 442.484375 943.988281 442.484375 943.457031 C 442.484375 942.921875 442.511719 942.390625 442.566406 941.859375 C 442.617188 941.332031 442.695312 940.804688 442.800781 940.28125 C 442.902344 939.757812 443.03125 939.242188 443.1875 938.734375 C 443.34375 938.222656 443.523438 937.722656 443.726562 937.230469 C 443.929688 936.738281 444.15625 936.257812 444.410156 935.785156 C 444.660156 935.316406 444.933594 934.859375 445.230469 934.417969 C 445.527344 933.972656 445.84375 933.546875 446.179688 933.136719 C 446.519531 932.722656 446.875 932.328125 447.253906 931.953125 C 447.628906 931.574219 448.023438 931.21875 448.4375 930.878906 C 448.847656 930.542969 449.273438 930.226562 449.71875 929.929688 C 450.160156 929.632812 450.617188 929.359375 451.085938 929.109375 C 451.558594 928.855469 452.039062 928.628906 452.53125 928.425781 C 453.023438 928.222656 453.523438 928.042969 454.035156 927.886719 C 454.542969 927.730469 455.058594 927.601562 455.582031 927.5 C 456.105469 927.394531 456.632812 927.316406 457.160156 927.265625 C 457.691406 927.210938 458.222656 927.183594 458.757812 927.183594 C 459.289062 927.183594 459.820312 927.210938 460.351562 927.261719 C 460.882812 927.316406 461.40625 927.390625 461.929688 927.496094 C 462.453125 927.601562 462.96875 927.730469 463.480469 927.882812 C 463.988281 928.039062 464.488281 928.214844 464.984375 928.421875 C 465.476562 928.625 465.957031 928.851562 466.425781 929.101562 C 466.894531 929.351562 467.351562 929.625 467.796875 929.921875 C 468.238281 930.21875 468.667969 930.535156 469.078125 930.871094 C 469.492188 931.210938 469.886719 931.566406 470.261719 931.945312 L 492.796875 954.960938 C 493.519531 955.710938 494.164062 956.523438 494.730469 957.394531 C 495.300781 958.269531 495.777344 959.1875 496.167969 960.152344 C 496.558594 961.117188 496.851562 962.109375 497.050781 963.132812 C 497.25 964.15625 497.351562 965.1875 497.351562 966.226562 C 497.351562 967.269531 497.25 968.300781 497.050781 969.324219 C 496.851562 970.34375 496.558594 971.339844 496.167969 972.304688 C 495.777344 973.269531 495.300781 974.1875 494.730469 975.0625 C 494.164062 975.933594 493.519531 976.746094 492.796875 977.496094 C 491.332031 979.03125 489.632812 980.234375 487.695312 981.105469 C 485.761719 981.976562 483.730469 982.445312 481.609375 982.519531 Z M 481.609375 982.519531 " fill-opacity="1" fill-rule="nonzero"/><g clip-path="url(#f768b99e43)"><path fill="#ffbd59" d="M 557.636719 799.179688 L 525.214844 799.179688 C 524.683594 799.179688 524.15625 799.15625 523.625 799.101562 C 523.097656 799.050781 522.574219 798.972656 522.054688 798.871094 C 521.53125 798.765625 521.019531 798.636719 520.511719 798.484375 C 520 798.328125 519.503906 798.148438 519.011719 797.945312 C 518.523438 797.742188 518.042969 797.515625 517.574219 797.265625 C 517.105469 797.015625 516.652344 796.742188 516.210938 796.449219 C 515.769531 796.152344 515.34375 795.839844 514.933594 795.5 C 514.523438 795.164062 514.128906 794.808594 513.753906 794.433594 C 513.378906 794.058594 513.023438 793.664062 512.683594 793.253906 C 512.347656 792.84375 512.03125 792.417969 511.738281 791.976562 C 511.441406 791.535156 511.167969 791.082031 510.917969 790.613281 C 510.667969 790.144531 510.441406 789.664062 510.238281 789.175781 C 510.035156 788.683594 509.859375 788.183594 509.703125 787.675781 C 509.550781 787.167969 509.421875 786.652344 509.316406 786.132812 C 509.214844 785.613281 509.136719 785.089844 509.082031 784.558594 C 509.03125 784.03125 509.003906 783.5 509.003906 782.972656 C 509.003906 782.441406 509.03125 781.910156 509.082031 781.382812 C 509.136719 780.851562 509.214844 780.328125 509.316406 779.808594 C 509.421875 779.289062 509.550781 778.773438 509.703125 778.265625 C 509.859375 777.757812 510.035156 777.257812 510.238281 776.765625 C 510.441406 776.277344 510.667969 775.796875 510.917969 775.328125 C 511.167969 774.859375 511.441406 774.40625 511.738281 773.964844 C 512.03125 773.523438 512.347656 773.097656 512.683594 772.6875 C 513.023438 772.277344 513.378906 771.882812 513.753906 771.507812 C 514.128906 771.132812 514.523438 770.777344 514.933594 770.441406 C 515.34375 770.101562 515.769531 769.789062 516.210938 769.492188 C 516.652344 769.199219 517.105469 768.925781 517.574219 768.675781 C 518.042969 768.425781 518.523438 768.199219 519.011719 767.996094 C 519.503906 767.792969 520 767.613281 520.511719 767.457031 C 521.019531 767.304688 521.53125 767.175781 522.054688 767.070312 C 522.574219 766.96875 523.097656 766.890625 523.625 766.839844 C 524.15625 766.785156 524.683594 766.761719 525.214844 766.761719 L 557.636719 766.761719 C 558.167969 766.761719 558.695312 766.785156 559.226562 766.839844 C 559.753906 766.890625 560.277344 766.96875 560.796875 767.070312 C 561.320312 767.175781 561.832031 767.304688 562.34375 767.457031 C 562.851562 767.613281 563.347656 767.792969 563.839844 767.996094 C 564.332031 768.199219 564.808594 768.425781 565.277344 768.675781 C 565.746094 768.925781 566.199219 769.199219 566.640625 769.492188 C 567.082031 769.789062 567.507812 770.101562 567.921875 770.441406 C 568.332031 770.777344 568.722656 771.132812 569.097656 771.507812 C 569.472656 771.882812 569.832031 772.277344 570.167969 772.6875 C 570.503906 773.097656 570.820312 773.523438 571.113281 773.964844 C 571.410156 774.40625 571.683594 774.859375 571.933594 775.328125 C 572.183594 775.796875 572.410156 776.277344 572.613281 776.765625 C 572.816406 777.257812 572.996094 777.757812 573.148438 778.265625 C 573.300781 778.773438 573.429688 779.289062 573.535156 779.808594 C 573.640625 780.328125 573.714844 780.851562 573.769531 781.382812 C 573.820312 781.910156 573.847656 782.441406 573.847656 782.972656 C 573.847656 783.5 573.820312 784.03125 573.769531 784.558594 C 573.714844 785.089844 573.640625 785.613281 573.535156 786.132812 C 573.429688 786.652344 573.300781 787.167969 573.148438 787.675781 C 572.996094 788.183594 572.816406 788.683594 572.613281 789.175781 C 572.410156 789.664062 572.183594 790.144531 571.933594 790.613281 C 571.683594 791.082031 571.410156 791.535156 571.113281 791.976562 C 570.820312 792.417969 570.503906 792.84375 570.167969 793.253906 C 569.832031 793.664062 569.472656 794.058594 569.097656 794.433594 C 568.722656 794.808594 568.332031 795.164062 567.917969 795.5 C 567.507812 795.839844 567.082031 796.152344 566.640625 796.449219 C 566.199219 796.742188 565.746094 797.015625 565.277344 797.265625 C 564.808594 797.515625 564.332031 797.742188 563.839844 797.945312 C 563.347656 798.148438 562.851562 798.328125 562.34375 798.484375 C 561.832031 798.636719 561.320312 798.765625 560.796875 798.871094 C 560.277344 798.972656 559.753906 799.050781 559.226562 799.101562 C 558.695312 799.15625 558.167969 799.179688 557.636719 799.179688 Z M 557.636719 799.179688 " fill-opacity="1" fill-rule="nonzero"/></g><g clip-path="url(#6c56e6925a)"><path fill="#ffbd59" d="M 71.328125 799.179688 L 38.90625 799.179688 C 38.375 799.179688 37.847656 799.15625 37.316406 799.101562 C 36.789062 799.050781 36.265625 798.972656 35.746094 798.871094 C 35.222656 798.765625 34.710938 798.636719 34.199219 798.484375 C 33.691406 798.328125 33.195312 798.148438 32.703125 797.945312 C 32.210938 797.742188 31.734375 797.515625 31.265625 797.265625 C 30.796875 797.015625 30.34375 796.742188 29.902344 796.449219 C 29.460938 796.152344 29.035156 795.839844 28.621094 795.5 C 28.210938 795.164062 27.820312 794.808594 27.445312 794.433594 C 27.070312 794.058594 26.710938 793.664062 26.375 793.253906 C 26.039062 792.84375 25.722656 792.417969 25.429688 791.976562 C 25.132812 791.535156 24.859375 791.082031 24.609375 790.613281 C 24.359375 790.144531 24.132812 789.664062 23.929688 789.175781 C 23.726562 788.683594 23.546875 788.183594 23.394531 787.675781 C 23.242188 787.167969 23.113281 786.652344 23.007812 786.132812 C 22.902344 785.613281 22.828125 785.089844 22.773438 784.558594 C 22.722656 784.03125 22.695312 783.5 22.695312 782.972656 C 22.695312 782.441406 22.722656 781.910156 22.773438 781.382812 C 22.828125 780.851562 22.902344 780.328125 23.007812 779.808594 C 23.113281 779.289062 23.242188 778.773438 23.394531 778.265625 C 23.546875 777.757812 23.726562 777.257812 23.929688 776.765625 C 24.132812 776.277344 24.359375 775.796875 24.609375 775.328125 C 24.859375 774.859375 25.132812 774.40625 25.429688 773.964844 C 25.722656 773.523438 26.039062 773.097656 26.375 772.6875 C 26.710938 772.277344 27.070312 771.882812 27.445312 771.507812 C 27.820312 771.132812 28.210938 770.777344 28.621094 770.441406 C 29.035156 770.101562 29.460938 769.789062 29.902344 769.492188 C 30.34375 769.199219 30.796875 768.925781 31.265625 768.675781 C 31.734375 768.425781 32.210938 768.199219 32.703125 767.996094 C 33.195312 767.792969 33.691406 767.613281 34.199219 767.457031 C 34.710938 767.304688 35.222656 767.175781 35.746094 767.070312 C 36.265625 766.96875 36.789062 766.890625 37.316406 766.839844 C 37.847656 766.785156 38.375 766.761719 38.90625 766.761719 L 71.328125 766.761719 C 71.859375 766.761719 72.386719 766.785156 72.917969 766.839844 C 73.445312 766.890625 73.96875 766.96875 74.488281 767.070312 C 75.011719 767.175781 75.523438 767.304688 76.03125 767.457031 C 76.539062 767.613281 77.039062 767.792969 77.53125 767.996094 C 78.019531 768.199219 78.5 768.425781 78.96875 768.675781 C 79.4375 768.925781 79.890625 769.199219 80.332031 769.492188 C 80.773438 769.789062 81.199219 770.101562 81.609375 770.441406 C 82.019531 770.777344 82.414062 771.132812 82.789062 771.507812 C 83.164062 771.882812 83.519531 772.277344 83.859375 772.6875 C 84.195312 773.097656 84.511719 773.523438 84.804688 773.964844 C 85.101562 774.40625 85.375 774.859375 85.625 775.328125 C 85.875 775.796875 86.101562 776.277344 86.304688 776.765625 C 86.507812 777.257812 86.683594 777.757812 86.839844 778.265625 C 86.992188 778.773438 87.121094 779.289062 87.226562 779.808594 C 87.328125 780.328125 87.40625 780.851562 87.460938 781.382812 C 87.511719 781.910156 87.539062 782.441406 87.539062 782.972656 C 87.539062 783.5 87.511719 784.03125 87.460938 784.558594 C 87.40625 785.089844 87.328125 785.613281 87.226562 786.132812 C 87.121094 786.652344 86.992188 787.167969 86.839844 787.675781 C 86.683594 788.183594 86.507812 788.683594 86.304688 789.175781 C 86.101562 789.664062 85.875 790.144531 85.625 790.613281 C 85.375 791.082031 85.101562 791.535156 84.804688 791.976562 C 84.511719 792.417969 84.195312 792.84375 83.859375 793.253906 C 83.519531 793.664062 83.164062 794.058594 82.789062 794.433594 C 82.414062 794.808594 82.019531 795.164062 81.609375 795.5 C 81.199219 795.839844 80.773438 796.152344 80.332031 796.449219 C 79.890625 796.742188 79.4375 797.015625 78.96875 797.265625 C 78.5 797.515625 78.019531 797.742188 77.53125 797.945312 C 77.039062 798.148438 76.539062 798.328125 76.03125 798.484375 C 75.523438 798.636719 75.011719 798.765625 74.488281 798.871094 C 73.96875 798.972656 73.445312 799.050781 72.917969 799.101562 C 72.386719 799.15625 71.859375 799.179688 71.328125 799.179688 Z M 71.328125 799.179688 " fill-opacity="1" fill-rule="nonzero"/></g><path fill="#ffbd59" d="M 114.933594 982.519531 C 112.8125 982.445312 110.78125 981.976562 108.847656 981.105469 C 106.910156 980.234375 105.210938 979.03125 103.746094 977.496094 C 103.375 977.121094 103.019531 976.726562 102.6875 976.316406 C 102.351562 975.90625 102.039062 975.480469 101.746094 975.042969 C 101.453125 974.601562 101.183594 974.148438 100.933594 973.679688 C 100.683594 973.214844 100.460938 972.734375 100.257812 972.246094 C 100.058594 971.757812 99.878906 971.261719 99.726562 970.753906 C 99.574219 970.25 99.445312 969.734375 99.34375 969.214844 C 99.242188 968.699219 99.164062 968.175781 99.113281 967.648438 C 99.058594 967.121094 99.035156 966.59375 99.035156 966.066406 C 99.035156 965.539062 99.058594 965.007812 99.113281 964.484375 C 99.164062 963.957031 99.242188 963.433594 99.34375 962.914062 C 99.445312 962.398438 99.574219 961.882812 99.726562 961.378906 C 99.878906 960.871094 100.058594 960.375 100.257812 959.886719 C 100.460938 959.394531 100.683594 958.917969 100.933594 958.453125 C 101.183594 957.984375 101.453125 957.53125 101.746094 957.089844 C 102.039062 956.648438 102.351562 956.226562 102.6875 955.816406 C 103.019531 955.40625 103.375 955.011719 103.746094 954.636719 L 126.605469 931.621094 C 126.980469 931.242188 127.375 930.882812 127.789062 930.546875 C 128.199219 930.207031 128.628906 929.890625 129.070312 929.59375 C 129.515625 929.296875 129.96875 929.019531 130.441406 928.769531 C 130.910156 928.519531 131.390625 928.289062 131.886719 928.085938 C 132.378906 927.882812 132.878906 927.703125 133.390625 927.546875 C 133.898438 927.390625 134.417969 927.261719 134.941406 927.15625 C 135.460938 927.054688 135.988281 926.972656 136.519531 926.921875 C 137.050781 926.871094 137.582031 926.84375 138.117188 926.84375 C 138.648438 926.84375 139.183594 926.867188 139.710938 926.921875 C 140.242188 926.972656 140.769531 927.050781 141.292969 927.15625 C 141.816406 927.257812 142.332031 927.386719 142.84375 927.542969 C 143.355469 927.699219 143.855469 927.875 144.347656 928.082031 C 144.839844 928.285156 145.324219 928.511719 145.792969 928.765625 C 146.261719 929.015625 146.71875 929.289062 147.164062 929.585938 C 147.609375 929.882812 148.035156 930.199219 148.449219 930.535156 C 148.859375 930.875 149.253906 931.234375 149.632812 931.609375 C 150.007812 931.988281 150.367188 932.382812 150.703125 932.792969 C 151.042969 933.207031 151.359375 933.632812 151.65625 934.078125 C 151.953125 934.523438 152.226562 934.980469 152.476562 935.449219 C 152.730469 935.917969 152.957031 936.402344 153.160156 936.894531 C 153.367188 937.386719 153.542969 937.886719 153.699219 938.398438 C 153.855469 938.910156 153.984375 939.425781 154.085938 939.949219 C 154.191406 940.472656 154.269531 941 154.320312 941.53125 C 154.375 942.058594 154.398438 942.59375 154.398438 943.125 C 154.398438 943.660156 154.371094 944.191406 154.320312 944.722656 C 154.269531 945.253906 154.1875 945.78125 154.085938 946.300781 C 153.980469 946.824219 153.851562 947.34375 153.695312 947.851562 C 153.539062 948.363281 153.359375 948.863281 153.15625 949.355469 C 152.953125 949.851562 152.722656 950.332031 152.472656 950.800781 C 152.222656 951.269531 151.945312 951.726562 151.648438 952.171875 C 151.351562 952.613281 151.035156 953.042969 150.695312 953.453125 C 150.359375 953.867188 150 954.261719 149.621094 954.636719 L 126.28125 977.496094 C 124.796875 979.050781 123.074219 980.265625 121.105469 981.136719 C 119.140625 982.007812 117.082031 982.46875 114.933594 982.519531 Z M 114.933594 982.519531 " fill-opacity="1" fill-rule="nonzero"/><g clip-path="url(#7409138051)"><path fill="#edf4e0" d="M 1624.75 663.253906 C 1624.75 805.144531 1509.738281 920.152344 1367.851562 920.152344 C 1225.972656 920.152344 1110.957031 805.144531 1110.957031 663.253906 C 1110.957031 521.371094 1225.972656 406.359375 1367.851562 406.359375 C 1509.738281 406.359375 1624.75 521.371094 1624.75 663.253906 " fill-opacity="1" fill-rule="nonzero"/><path fill="#dd3d4e" d="M 1367.851562 406.359375 C 1225.972656 406.359375 1110.957031 521.371094 1110.957031 663.253906 C 1110.957031 805.144531 1225.972656 920.152344 1367.851562 920.152344 C 1509.738281 920.152344 1624.75 805.144531 1624.75 663.253906 C 1624.75 521.371094 1509.738281 406.359375 1367.851562 406.359375 Z M 1367.851562 457.742188 C 1481.183594 457.742188 1573.367188 549.941406 1573.367188 663.253906 C 1573.367188 776.570312 1481.183594 868.773438 1367.851562 868.773438 C 1254.53125 868.773438 1162.332031 776.570312 1162.332031 663.253906 C 1162.332031 549.941406 1254.53125 457.742188 1367.851562 457.742188 " fill-opacity="1" fill-rule="nonzero"/></g><path fill="#dd3d4e" d="M 1367.851562 509.121094 C 1282.730469 509.121094 1213.714844 578.132812 1213.714844 663.257812 C 1213.714844 748.382812 1282.730469 817.394531 1367.851562 817.394531 C 1452.984375 817.394531 1521.988281 748.382812 1521.988281 663.257812 C 1521.988281 578.132812 1452.984375 509.121094 1367.851562 509.121094 Z M 1367.851562 560.496094 C 1424.503906 560.496094 1470.609375 606.59375 1470.609375 663.257812 C 1470.609375 719.914062 1424.503906 766.015625 1367.851562 766.015625 C 1311.195312 766.015625 1265.09375 719.914062 1265.09375 663.257812 C 1265.09375 606.59375 1311.195312 560.496094 1367.851562 560.496094 " fill-opacity="1" fill-rule="nonzero"/><path fill="#dd3d4e" d="M 1419.230469 663.257812 C 1419.230469 691.628906 1396.230469 714.636719 1367.847656 714.636719 C 1339.476562 714.636719 1316.472656 691.628906 1316.472656 663.257812 C 1316.472656 634.890625 1339.476562 611.878906 1367.847656 611.878906 C 1396.230469 611.878906 1419.230469 634.890625 1419.230469 663.257812 " fill-opacity="1" fill-rule="nonzero"/><path fill="#7ed957" d="M 1653.609375 500.65625 C 1671.195312 531.101562 1750.511719 518.222656 1680.902344 558.414062 C 1611.28125 598.613281 1540.613281 606.503906 1523.019531 576.046875 C 1505.453125 545.601562 1547.621094 488.332031 1617.21875 448.140625 C 1686.84375 407.949219 1636.027344 470.203125 1653.609375 500.65625 " fill-opacity="1" fill-rule="nonzero"/><path fill="#f7d70e" d="M 1367.863281 675.902344 C 1364.308594 675.902344 1360.863281 674.0625 1358.953125 670.769531 C 1356.113281 665.851562 1357.796875 659.566406 1362.714844 656.730469 L 1656.359375 487.195312 C 1661.261719 484.347656 1667.546875 486.039062 1670.398438 490.964844 C 1673.242188 495.878906 1671.554688 502.15625 1666.632812 505 L 1372.996094 674.539062 C 1371.371094 675.460938 1369.609375 675.902344 1367.863281 675.902344 " fill-opacity="1" fill-rule="nonzero"/></svg>