<svg xmlns="http://www.w3.org/2000/svg" xmlns:xlink="http://www.w3.org/1999/xlink" width="500" zoomAndPan="magnify" viewBox="0 0 375 374.999991" height="500" preserveAspectRatio="xMidYMid meet" version="1.0"><defs><g/><clipPath id="714c74dad2"><path d="M 58 39 L 308 39 L 308 354 L 58 354 Z M 58 39 " clip-rule="nonzero"/></clipPath><clipPath id="f0f1af0fea"><path d="M -21.660156 239.394531 L 187.121094 -16.160156 L 372.980469 135.683594 L 164.199219 391.238281 Z M -21.660156 239.394531 " clip-rule="nonzero"/></clipPath><clipPath id="e2f6968827"><path d="M -21.660156 239.394531 L 187.121094 -16.160156 L 372.980469 135.683594 L 164.199219 391.238281 Z M -21.660156 239.394531 " clip-rule="nonzero"/></clipPath><clipPath id="297bd8c4a2"><path d="M 45.375 37.5 L 316.125 37.5 L 316.125 323.25 L 45.375 323.25 Z M 45.375 37.5 " clip-rule="nonzero"/></clipPath><clipPath id="a520dfa196"><path d="M 51 58 L 318 58 L 318 325 L 51 325 Z M 51 58 " clip-rule="nonzero"/></clipPath><clipPath id="283e7667fe"><path d="M 188.445312 1.929688 L 334.148438 154.199219 L 140.148438 339.824219 L -5.550781 187.554688 Z M 188.445312 1.929688 " clip-rule="nonzero"/></clipPath><clipPath id="1220c22af7"><path d="M 188.445312 1.929688 L 374.074219 195.925781 L 180.074219 381.550781 L -5.550781 187.554688 Z M 188.445312 1.929688 " clip-rule="nonzero"/></clipPath><clipPath id="3757b1e931"><path d="M 155.355469 211.566406 L 168.542969 211.566406 L 168.542969 224.757812 L 155.355469 224.757812 Z M 155.355469 211.566406 " clip-rule="nonzero"/></clipPath><clipPath id="20fc1d949b"><path d="M 161.949219 211.566406 C 158.308594 211.566406 155.355469 214.519531 155.355469 218.164062 C 155.355469 221.804688 158.308594 224.757812 161.949219 224.757812 C 165.589844 224.757812 168.542969 221.804688 168.542969 218.164062 C 168.542969 214.519531 165.589844 211.566406 161.949219 211.566406 Z M 161.949219 211.566406 " clip-rule="nonzero"/></clipPath></defs><path fill="#c1ff72" d="M 52.027344 93.476562 C 62.550781 73.480469 86.871094 72.3125 107.277344 74.183594 C 130.078125 76.289062 141.828125 70.207031 161.0625 59.042969 C 176.675781 49.980469 191.117188 50.269531 207.660156 58.75 C 227.65625 69.039062 223.5625 87.457031 239.757812 99.148438 C 254.785156 110.023438 277.46875 105.171875 293.429688 115.226562 C 309.449219 125.339844 313.777344 142.824219 312.898438 160.886719 C 311.671875 185.503906 298.984375 208.539062 303.488281 233.503906 C 307.113281 253.613281 328.101562 274.253906 317.636719 295.476562 C 298.050781 335.175781 236.894531 301.90625 205.441406 307.695312 C 171.414062 314.007812 119.847656 351.71875 87.105469 318.21875 C 72.605469 303.425781 80.441406 279.867188 80.148438 261.800781 C 79.738281 236.660156 71.144531 229.058594 53.605469 212.6875 C 36.707031 196.960938 23.320312 189.128906 29.984375 165.332031 C 33.960938 151.066406 53.371094 147.910156 56.996094 138.496094 C 61.378906 126.746094 46.003906 104.820312 52.027344 93.476562 Z M 52.027344 93.476562 " fill-opacity="1" fill-rule="nonzero"/><g clip-path="url(#714c74dad2)"><g clip-path="url(#f0f1af0fea)"><g clip-path="url(#e2f6968827)"><path fill="#00bf63" d="M 269.515625 244.148438 C 259.847656 255.785156 248.125 267.695312 238.773438 280.042969 C 228.867188 293.175781 223.164062 308.816406 214.941406 322.953125 C 199.992188 347.484375 168.835938 355.617188 141.746094 353.09375 C 122.285156 351.632812 104.1875 342.207031 90.617188 328.257812 C 85.871094 323.851562 83.152344 318.195312 80.210938 312.691406 C 76.269531 305.332031 72.667969 297.777344 70.832031 289.558594 C 65.589844 263.160156 70.804688 236.171875 70.496094 209.535156 C 70.535156 206.988281 69.8125 204.609375 68.8125 202.277344 C 62.679688 189.035156 55.785156 174.871094 59.628906 159.933594 C 64.246094 134.269531 85.988281 113.429688 111.757812 109.324219 C 118.257812 108.367188 124.835938 108.503906 131.300781 107.429688 C 150.480469 104.757812 171.765625 104.035156 187.503906 91.390625 C 202.121094 76.34375 196.972656 58.101562 216.613281 45.21875 C 234.746094 32.039062 258.917969 42.308594 273.882812 55.765625 C 286.960938 68.527344 295.75 85.148438 301.398438 102.386719 C 316.554688 155.742188 305.199219 202.050781 269.515625 244.148438 Z M 269.515625 244.148438 " fill-opacity="1" fill-rule="nonzero"/></g></g></g><path fill="#7ed957" d="M 190.011719 250.808594 C 177.429688 250.703125 163.589844 249.421875 150.714844 249.894531 C 137.039062 250.425781 123.964844 254.984375 110.535156 257.125 C 86.863281 260.40625 65.230469 244.617188 52.597656 225.839844 C 43.300781 212.535156 39.847656 195.921875 41.695312 179.839844 C 42.035156 174.460938 44.246094 169.734375 46.242188 164.945312 C 48.910156 158.53125 51.878906 152.234375 56.207031 146.726562 C 70.453125 129.460938 90.582031 118.617188 107.574219 104.398438 C 109.238281 103.085938 110.390625 101.371094 111.363281 99.496094 C 116.667969 88.578125 122.160156 76.683594 133.804688 71.300781 C 152.769531 60.765625 177.632812 63.804688 193.835938 78.246094 C 197.875 81.925781 201.25 86.238281 205.34375 89.835938 C 217.15625 100.785156 228.820312 114.113281 245.25 117.597656 C 262.632812 119.09375 271.671875 106.175781 290.308594 112.050781 C 308.339844 116.792969 314.445312 137.765625 313.652344 154.488281 C 312.316406 169.628906 306.234375 184.039062 298.105469 196.746094 C 271.707031 234.585938 235.90625 251.640625 190.011719 250.808594 Z M 190.011719 250.808594 " fill-opacity="1" fill-rule="nonzero"/><g clip-path="url(#297bd8c4a2)"><path fill="#ffde59" d="M 240.464844 323.308594 C 239.972656 323.308594 239.480469 323.308594 238.988281 323.308594 C 236.847656 323.308594 234.703125 323.308594 232.558594 323.3125 C 230.535156 323.328125 228.566406 322.894531 226.617188 322.472656 C 221.851562 321.449219 217.148438 320.1875 212.550781 318.554688 C 209.460938 317.457031 206.433594 316.203125 203.429688 314.890625 C 196.628906 311.925781 190.003906 308.566406 183.105469 305.828125 C 178.683594 304.074219 174.136719 302.746094 169.410156 302.054688 C 167.144531 301.726562 164.878906 301.441406 162.589844 301.296875 C 161.242188 301.210938 159.894531 301.046875 158.546875 301.132812 C 156.019531 301.292969 153.492188 301.460938 150.972656 301.757812 C 148.050781 302.101562 145.148438 302.5625 142.25 303.066406 C 139.871094 303.480469 137.523438 304.035156 135.191406 304.636719 C 130.90625 305.738281 126.671875 307.027344 122.511719 308.527344 C 117.613281 310.296875 112.652344 311.835938 107.574219 312.996094 C 104.863281 313.613281 102.121094 313.976562 99.339844 314.222656 C 95.855469 314.53125 92.371094 314.46875 88.894531 314.402344 C 84.265625 314.3125 79.816406 313.300781 75.589844 311.355469 C 73.835938 310.550781 72.140625 309.648438 70.453125 308.714844 C 68.828125 307.8125 67.429688 306.609375 66.019531 305.429688 C 64.636719 304.269531 63.3125 303.042969 62.035156 301.765625 C 59.265625 298.988281 57.007812 295.824219 55.011719 292.472656 C 51.855469 287.160156 49.492188 281.488281 47.6875 275.589844 C 46.804688 272.695312 46.242188 269.71875 45.960938 266.691406 C 45.863281 265.671875 45.773438 264.65625 45.742188 263.632812 C 45.878906 262.078125 45.640625 260.539062 45.515625 258.996094 C 45.375 257.238281 45.933594 255.507812 45.742188 253.746094 C 45.855469 251.289062 46.300781 248.875 46.753906 246.460938 C 47.308594 243.523438 47.902344 240.597656 48.8125 237.742188 C 49.671875 235.039062 50.691406 232.40625 51.835938 229.820312 C 52.929688 227.339844 54.042969 224.867188 55.273438 222.457031 C 57.769531 217.558594 60.414062 212.738281 63.183594 207.984375 C 65.703125 203.660156 68.101562 199.269531 70.617188 194.941406 C 72.828125 191.140625 74.886719 187.261719 76.765625 183.292969 C 79.175781 178.207031 81.296875 173.015625 82.578125 167.511719 C 83.238281 164.679688 83.707031 161.824219 84.015625 158.925781 C 84.246094 156.746094 84.277344 154.574219 84.148438 152.410156 C 84.011719 150.089844 83.898438 147.761719 83.535156 145.445312 C 83.171875 143.105469 83.007812 140.734375 82.714844 138.378906 C 82.457031 136.308594 82.152344 134.246094 81.859375 132.183594 C 81.5 129.671875 81.121094 127.167969 80.757812 124.65625 C 80.449219 122.515625 80.125 120.371094 79.84375 118.222656 C 79.632812 116.601562 79.390625 114.976562 79.3125 113.34375 C 79.140625 109.824219 78.730469 106.3125 78.816406 102.785156 C 78.992188 95.277344 80.160156 87.953125 83.082031 80.972656 C 84.621094 77.289062 86.539062 73.804688 88.644531 70.421875 C 90.574219 67.316406 92.773438 64.417969 95.289062 61.75 C 98.503906 58.332031 102.101562 55.386719 105.878906 52.625 C 111.203125 48.738281 117.125 46.039062 123.226562 43.703125 C 127.929688 41.898438 132.703125 40.261719 137.628906 39.144531 C 139.980469 38.609375 142.351562 38.1875 144.761719 37.957031 C 147.742188 37.667969 150.71875 37.5 153.714844 37.503906 C 156.175781 37.507812 158.617188 37.753906 161.0625 37.9375 C 163.191406 38.097656 165.289062 38.417969 167.390625 38.730469 C 169.871094 39.097656 172.269531 39.785156 174.632812 40.601562 C 177.976562 41.757812 181.167969 43.257812 184.28125 44.925781 C 187.027344 46.402344 189.71875 47.980469 192.460938 49.457031 C 195.027344 50.839844 197.679688 52.046875 200.304688 53.3125 C 204.605469 55.386719 209.109375 56.875 213.667969 58.246094 C 217.207031 59.308594 220.839844 59.902344 224.453125 60.597656 C 226.078125 60.910156 227.773438 61.164062 229.457031 60.742188 C 229.769531 60.660156 230.113281 60.703125 230.441406 60.703125 C 232.574219 60.695312 234.710938 60.703125 236.847656 60.683594 C 239.71875 60.664062 242.570312 60.917969 245.429688 61.117188 C 247.636719 61.269531 249.839844 61.464844 252.03125 61.722656 C 255.074219 62.074219 258.074219 62.738281 261.035156 63.566406 C 264.714844 64.59375 268.332031 65.816406 271.753906 67.507812 C 275.652344 69.429688 279.472656 71.527344 282.90625 74.226562 C 286.921875 77.390625 289.792969 81.421875 291.792969 86.121094 C 293.007812 88.96875 293.964844 91.882812 294.359375 94.941406 C 294.730469 97.828125 294.777344 100.726562 294.515625 103.648438 C 294.0625 108.621094 292.398438 113.230469 290.652344 117.828125 C 288.726562 122.894531 287.191406 128.082031 286.148438 133.394531 C 285.773438 135.3125 285.515625 137.273438 285.542969 139.253906 C 285.582031 141.59375 285.503906 143.941406 285.582031 146.28125 C 285.652344 148.28125 285.945312 150.269531 286.199219 152.257812 C 286.539062 154.9375 287.007812 157.59375 287.527344 160.242188 C 288.195312 163.664062 288.933594 167.070312 290.128906 170.347656 C 291.660156 174.542969 293.300781 178.699219 294.9375 182.859375 C 295.601562 184.535156 296.335938 186.1875 297.109375 187.816406 C 298.554688 190.859375 300.039062 193.878906 301.53125 196.898438 C 303.253906 200.394531 305.039062 203.863281 306.726562 207.378906 C 308.875 211.851562 311.058594 216.316406 312.578125 221.058594 C 313.875 225.117188 314.988281 229.234375 315.574219 233.457031 C 315.949219 236.171875 316.210938 238.914062 316.144531 241.667969 C 316.144531 243.644531 316.144531 245.625 316.144531 247.601562 C 315.996094 255.148438 313.789062 262.089844 310.09375 268.621094 C 307.875 272.535156 305.082031 275.992188 302.078125 279.3125 C 299.296875 282.382812 296.519531 285.460938 293.492188 288.285156 C 291.179688 290.445312 288.90625 292.636719 286.738281 294.929688 C 283.917969 297.90625 281.164062 300.941406 278.261719 303.839844 C 275.5 306.589844 272.546875 309.109375 269.445312 311.472656 C 266.3125 313.863281 263.066406 316.085938 259.570312 317.898438 C 254.8125 320.367188 249.816406 322.128906 244.476562 322.84375 C 243.140625 323.027344 241.808594 323.210938 240.464844 323.308594 Z M 240.464844 323.308594 " fill-opacity="1" fill-rule="nonzero"/></g><g clip-path="url(#a520dfa196)"><g clip-path="url(#283e7667fe)"><g clip-path="url(#1220c22af7)"><path fill="#000000" d="M 245.402344 307.125 C 234.6875 312.671875 223.164062 316.511719 211.402344 318.851562 C 201.777344 320.699219 192.007812 321.675781 182.226562 321.628906 C 180.921875 321.660156 179.625 321.546875 178.324219 321.5 C 177.023438 321.429688 175.722656 321.398438 174.421875 321.300781 L 170.535156 320.945312 L 168.589844 320.765625 L 166.65625 320.5 L 162.789062 319.984375 C 161.503906 319.78125 160.226562 319.527344 158.941406 319.308594 C 156.367188 318.90625 153.839844 318.277344 151.289062 317.734375 C 150.925781 317.65625 150.542969 317.570312 150.140625 317.484375 C 149.746094 317.375 149.335938 317.261719 148.90625 317.144531 C 148.050781 316.910156 147.132812 316.65625 146.152344 316.386719 C 144.183594 315.890625 142.039062 315.125 139.671875 314.34375 C 139.085938 314.140625 138.476562 313.957031 137.867188 313.726562 C 137.265625 313.492188 136.648438 313.25 136.023438 313.003906 C 134.769531 312.511719 133.46875 312 132.128906 311.472656 C 129.519531 310.261719 126.679688 309.113281 123.871094 307.585938 C 112.402344 301.910156 100.074219 292.925781 89.613281 282.085938 C 79.242188 271.15625 70.8125 258.445312 65.644531 246.738281 C 64.246094 243.859375 63.222656 240.972656 62.125 238.3125 C 61.660156 236.949219 61.207031 235.632812 60.769531 234.359375 C 60.550781 233.71875 60.335938 233.09375 60.128906 232.480469 C 59.925781 231.867188 59.769531 231.25 59.59375 230.652344 C 58.917969 228.253906 58.242188 226.078125 57.835938 224.085938 C 57.609375 223.097656 57.398438 222.167969 57.199219 221.304688 C 57.101562 220.871094 57.007812 220.457031 56.917969 220.054688 C 56.847656 219.652344 56.78125 219.265625 56.714844 218.894531 C 54.933594 209.273438 54.019531 199.507812 54.132812 189.722656 C 54.355469 179.304688 55.859375 168.949219 58.25 158.792969 C 61.105469 147.144531 65.453125 135.800781 71.464844 125.34375 C 77.351562 114.808594 84.96875 105.257812 93.644531 96.808594 C 102.46875 88.515625 112.347656 81.324219 123.128906 75.90625 C 133.84375 70.363281 145.367188 66.519531 157.128906 64.183594 C 166.753906 62.335938 176.523438 61.355469 186.304688 61.402344 C 187.605469 61.371094 188.90625 61.484375 190.207031 61.53125 C 191.507812 61.601562 192.808594 61.632812 194.105469 61.730469 L 197.996094 62.089844 L 199.941406 62.265625 L 201.875 62.53125 L 205.742188 63.050781 C 207.027344 63.25 208.304688 63.503906 209.589844 63.726562 C 212.164062 64.125 214.691406 64.753906 217.238281 65.296875 C 217.605469 65.378906 217.988281 65.460938 218.390625 65.550781 C 218.785156 65.65625 219.195312 65.769531 219.625 65.886719 C 220.480469 66.121094 221.398438 66.375 222.378906 66.644531 C 224.347656 67.140625 226.492188 67.910156 228.859375 68.6875 C 229.445312 68.890625 230.054688 69.078125 230.664062 69.304688 C 231.265625 69.542969 231.882812 69.78125 232.507812 70.027344 C 233.761719 70.519531 235.0625 71.03125 236.402344 71.558594 C 239.011719 72.769531 241.851562 73.917969 244.660156 75.445312 C 256.128906 81.121094 268.457031 90.105469 278.917969 100.949219 C 289.289062 111.875 297.71875 124.589844 302.882812 136.296875 C 304.285156 139.171875 305.308594 142.058594 306.40625 144.71875 C 306.871094 146.082031 307.324219 147.402344 307.761719 148.675781 C 307.980469 149.3125 308.191406 149.9375 308.402344 150.550781 C 308.605469 151.167969 308.761719 151.785156 308.9375 152.378906 C 309.613281 154.777344 310.289062 156.953125 310.695312 158.945312 C 310.921875 159.933594 311.132812 160.863281 311.332031 161.726562 C 311.429688 162.160156 311.523438 162.578125 311.613281 162.976562 C 311.683594 163.378906 311.75 163.769531 311.816406 164.136719 C 313.597656 173.757812 314.511719 183.527344 314.398438 193.308594 C 314.175781 203.726562 312.671875 214.085938 310.28125 224.238281 C 307.425781 235.886719 303.078125 247.230469 297.066406 257.6875 C 291.179688 268.222656 283.5625 277.777344 274.886719 286.222656 C 266.0625 294.519531 256.183594 301.707031 245.402344 307.125 Z M 277.03125 288.339844 L 277.039062 288.328125 C 285.894531 279.703125 293.683594 269.949219 299.71875 259.191406 C 305.871094 248.507812 310.320312 236.90625 313.199219 224.996094 L 314.453125 219.394531 C 314.453125 219.394531 314.746094 217.84375 315.1875 215.515625 C 315.691406 213.195312 316.039062 210.050781 316.5 206.925781 C 316.765625 203.777344 317.144531 200.640625 317.183594 198.269531 C 317.289062 195.90625 317.355469 194.328125 317.355469 194.328125 C 317.355469 194.328125 317.367188 193.933594 317.371094 193.242188 C 317.371094 192.554688 317.378906 191.566406 317.382812 190.382812 C 317.457031 188.011719 317.265625 184.863281 317.140625 181.707031 C 317.03125 180.132812 316.863281 178.5625 316.738281 177.085938 C 316.671875 176.351562 316.605469 175.636719 316.542969 174.960938 C 316.449219 174.289062 316.359375 173.65625 316.277344 173.070312 C 315.953125 170.722656 315.734375 169.160156 315.734375 169.160156 C 315.734375 169.160156 315.707031 168.800781 315.605469 168.273438 C 315.511719 167.746094 315.386719 167.039062 315.265625 166.335938 C 315.019531 164.921875 314.769531 163.507812 314.769531 163.507812 C 314.703125 163.132812 314.636719 162.734375 314.566406 162.320312 C 314.476562 161.910156 314.382812 161.484375 314.28125 161.042969 C 314.082031 160.15625 313.867188 159.207031 313.636719 158.195312 C 313.222656 156.15625 312.539062 153.925781 311.851562 151.472656 C 311.671875 150.863281 311.507812 150.230469 311.304688 149.601562 C 311.089844 148.972656 310.871094 148.328125 310.652344 147.679688 C 310.207031 146.375 309.742188 145.023438 309.265625 143.628906 C 308.148438 140.902344 307.101562 137.949219 305.671875 135 C 300.390625 123.015625 291.765625 109.992188 281.148438 98.8125 C 270.449219 87.714844 257.820312 78.523438 246.074219 72.71875 C 243.195312 71.164062 240.289062 69.984375 237.617188 68.75 C 236.246094 68.210938 234.914062 67.6875 233.632812 67.1875 C 232.988281 66.9375 232.359375 66.691406 231.742188 66.449219 C 231.121094 66.214844 230.496094 66.027344 229.894531 65.820312 C 227.472656 65.023438 225.277344 64.242188 223.257812 63.738281 C 222.257812 63.464844 221.316406 63.207031 220.4375 62.96875 C 220.003906 62.851562 219.578125 62.738281 219.175781 62.628906 C 218.765625 62.539062 218.371094 62.453125 217.996094 62.371094 C 217.996094 62.371094 216.597656 62.0625 215.199219 61.753906 C 214.5 61.601562 213.800781 61.445312 213.273438 61.328125 C 212.753906 61.203125 212.394531 61.160156 212.394531 61.160156 C 212.394531 61.160156 210.84375 60.875 208.515625 60.445312 C 207.933594 60.335938 207.300781 60.21875 206.636719 60.097656 C 205.960938 60.003906 205.253906 59.910156 204.519531 59.808594 C 203.050781 59.617188 201.492188 59.382812 199.921875 59.203125 C 196.777344 58.941406 193.636719 58.605469 191.265625 58.578125 C 190.082031 58.53125 189.097656 58.492188 188.40625 58.464844 C 187.71875 58.4375 187.324219 58.429688 187.324219 58.429688 C 187.324219 58.429688 185.746094 58.429688 183.378906 58.429688 C 181.007812 58.363281 177.855469 58.605469 174.699219 58.730469 C 171.558594 59.054688 168.402344 59.261719 166.0625 59.664062 C 163.714844 60 162.152344 60.226562 162.152344 60.226562 L 156.5 61.230469 C 144.476562 63.585938 132.691406 67.515625 121.746094 73.191406 C 110.734375 78.746094 100.644531 86.097656 91.636719 94.566406 L 91.625 94.570312 L 91.492188 94.703125 C 82.636719 103.332031 74.84375 113.085938 68.8125 123.84375 C 62.660156 134.527344 58.210938 146.125 55.332031 158.035156 L 54.078125 163.636719 C 54.078125 163.636719 53.785156 165.191406 53.34375 167.519531 C 52.839844 169.839844 52.492188 172.980469 52.03125 176.105469 C 51.765625 179.253906 51.386719 182.390625 51.347656 184.761719 C 51.246094 187.125 51.175781 188.703125 51.175781 188.703125 C 51.175781 188.703125 51.164062 189.097656 51.160156 189.789062 C 51.15625 190.480469 51.152344 191.464844 51.148438 192.648438 C 51.074219 195.019531 51.265625 198.171875 51.390625 201.324219 C 51.5 202.898438 51.667969 204.46875 51.792969 205.945312 C 51.859375 206.683594 51.925781 207.394531 51.988281 208.070312 C 52.082031 208.742188 52.171875 209.375 52.253906 209.964844 C 52.578125 212.308594 52.796875 213.871094 52.796875 213.871094 C 52.796875 213.871094 52.824219 214.230469 52.925781 214.757812 C 53.019531 215.289062 53.144531 215.992188 53.265625 216.699219 C 53.511719 218.109375 53.761719 219.523438 53.761719 219.523438 C 53.824219 219.902344 53.894531 220.296875 53.964844 220.710938 C 54.054688 221.121094 54.148438 221.546875 54.25 221.988281 C 54.449219 222.875 54.664062 223.824219 54.894531 224.839844 C 55.308594 226.875 55.992188 229.105469 56.679688 231.558594 C 56.859375 232.171875 57.023438 232.800781 57.226562 233.433594 C 57.441406 234.0625 57.660156 234.703125 57.878906 235.355469 C 58.324219 236.660156 58.789062 238.011719 59.265625 239.40625 C 60.382812 242.128906 61.429688 245.082031 62.859375 248.03125 C 68.140625 260.015625 76.769531 273.039062 87.378906 284.21875 C 98.082031 295.316406 110.710938 304.507812 122.453125 310.3125 C 125.335938 311.871094 128.242188 313.046875 130.914062 314.285156 C 132.285156 314.824219 133.613281 315.34375 134.898438 315.847656 C 135.542969 316.097656 136.171875 316.34375 136.789062 316.582031 C 137.410156 316.816406 138.035156 317.007812 138.636719 317.210938 C 141.058594 318.007812 143.253906 318.789062 145.273438 319.292969 C 146.273438 319.566406 147.214844 319.824219 148.089844 320.0625 C 148.527344 320.179688 148.953125 320.296875 149.355469 320.402344 C 149.765625 320.492188 150.160156 320.578125 150.535156 320.660156 C 150.535156 320.660156 151.933594 320.96875 153.332031 321.277344 C 154.03125 321.433594 154.730469 321.585938 155.257812 321.703125 C 155.777344 321.828125 156.136719 321.871094 156.136719 321.871094 C 156.136719 321.871094 157.6875 322.160156 160.015625 322.589844 C 160.597656 322.695312 161.230469 322.8125 161.894531 322.933594 C 162.570312 323.027344 163.277344 323.125 164.011719 323.222656 C 165.480469 323.414062 167.039062 323.648438 168.609375 323.828125 C 171.753906 324.09375 174.894531 324.425781 177.265625 324.457031 C 178.449219 324.503906 179.433594 324.539062 180.121094 324.566406 C 180.8125 324.597656 181.207031 324.601562 181.207031 324.601562 C 181.207031 324.601562 182.785156 324.601562 185.152344 324.601562 C 187.523438 324.667969 190.675781 324.429688 193.832031 324.300781 C 196.972656 323.980469 200.128906 323.769531 202.46875 323.367188 C 204.816406 323.03125 206.378906 322.808594 206.378906 322.808594 L 212.03125 321.800781 C 224.054688 319.449219 235.839844 315.515625 246.785156 309.839844 C 257.796875 304.285156 267.886719 296.933594 276.894531 288.464844 L 276.902344 288.460938 L 276.96875 288.402344 L 277.03125 288.339844 " fill-opacity="1" fill-rule="nonzero"/></g></g></g><g fill="#000000" fill-opacity="1"><g transform="translate(173.145409, 324.518272)"><g><path d="M 10.6875 -11.46875 C 10.59375 -11.570312 10.40625 -11.707031 10.125 -11.875 C 9.851562 -12.039062 9.523438 -12.207031 9.140625 -12.375 C 8.765625 -12.539062 8.347656 -12.675781 7.890625 -12.78125 C 7.441406 -12.894531 6.988281 -12.953125 6.53125 -12.953125 C 5.707031 -12.941406 5.09375 -12.78125 4.6875 -12.46875 C 4.28125 -12.164062 4.082031 -11.738281 4.09375 -11.1875 C 4.09375 -10.863281 4.164062 -10.597656 4.3125 -10.390625 C 4.46875 -10.191406 4.691406 -10.015625 4.984375 -9.859375 C 5.285156 -9.703125 5.65625 -9.5625 6.09375 -9.4375 C 6.539062 -9.3125 7.050781 -9.175781 7.625 -9.03125 C 8.375 -8.832031 9.054688 -8.617188 9.671875 -8.390625 C 10.296875 -8.171875 10.820312 -7.890625 11.25 -7.546875 C 11.675781 -7.203125 12.007812 -6.785156 12.25 -6.296875 C 12.488281 -5.816406 12.613281 -5.222656 12.625 -4.515625 C 12.625 -3.691406 12.46875 -2.984375 12.15625 -2.390625 C 11.851562 -1.804688 11.441406 -1.332031 10.921875 -0.96875 C 10.398438 -0.601562 9.796875 -0.332031 9.109375 -0.15625 C 8.421875 0.0078125 7.695312 0.0976562 6.9375 0.109375 C 5.78125 0.117188 4.640625 -0.0390625 3.515625 -0.375 C 2.390625 -0.71875 1.375 -1.203125 0.46875 -1.828125 L 1.765625 -4.421875 C 1.898438 -4.285156 2.132812 -4.113281 2.46875 -3.90625 C 2.8125 -3.707031 3.210938 -3.503906 3.671875 -3.296875 C 4.140625 -3.085938 4.65625 -2.910156 5.21875 -2.765625 C 5.789062 -2.628906 6.375 -2.566406 6.96875 -2.578125 C 8.625 -2.585938 9.445312 -3.125 9.4375 -4.1875 C 9.425781 -4.507812 9.320312 -4.785156 9.125 -5.015625 C 8.9375 -5.253906 8.671875 -5.457031 8.328125 -5.625 C 7.984375 -5.789062 7.5625 -5.945312 7.0625 -6.09375 C 6.570312 -6.238281 6.019531 -6.394531 5.40625 -6.5625 C 4.664062 -6.75 4.023438 -6.960938 3.484375 -7.203125 C 2.941406 -7.441406 2.488281 -7.71875 2.125 -8.03125 C 1.757812 -8.351562 1.484375 -8.726562 1.296875 -9.15625 C 1.117188 -9.582031 1.023438 -10.09375 1.015625 -10.6875 C 1.003906 -11.46875 1.140625 -12.160156 1.421875 -12.765625 C 1.703125 -13.378906 2.097656 -13.890625 2.609375 -14.296875 C 3.128906 -14.710938 3.726562 -15.023438 4.40625 -15.234375 C 5.082031 -15.453125 5.8125 -15.566406 6.59375 -15.578125 C 7.675781 -15.585938 8.675781 -15.425781 9.59375 -15.09375 C 10.507812 -14.757812 11.304688 -14.363281 11.984375 -13.90625 Z M 10.6875 -11.46875 "/></g></g></g><g fill="#000000" fill-opacity="1"><g transform="translate(196.273478, 323.574029)"><g><path d="M 11.46875 -17.828125 L 14.3125 -2.6875 L 11.390625 -2.140625 L 10.171875 -8.609375 L 3.296875 -7.3125 L 4.515625 -0.84375 L 1.578125 -0.296875 L -1.265625 -15.4375 L 1.671875 -15.984375 L 2.8125 -9.875 L 9.6875 -11.171875 L 8.546875 -17.28125 Z M 11.46875 -17.828125 "/></g></g></g><g fill="#000000" fill-opacity="1"><g transform="translate(221.653908, 317.805192)"><g><path d="M 0.03125 -16.53125 L 2.515625 -17.484375 L 13.53125 -5.21875 L 10.65625 -4.109375 L 7.921875 -7.1875 L 2.890625 -5.25 L 2.96875 -1.140625 L 0.109375 -0.046875 Z M 6.671875 -8.9375 L 2.515625 -13.828125 L 2.609375 -7.375 Z M 6.671875 -8.9375 "/></g></g></g><g fill="#000000" fill-opacity="1"><g transform="translate(244.161477, 308.235314)"><g><path d="M 5.578125 -6.421875 C 6.191406 -6.796875 6.628906 -7.226562 6.890625 -7.71875 C 7.148438 -8.21875 7.285156 -8.742188 7.296875 -9.296875 C 7.304688 -9.847656 7.203125 -10.410156 6.984375 -10.984375 C 6.773438 -11.554688 6.503906 -12.113281 6.171875 -12.65625 L 2.0625 -19.34375 L 4.59375 -20.90625 L 8.703125 -14.21875 C 9.253906 -13.3125 9.664062 -12.398438 9.9375 -11.484375 C 10.207031 -10.566406 10.296875 -9.664062 10.203125 -8.78125 C 10.109375 -7.90625 9.800781 -7.070312 9.28125 -6.28125 C 8.769531 -5.488281 8.007812 -4.785156 7 -4.171875 C 5.945312 -3.523438 4.941406 -3.160156 3.984375 -3.078125 C 3.035156 -2.992188 2.144531 -3.109375 1.3125 -3.421875 C 0.488281 -3.742188 -0.265625 -4.238281 -0.953125 -4.90625 C -1.640625 -5.570312 -2.242188 -6.328125 -2.765625 -7.171875 L -6.875 -13.859375 L -4.328125 -15.421875 L -0.21875 -8.734375 C 0.125 -8.179688 0.503906 -7.679688 0.921875 -7.234375 C 1.335938 -6.785156 1.789062 -6.441406 2.28125 -6.203125 C 2.78125 -5.960938 3.304688 -5.847656 3.859375 -5.859375 C 4.421875 -5.867188 4.992188 -6.054688 5.578125 -6.421875 Z M 5.578125 -6.421875 "/></g></g></g><g fill="#000000" fill-opacity="1"><g transform="translate(265.900557, 293.728624)"><g><path d="M 1.203125 -1.078125 L -9.109375 -12.53125 L -4.046875 -17.09375 C -3.523438 -17.5625 -2.9375 -17.882812 -2.28125 -18.0625 C -1.632812 -18.238281 -0.988281 -18.289062 -0.34375 -18.21875 C 0.300781 -18.15625 0.921875 -17.976562 1.515625 -17.6875 C 2.109375 -17.40625 2.613281 -17.03125 3.03125 -16.5625 C 3.6875 -15.820312 4.101562 -14.976562 4.28125 -14.03125 C 4.457031 -13.09375 4.351562 -12.207031 3.96875 -11.375 L 10.453125 -9.40625 L 7.953125 -7.15625 L 2.15625 -8.890625 L -0.03125 -6.921875 L 3.421875 -3.078125 Z M -1.796875 -8.875 L 1 -11.390625 C 1.195312 -11.566406 1.335938 -11.78125 1.421875 -12.03125 C 1.515625 -12.289062 1.550781 -12.5625 1.53125 -12.84375 C 1.519531 -13.125 1.453125 -13.414062 1.328125 -13.71875 C 1.203125 -14.019531 1.023438 -14.296875 0.796875 -14.546875 C 0.546875 -14.816406 0.28125 -15.023438 0 -15.171875 C -0.289062 -15.316406 -0.585938 -15.40625 -0.890625 -15.4375 C -1.191406 -15.476562 -1.472656 -15.457031 -1.734375 -15.375 C -2.003906 -15.300781 -2.238281 -15.175781 -2.4375 -15 L -5.125 -12.578125 Z M -1.796875 -8.875 "/></g></g></g><g fill="#000000" fill-opacity="1"><g transform="translate(283.333488, 276.877014)"><g><path d="M -10.078125 -12.125 L -1.90625 -10.546875 L -5.375 -18.15625 L -3.375 -20.703125 L 1.078125 -10.125 L 5.3125 -6.8125 L 3.5 -4.46875 L -0.765625 -7.8125 L -12.078125 -9.5625 Z M -10.078125 -12.125 "/></g></g></g><g fill="#000000" fill-opacity="1"><g transform="translate(297.519914, 257.341954)"><g><path d="M -10.796875 -12.5 L -9.5625 -14.84375 L 6.796875 -12.8125 L 5.359375 -10.09375 L 1.296875 -10.609375 L -1.234375 -5.859375 L 1.5 -2.8125 L 0.046875 -0.09375 Z M -0.84375 -11.125 L -7.171875 -12.078125 L -2.875 -7.296875 Z M -0.84375 -11.125 "/></g></g></g><g fill="#000000" fill-opacity="1"><g transform="translate(307.954008, 235.555059)"><g/></g></g><g fill="#000000" fill-opacity="1"><g transform="translate(312.821429, 221.43014)"><g><path d="M 2.6875 -13.921875 L -7.328125 -15.859375 L -0.625 -10.515625 L -0.9375 -8.921875 L -9.140625 -6.453125 L 0.875 -4.515625 L 0.3125 -1.578125 L -14.8125 -4.5 L -14.21875 -7.640625 L -4.734375 -10.46875 L -12.46875 -16.65625 L -11.875 -19.78125 L 3.25 -16.859375 Z M 2.6875 -13.921875 "/></g></g></g><g fill="#000000" fill-opacity="1"><g transform="translate(316.943468, 193.303734)"><g><path d="M 0.046875 -1.265625 L -3.078125 -1.375 L -3 -3.75 L 0.125 -3.640625 Z M 0.046875 -1.265625 "/></g></g></g><g fill="#000000" fill-opacity="1"><g transform="translate(87.568437, 223.082618)"><g><path d="M 63.628906 -65.769531 C 65.425781 -82.875 54.734375 -92.878906 39.683594 -92.878906 C 30.875 -92.878906 20.441406 -89.542969 14.882812 -82.445312 C 10.175781 -76.542969 9.152344 -66.964844 13.257812 -60.722656 C 16.933594 -54.90625 23.777344 -51.828125 29.847656 -48.921875 C 36.859375 -45.585938 44.128906 -42.421875 49.859375 -37.03125 C 56.359375 -30.875 60.464844 -21.382812 56.359375 -12.828125 C 52.855469 -5.644531 45.585938 -2.652344 38.402344 -2.652344 C 36.433594 -2.652344 34.550781 -2.824219 32.671875 -3.25 C 22.40625 -5.386719 15.394531 -12.828125 15.90625 -23.175781 C 15.992188 -25.488281 16.335938 -27.882812 16.933594 -30.191406 C 17.191406 -31.132812 16.164062 -31.472656 14.882812 -31.472656 C 12.828125 -31.472656 9.835938 -30.53125 9.492188 -29.078125 C 5.472656 -12.058594 13.941406 -1.539062 30.105469 0.769531 C 32.242188 1.027344 34.464844 1.199219 36.605469 1.199219 C 40.195312 1.199219 43.789062 0.769531 47.125 -0.34375 C 57.300781 -3.675781 66.539062 -12.144531 65.511719 -23.605469 C 64.742188 -32.070312 58.585938 -39.257812 51.828125 -43.789062 C 45.328125 -48.152344 37.972656 -51.058594 31.046875 -54.652344 C 25.570312 -57.558594 19.757812 -61.40625 18.472656 -67.90625 C 16.078125 -80.308594 25.316406 -89.03125 37.03125 -89.03125 C 47.039062 -89.03125 54.90625 -81.503906 56.191406 -72.183594 C 56.445312 -69.617188 56.445312 -67.136719 56.191406 -64.742188 C 56.019531 -63.714844 57.046875 -63.289062 58.414062 -63.289062 C 60.550781 -63.289062 63.460938 -64.398438 63.628906 -65.769531 Z M 63.628906 -65.769531 "/></g></g></g><g fill="#000000" fill-opacity="1"><g transform="translate(150.012897, 223.082618)"><g><path d="M 109.472656 -0.171875 C 109.214844 -1.113281 108.1875 -1.367188 107.25 -1.367188 C 106.5625 -1.367188 105.964844 -1.28125 105.453125 -1.199219 C 105.28125 -1.199219 105.195312 -1.199219 105.023438 -1.199219 C 99.636719 -1.199219 99.722656 -12.144531 99.378906 -17.105469 C 98.695312 -29.421875 99.980469 -41.90625 100.664062 -54.222656 C 101.089844 -63.886719 104.597656 -91 91.511719 -94.332031 C 90.3125 -94.675781 89.03125 -94.761719 87.835938 -94.761719 C 82.703125 -94.761719 77.316406 -92.453125 73.980469 -89.117188 C 66.453125 -81.761719 63.800781 -64.484375 62.605469 -51.144531 C 61.320312 -64.828125 58.242188 -80.308594 51.144531 -87.148438 C 46.867188 -91.339844 41.566406 -93.222656 35.835938 -93.222656 C 24.460938 -93.222656 14.796875 -86.464844 10.691406 -75.773438 C 6.84375 -65.769531 8.980469 -54.480469 14.710938 -45.753906 C 15.050781 -45.15625 15.90625 -44.816406 16.847656 -44.816406 C 19.414062 -44.816406 22.835938 -46.695312 21.550781 -48.75 C 16.933594 -55.761719 15.050781 -64.65625 17.019531 -72.953125 C 18.988281 -80.90625 24.632812 -88.773438 33.441406 -88.773438 C 37.546875 -88.773438 41.394531 -87.0625 44.300781 -84.070312 C 56.617188 -72.269531 57.984375 -45.15625 57.730469 -30.019531 C 57.730469 -28.652344 58.839844 -28.050781 60.210938 -28.050781 C 62.261719 -28.050781 64.914062 -29.335938 65.171875 -30.875 C 67.136719 -41.652344 68.675781 -52.683594 70.816406 -63.546875 C 72.269531 -70.816406 73.722656 -78.855469 78 -85.183594 C 80.136719 -88.6875 82.875 -90.058594 85.953125 -90.058594 C 86.378906 -90.058594 86.894531 -90.058594 87.40625 -89.972656 C 97.15625 -88.347656 93.308594 -58.328125 93.050781 -51.742188 C 92.367188 -39.511719 91.253906 -27.195312 91.9375 -14.96875 C 92.28125 -8.039062 93.308594 2.90625 102.375 3.335938 C 103.65625 3.335938 105.023438 3.078125 106.308594 2.824219 C 107.503906 2.652344 109.8125 1.453125 109.472656 -0.171875 Z M 36.007812 -79.109375 C 35.921875 -79.539062 35.320312 -79.710938 34.464844 -79.710938 C 32.15625 -79.710938 28.394531 -78.511719 28.566406 -77.144531 C 29.335938 -69.359375 29.421875 -61.40625 29.421875 -53.625 C 29.25 -33.609375 27.453125 -10.433594 20.097656 8.382812 C 19.839844 9.066406 20.78125 9.238281 21.722656 9.238281 C 22.320312 9.238281 23.007812 9.152344 23.175781 9.152344 C 24.289062 8.980469 27.027344 8.382812 27.453125 7.097656 C 32.5 -5.730469 34.722656 -19.671875 35.921875 -33.269531 C 36.945312 -45.15625 37.203125 -57.128906 36.691406 -68.933594 C 36.519531 -72.355469 36.433594 -75.773438 36.007812 -79.109375 Z M 36.007812 -79.109375 "/></g></g></g><g clip-path="url(#3757b1e931)"><g clip-path="url(#20fc1d949b)"><path fill="#000000" d="M 155.355469 211.566406 L 168.542969 211.566406 L 168.542969 224.757812 L 155.355469 224.757812 Z M 155.355469 211.566406 " fill-opacity="1" fill-rule="nonzero"/></g></g></svg>