<svg xmlns="http://www.w3.org/2000/svg" xmlns:xlink="http://www.w3.org/1999/xlink" width="500" zoomAndPan="magnify" viewBox="0 0 375 374.999991" height="500" preserveAspectRatio="xMidYMid meet" version="1.0"><defs><g/><clipPath id="c031a78d17"><path d="M 51 6 L 342 6 L 342 372 L 51 372 Z M 51 6 " clip-rule="nonzero"/></clipPath><clipPath id="c44ba728f5"><path d="M -41.714844 238.921875 L 200.761719 -57.871094 L 416.820312 118.644531 L 174.347656 415.4375 Z M -41.714844 238.921875 " clip-rule="nonzero"/></clipPath><clipPath id="68adfb9651"><path d="M -41.714844 238.921875 L 200.761719 -57.871094 L 416.820312 118.644531 L 174.347656 415.4375 Z M -41.714844 238.921875 " clip-rule="nonzero"/></clipPath><clipPath id="a1b5d19232"><path d="M 36.136719 4.457031 L 350.386719 4.457031 L 350.386719 336.707031 L 36.136719 336.707031 Z M 36.136719 4.457031 " clip-rule="nonzero"/></clipPath><clipPath id="553084589b"><path d="M 42 28 L 353 28 L 353 338 L 42 338 Z M 42 28 " clip-rule="nonzero"/></clipPath><clipPath id="75d89ea85d"><path d="M 202.285156 -36.851562 L 371.835938 140.347656 L 146.949219 355.53125 L -22.601562 178.328125 Z M 202.285156 -36.851562 " clip-rule="nonzero"/></clipPath><clipPath id="8a3d54a536"><path d="M 202.285156 -36.851562 L 417.464844 188.035156 L 192.578125 403.214844 L -22.601562 178.328125 Z M 202.285156 -36.851562 " clip-rule="nonzero"/></clipPath></defs><path fill="#c1ff72" d="M 43.859375 69.464844 C 56.082031 46.246094 84.328125 44.886719 108.023438 47.058594 C 134.503906 49.503906 148.148438 42.441406 170.488281 29.476562 C 188.613281 18.949219 205.386719 19.289062 224.601562 29.136719 C 247.820312 41.085938 243.066406 62.472656 261.875 76.050781 C 279.324219 88.679688 305.667969 83.042969 324.203125 94.722656 C 342.808594 106.46875 347.832031 126.769531 346.8125 147.75 C 345.386719 176.332031 330.652344 203.085938 335.882812 232.074219 C 340.089844 255.433594 364.464844 279.398438 352.3125 304.046875 C 329.566406 350.148438 258.546875 311.515625 222.019531 318.234375 C 182.503906 325.570312 122.621094 369.363281 84.597656 330.457031 C 67.761719 313.28125 76.859375 285.917969 76.519531 264.9375 C 76.042969 235.742188 66.0625 226.914062 45.695312 207.90625 C 26.070312 189.640625 10.523438 180.542969 18.265625 152.910156 C 22.882812 136.34375 45.421875 132.675781 49.632812 121.746094 C 54.722656 108.097656 36.867188 82.636719 43.859375 69.464844 Z M 43.859375 69.464844 " fill-opacity="1" fill-rule="nonzero"/><g clip-path="url(#c031a78d17)"><g clip-path="url(#c44ba728f5)"><g clip-path="url(#68adfb9651)"><path fill="#00bf63" d="M 296.429688 244.441406 C 285.203125 257.953125 271.589844 271.785156 260.730469 286.125 C 249.226562 301.378906 242.605469 319.542969 233.054688 335.953125 C 215.695312 364.445312 179.511719 373.886719 148.050781 370.960938 C 125.453125 369.261719 104.4375 358.316406 88.679688 342.117188 C 83.164062 336.996094 80.011719 330.429688 76.59375 324.039062 C 72.015625 315.492188 67.832031 306.722656 65.699219 297.171875 C 59.613281 266.519531 65.671875 235.175781 65.308594 204.246094 C 65.355469 201.285156 64.519531 198.523438 63.355469 195.816406 C 56.234375 180.4375 48.226562 163.988281 52.691406 146.644531 C 58.054688 116.835938 83.300781 92.636719 113.226562 87.871094 C 120.773438 86.757812 128.414062 86.917969 135.925781 85.667969 C 158.195312 82.570312 182.914062 81.726562 201.191406 67.042969 C 218.167969 49.570312 212.1875 28.386719 234.996094 13.421875 C 256.054688 -1.882812 284.125 10.042969 301.503906 25.667969 C 316.691406 40.492188 326.898438 59.792969 333.457031 79.8125 C 351.058594 141.777344 337.871094 195.554688 296.429688 244.441406 Z M 296.429688 244.441406 " fill-opacity="1" fill-rule="nonzero"/></g></g></g><path fill="#7ed957" d="M 204.105469 252.175781 C 189.496094 252.054688 173.421875 250.5625 158.46875 251.113281 C 142.589844 251.730469 127.40625 257.023438 111.808594 259.511719 C 84.320312 263.324219 59.199219 244.984375 44.527344 223.179688 C 33.730469 207.730469 29.71875 188.433594 31.863281 169.757812 C 32.257812 163.511719 34.828125 158.023438 37.148438 152.460938 C 40.242188 145.015625 43.691406 137.703125 48.71875 131.304688 C 65.261719 111.253906 88.636719 98.660156 108.371094 82.148438 C 110.300781 80.621094 111.640625 78.628906 112.773438 76.457031 C 118.929688 63.777344 125.3125 49.960938 138.835938 43.710938 C 160.855469 31.480469 189.730469 35.007812 208.546875 51.773438 C 213.238281 56.050781 217.15625 61.054688 221.910156 65.238281 C 235.628906 77.949219 249.175781 93.429688 268.253906 97.476562 C 288.441406 99.214844 298.941406 84.214844 320.582031 91.03125 C 341.523438 96.542969 348.613281 120.898438 347.691406 140.316406 C 346.136719 157.898438 339.074219 174.632812 329.632812 189.390625 C 298.980469 233.335938 257.402344 253.140625 204.105469 252.175781 Z M 204.105469 252.175781 " fill-opacity="1" fill-rule="nonzero"/><g clip-path="url(#a1b5d19232)"><path fill="#ffde59" d="M 262.695312 336.375 C 262.125 336.375 261.554688 336.371094 260.984375 336.371094 C 258.496094 336.375 256.003906 336.375 253.511719 336.378906 C 251.167969 336.398438 248.878906 335.890625 246.613281 335.40625 C 241.082031 334.214844 235.617188 332.746094 230.28125 330.855469 C 226.691406 329.578125 223.175781 328.121094 219.6875 326.597656 C 211.792969 323.15625 204.097656 319.253906 196.085938 316.074219 C 190.949219 314.035156 185.667969 312.492188 180.179688 311.691406 C 177.546875 311.308594 174.917969 310.980469 172.261719 310.808594 C 170.691406 310.710938 169.128906 310.519531 167.5625 310.621094 C 164.628906 310.804688 161.695312 311.003906 158.769531 311.347656 C 155.375 311.746094 152.003906 312.28125 148.640625 312.867188 C 145.878906 313.347656 143.148438 313.992188 140.441406 314.691406 C 135.46875 315.96875 130.546875 317.464844 125.714844 319.207031 C 120.027344 321.261719 114.269531 323.050781 108.371094 324.394531 C 105.21875 325.113281 102.035156 325.535156 98.808594 325.820312 C 94.761719 326.179688 90.714844 326.109375 86.675781 326.027344 C 81.300781 325.925781 76.132812 324.75 71.222656 322.492188 C 69.191406 321.554688 67.21875 320.511719 65.261719 319.425781 C 63.371094 318.375 61.75 316.980469 60.113281 315.609375 C 58.507812 314.261719 56.96875 312.839844 55.488281 311.355469 C 52.269531 308.128906 49.644531 304.453125 47.328125 300.5625 C 43.660156 294.394531 40.917969 287.808594 38.824219 280.957031 C 37.796875 277.59375 37.144531 274.140625 36.816406 270.625 C 36.703125 269.441406 36.601562 268.257812 36.566406 267.070312 C 36.722656 265.265625 36.445312 263.480469 36.300781 261.6875 C 36.136719 259.644531 36.785156 257.636719 36.5625 255.59375 C 36.695312 252.734375 37.210938 249.929688 37.738281 247.128906 C 38.382812 243.71875 39.070312 240.320312 40.128906 237.003906 C 41.125 233.867188 42.3125 230.808594 43.640625 227.800781 C 44.910156 224.925781 46.203125 222.054688 47.632812 219.253906 C 50.53125 213.566406 53.601562 207.96875 56.820312 202.449219 C 59.746094 197.425781 62.53125 192.324219 65.453125 187.300781 C 68.019531 182.886719 70.410156 178.382812 72.59375 173.773438 C 75.390625 167.867188 77.855469 161.835938 79.339844 155.441406 C 80.105469 152.15625 80.652344 148.839844 81.011719 145.476562 C 81.277344 142.945312 81.3125 140.417969 81.164062 137.910156 C 81.007812 135.214844 80.875 132.507812 80.453125 129.820312 C 80.03125 127.101562 79.839844 124.347656 79.5 121.613281 C 79.199219 119.210938 78.847656 116.816406 78.503906 114.417969 C 78.085938 111.503906 77.648438 108.59375 77.226562 105.679688 C 76.867188 103.191406 76.496094 100.699219 76.167969 98.207031 C 75.921875 96.320312 75.640625 94.433594 75.550781 92.539062 C 75.351562 88.453125 74.875 84.375 74.972656 80.28125 C 75.179688 71.558594 76.535156 63.050781 79.925781 54.945312 C 81.714844 50.671875 83.941406 46.625 86.386719 42.691406 C 88.628906 39.085938 91.179688 35.722656 94.101562 32.621094 C 97.835938 28.652344 102.011719 25.230469 106.402344 22.027344 C 112.582031 17.515625 119.460938 14.375 126.542969 11.664062 C 132.007812 9.570312 137.550781 7.667969 143.273438 6.371094 C 146.003906 5.75 148.757812 5.261719 151.554688 4.992188 C 155.015625 4.65625 158.476562 4.460938 161.953125 4.464844 C 164.808594 4.46875 167.644531 4.757812 170.488281 4.96875 C 172.960938 5.15625 175.394531 5.527344 177.835938 5.890625 C 180.714844 6.316406 183.5 7.117188 186.246094 8.0625 C 190.128906 9.40625 193.835938 11.148438 197.449219 13.085938 C 200.640625 14.796875 203.761719 16.628906 206.949219 18.347656 C 209.929688 19.953125 213.011719 21.355469 216.058594 22.828125 C 221.054688 25.234375 226.285156 26.964844 231.578125 28.554688 C 235.6875 29.789062 239.90625 30.476562 244.101562 31.285156 C 245.992188 31.644531 247.957031 31.945312 249.914062 31.453125 C 250.273438 31.359375 250.671875 31.410156 251.054688 31.40625 C 253.535156 31.398438 256.015625 31.40625 258.496094 31.386719 C 261.828125 31.363281 265.140625 31.65625 268.464844 31.886719 C 271.027344 32.066406 273.582031 32.292969 276.128906 32.589844 C 279.664062 33 283.148438 33.773438 286.585938 34.730469 C 290.859375 35.925781 295.058594 37.347656 299.03125 39.308594 C 303.5625 41.542969 307.996094 43.980469 311.984375 47.113281 C 316.648438 50.789062 319.980469 55.464844 322.304688 60.925781 C 323.714844 64.234375 324.828125 67.617188 325.285156 71.171875 C 325.714844 74.523438 325.769531 77.886719 325.464844 81.28125 C 324.941406 87.054688 323.007812 92.40625 320.980469 97.75 C 318.742188 103.632812 316.960938 109.65625 315.75 115.828125 C 315.3125 118.050781 315.011719 120.332031 315.046875 122.628906 C 315.089844 125.347656 315 128.070312 315.09375 130.789062 C 315.171875 133.113281 315.515625 135.421875 315.808594 137.730469 C 316.203125 140.84375 316.746094 143.929688 317.351562 147.003906 C 318.125 150.976562 318.984375 154.933594 320.371094 158.738281 C 322.148438 163.609375 324.058594 168.4375 325.957031 173.269531 C 326.726562 175.214844 327.578125 177.136719 328.476562 179.027344 C 330.15625 182.558594 331.882812 186.066406 333.613281 189.574219 C 335.613281 193.632812 337.6875 197.664062 339.644531 201.742188 C 342.140625 206.9375 344.675781 212.121094 346.441406 217.628906 C 347.949219 222.34375 349.242188 227.121094 349.921875 232.03125 C 350.355469 235.183594 350.664062 238.363281 350.585938 241.5625 C 350.585938 243.859375 350.585938 246.160156 350.582031 248.457031 C 350.414062 257.21875 347.851562 265.28125 343.554688 272.863281 C 340.980469 277.410156 337.738281 281.425781 334.25 285.28125 C 331.019531 288.847656 327.796875 292.421875 324.277344 295.703125 C 321.59375 298.207031 318.953125 300.753906 316.433594 303.414062 C 313.160156 306.871094 309.960938 310.398438 306.589844 313.761719 C 303.382812 316.960938 299.953125 319.886719 296.351562 322.628906 C 292.710938 325.40625 288.945312 327.984375 284.882812 330.089844 C 279.359375 332.957031 273.558594 335.003906 267.355469 335.835938 C 265.804688 336.046875 264.257812 336.257812 262.695312 336.375 Z M 262.695312 336.375 " fill-opacity="1" fill-rule="nonzero"/></g><g clip-path="url(#553084589b)"><g clip-path="url(#75d89ea85d)"><g clip-path="url(#8a3d54a536)"><path fill="#000000" d="M 268.425781 317.570312 C 255.980469 324.011719 242.601562 328.472656 228.941406 331.1875 C 217.765625 333.332031 206.417969 334.46875 195.058594 334.414062 C 193.546875 334.449219 192.039062 334.316406 190.527344 334.261719 C 189.019531 334.183594 187.507812 334.148438 186 334.03125 L 179.226562 333.410156 L 176.980469 333.101562 L 172.488281 332.5 C 170.992188 332.269531 169.511719 331.972656 168.023438 331.714844 C 165.03125 331.25 162.097656 330.523438 159.136719 329.890625 C 158.710938 329.796875 158.265625 329.699219 157.800781 329.597656 C 157.339844 329.472656 156.863281 329.34375 156.367188 329.207031 C 155.375 328.933594 154.304688 328.640625 153.171875 328.328125 C 150.878906 327.75 148.390625 326.859375 145.644531 325.953125 C 144.960938 325.71875 144.253906 325.503906 143.550781 325.234375 C 142.847656 324.960938 142.132812 324.683594 141.40625 324.398438 C 139.949219 323.824219 138.441406 323.230469 136.886719 322.621094 C 133.855469 321.214844 130.558594 319.878906 127.292969 318.105469 C 113.972656 311.511719 99.660156 301.082031 87.507812 288.492188 C 75.46875 275.800781 65.675781 261.035156 59.679688 247.441406 C 58.050781 244.101562 56.863281 240.75 55.589844 237.660156 C 55.046875 236.078125 54.523438 234.546875 54.015625 233.066406 C 53.761719 232.324219 53.511719 231.597656 53.269531 230.886719 C 53.035156 230.171875 52.851562 229.457031 52.648438 228.761719 C 51.863281 225.980469 51.082031 223.449219 50.605469 221.140625 C 50.34375 219.988281 50.097656 218.910156 49.871094 217.90625 C 49.757812 217.40625 49.644531 216.921875 49.542969 216.457031 C 49.460938 215.988281 49.382812 215.539062 49.308594 215.109375 C 47.238281 203.9375 46.175781 192.59375 46.308594 181.234375 C 46.566406 169.136719 48.3125 157.105469 51.089844 145.316406 C 54.40625 131.789062 59.453125 118.617188 66.433594 106.46875 C 73.273438 94.238281 82.117188 83.144531 92.191406 73.332031 C 102.4375 63.699219 113.910156 55.351562 126.433594 49.058594 C 138.875 42.621094 152.257812 38.160156 165.914062 35.445312 C 177.089844 33.296875 188.4375 32.160156 199.796875 32.214844 C 201.308594 32.179688 202.820312 32.3125 204.328125 32.367188 C 205.839844 32.449219 207.351562 32.484375 208.859375 32.597656 L 213.371094 33.011719 L 215.632812 33.21875 L 217.875 33.527344 L 222.371094 34.128906 C 223.863281 34.363281 225.347656 34.65625 226.835938 34.914062 C 229.824219 35.378906 232.761719 36.105469 235.722656 36.738281 C 236.148438 36.832031 236.59375 36.929688 237.058594 37.03125 C 237.515625 37.15625 237.992188 37.289062 238.492188 37.421875 C 239.484375 37.695312 240.550781 37.988281 241.6875 38.304688 C 243.976562 38.878906 246.46875 39.769531 249.214844 40.675781 C 249.898438 40.914062 250.605469 41.128906 251.308594 41.394531 C 252.011719 41.667969 252.726562 41.945312 253.453125 42.234375 C 254.910156 42.804688 256.417969 43.398438 257.972656 44.007812 C 261.003906 45.417969 264.300781 46.75 267.566406 48.523438 C 280.882812 55.117188 295.199219 65.546875 307.347656 78.140625 C 319.390625 90.832031 329.183594 105.59375 335.179688 119.1875 C 336.808594 122.527344 337.996094 125.882812 339.269531 128.972656 C 339.808594 130.550781 340.335938 132.085938 340.84375 133.5625 C 341.097656 134.304688 341.34375 135.03125 341.585938 135.742188 C 341.820312 136.457031 342.003906 137.175781 342.210938 137.867188 C 342.996094 140.652344 343.777344 143.179688 344.25 145.492188 C 344.511719 146.640625 344.757812 147.71875 344.988281 148.722656 C 345.101562 149.222656 345.210938 149.707031 345.316406 150.171875 C 345.398438 150.640625 345.476562 151.089844 345.550781 151.519531 C 347.621094 162.691406 348.679688 174.035156 348.550781 185.394531 C 348.289062 197.492188 346.542969 209.523438 343.765625 221.3125 C 340.453125 234.839844 335.40625 248.015625 328.421875 260.160156 C 321.585938 272.394531 312.738281 283.488281 302.664062 293.296875 C 292.417969 302.929688 280.945312 311.277344 268.425781 317.570312 Z M 305.15625 295.753906 L 305.164062 295.742188 C 315.449219 285.722656 324.496094 274.398438 331.5 261.902344 C 338.648438 249.496094 343.8125 236.027344 347.15625 222.195312 L 348.613281 215.691406 C 348.613281 215.691406 348.957031 213.886719 349.464844 211.183594 C 350.050781 208.488281 350.457031 204.839844 350.992188 201.210938 C 351.300781 197.554688 351.742188 193.910156 351.785156 191.160156 C 351.90625 188.410156 351.984375 186.582031 351.984375 186.582031 C 351.984375 186.582031 352 186.121094 352 185.320312 C 352.003906 184.519531 352.011719 183.375 352.015625 182 C 352.105469 179.246094 351.878906 175.585938 351.734375 171.921875 C 351.605469 170.09375 351.414062 168.273438 351.265625 166.558594 C 351.1875 165.703125 351.113281 164.875 351.039062 164.089844 C 350.933594 163.3125 350.828125 162.574219 350.734375 161.894531 C 350.355469 159.167969 350.101562 157.351562 350.101562 157.351562 C 350.101562 157.351562 350.070312 156.9375 349.953125 156.324219 C 349.84375 155.710938 349.699219 154.890625 349.558594 154.070312 C 349.269531 152.429688 348.980469 150.792969 348.980469 150.792969 C 348.90625 150.351562 348.828125 149.890625 348.746094 149.414062 C 348.640625 148.9375 348.53125 148.441406 348.414062 147.929688 C 348.183594 146.898438 347.933594 145.792969 347.667969 144.617188 C 347.183594 142.25 346.390625 139.664062 345.589844 136.8125 C 345.382812 136.101562 345.195312 135.371094 344.957031 134.636719 C 344.707031 133.90625 344.457031 133.164062 344.199219 132.40625 C 343.679688 130.890625 343.144531 129.324219 342.589844 127.703125 C 341.292969 124.539062 340.074219 121.109375 338.414062 117.683594 C 332.28125 103.765625 322.265625 88.644531 309.941406 75.660156 C 297.511719 62.773438 282.847656 52.101562 269.207031 45.359375 C 265.863281 43.550781 262.488281 42.183594 259.382812 40.746094 C 257.792969 40.121094 256.25 39.515625 254.757812 38.933594 C 254.011719 38.640625 253.277344 38.355469 252.5625 38.078125 C 251.839844 37.804688 251.117188 37.585938 250.414062 37.347656 C 247.605469 36.421875 245.054688 35.515625 242.710938 34.929688 C 241.546875 34.609375 240.453125 34.3125 239.4375 34.035156 C 238.929688 33.898438 238.4375 33.765625 237.96875 33.640625 C 237.492188 33.535156 237.035156 33.4375 236.601562 33.34375 C 236.601562 33.34375 234.976562 32.984375 233.351562 32.625 C 232.539062 32.445312 231.726562 32.265625 231.117188 32.132812 C 230.511719 31.988281 230.097656 31.933594 230.097656 31.933594 C 230.097656 31.933594 228.292969 31.601562 225.589844 31.101562 C 224.914062 30.976562 224.179688 30.84375 223.40625 30.699219 C 222.625 30.59375 221.800781 30.480469 220.949219 30.367188 C 219.246094 30.140625 217.433594 29.871094 215.613281 29.660156 C 211.957031 29.355469 208.3125 28.96875 205.558594 28.933594 C 204.183594 28.878906 203.039062 28.835938 202.238281 28.804688 C 201.4375 28.769531 200.980469 28.765625 200.980469 28.765625 C 200.980469 28.765625 199.148438 28.765625 196.398438 28.761719 C 193.644531 28.6875 189.984375 28.96875 186.320312 29.113281 C 182.671875 29.488281 179.003906 29.730469 176.289062 30.195312 C 173.566406 30.585938 171.746094 30.847656 171.746094 30.847656 L 165.1875 32.015625 C 151.222656 34.75 137.535156 39.316406 124.828125 45.90625 C 112.035156 52.355469 100.320312 60.894531 89.859375 70.726562 L 89.847656 70.734375 L 89.699219 70.875 L 89.691406 70.886719 C 79.40625 80.90625 70.359375 92.234375 63.355469 104.726562 C 56.207031 117.132812 51.042969 130.601562 47.699219 144.433594 L 46.242188 150.9375 C 46.242188 150.9375 45.902344 152.742188 45.390625 155.445312 C 44.804688 158.140625 44.402344 161.789062 43.867188 165.421875 C 43.558594 169.074219 43.117188 172.71875 43.074219 175.472656 C 42.953125 178.21875 42.875 180.050781 42.875 180.050781 C 42.875 180.050781 42.859375 180.507812 42.855469 181.308594 C 42.851562 182.109375 42.847656 183.257812 42.839844 184.632812 C 42.753906 187.382812 42.980469 191.042969 43.125 194.707031 C 43.25 196.535156 43.445312 198.359375 43.589844 200.070312 C 43.667969 200.925781 43.746094 201.753906 43.816406 202.539062 C 43.925781 203.320312 44.027344 204.054688 44.125 204.738281 C 44.5 207.460938 44.753906 209.277344 44.753906 209.277344 C 44.753906 209.277344 44.789062 209.691406 44.90625 210.304688 C 45.015625 210.921875 45.160156 211.738281 45.300781 212.558594 C 45.589844 214.199219 45.875 215.839844 45.875 215.839844 C 45.953125 216.277344 46.03125 216.738281 46.113281 217.21875 C 46.21875 217.695312 46.328125 218.1875 46.441406 218.703125 C 46.675781 219.730469 46.925781 220.835938 47.191406 222.011719 C 47.671875 224.378906 48.464844 226.96875 49.265625 229.816406 C 49.476562 230.527344 49.664062 231.257812 49.902344 231.992188 C 50.148438 232.722656 50.402344 233.464844 50.660156 234.222656 C 51.175781 235.738281 51.714844 237.308594 52.269531 238.925781 C 53.5625 242.09375 54.78125 245.523438 56.441406 248.945312 C 62.574219 262.863281 72.59375 277.984375 84.917969 290.96875 C 97.347656 303.855469 112.011719 314.53125 125.648438 321.269531 C 128.992188 323.082031 132.367188 324.449219 135.472656 325.882812 C 137.066406 326.507812 138.609375 327.113281 140.101562 327.695312 C 140.847656 327.988281 141.578125 328.273438 142.296875 328.554688 C 143.015625 328.824219 143.742188 329.042969 144.441406 329.285156 C 147.253906 330.210938 149.804688 331.117188 152.148438 331.703125 C 153.3125 332.019531 154.402344 332.316406 155.421875 332.59375 C 155.929688 332.730469 156.417969 332.863281 156.886719 332.988281 C 157.367188 333.09375 157.820312 333.191406 158.257812 333.289062 C 158.257812 333.289062 159.882812 333.644531 161.507812 334.007812 C 162.320312 334.183594 163.132812 334.363281 163.742188 334.5 C 164.347656 334.644531 164.761719 334.695312 164.761719 334.695312 C 164.761719 334.695312 166.5625 335.027344 169.269531 335.527344 C 169.945312 335.652344 170.675781 335.789062 171.453125 335.929688 C 172.234375 336.035156 173.054688 336.148438 173.90625 336.265625 C 175.613281 336.488281 177.425781 336.757812 179.246094 336.96875 C 182.898438 337.273438 186.546875 337.660156 189.296875 337.695312 C 190.671875 337.75 191.816406 337.792969 192.617188 337.824219 C 193.417969 337.859375 193.878906 337.863281 193.878906 337.863281 C 193.878906 337.863281 195.710938 337.863281 198.460938 337.867188 C 201.210938 337.945312 204.871094 337.664062 208.535156 337.515625 C 212.1875 337.140625 215.851562 336.898438 218.566406 336.433594 C 221.292969 336.042969 223.109375 335.78125 223.109375 335.78125 L 229.671875 334.613281 C 243.636719 331.878906 257.320312 327.3125 270.03125 320.722656 C 282.820312 314.273438 294.535156 305.734375 305 295.902344 L 305.007812 295.894531 L 305.085938 295.824219 L 305.15625 295.753906 " fill-opacity="1" fill-rule="nonzero"/></g></g></g><g fill="#000000" fill-opacity="1"><g transform="translate(184.514857, 337.776658)"><g><path d="M 12.421875 -13.3125 C 12.296875 -13.4375 12.078125 -13.59375 11.765625 -13.78125 C 11.453125 -13.976562 11.070312 -14.171875 10.625 -14.359375 C 10.175781 -14.554688 9.691406 -14.71875 9.171875 -14.84375 C 8.648438 -14.976562 8.125 -15.039062 7.59375 -15.03125 C 6.632812 -15.03125 5.914062 -14.847656 5.4375 -14.484375 C 4.96875 -14.128906 4.738281 -13.632812 4.75 -13 C 4.75 -12.632812 4.835938 -12.328125 5.015625 -12.078125 C 5.191406 -11.835938 5.453125 -11.625 5.796875 -11.4375 C 6.140625 -11.257812 6.566406 -11.09375 7.078125 -10.9375 C 7.585938 -10.789062 8.179688 -10.640625 8.859375 -10.484375 C 9.722656 -10.265625 10.515625 -10.019531 11.234375 -9.75 C 11.960938 -9.488281 12.570312 -9.160156 13.0625 -8.765625 C 13.5625 -8.367188 13.945312 -7.882812 14.21875 -7.3125 C 14.488281 -6.75 14.628906 -6.054688 14.640625 -5.234375 C 14.648438 -4.273438 14.476562 -3.457031 14.125 -2.78125 C 13.769531 -2.101562 13.285156 -1.550781 12.671875 -1.125 C 12.066406 -0.695312 11.363281 -0.378906 10.5625 -0.171875 C 9.769531 0.0234375 8.9375 0.125 8.0625 0.125 C 6.71875 0.144531 5.382812 -0.0390625 4.0625 -0.4375 C 2.75 -0.832031 1.570312 -1.390625 0.53125 -2.109375 L 2.046875 -5.125 C 2.191406 -4.976562 2.460938 -4.785156 2.859375 -4.546875 C 3.265625 -4.304688 3.734375 -4.066406 4.265625 -3.828125 C 4.804688 -3.585938 5.40625 -3.382812 6.0625 -3.21875 C 6.71875 -3.0625 7.390625 -2.988281 8.078125 -3 C 9.992188 -3.007812 10.945312 -3.628906 10.9375 -4.859375 C 10.9375 -5.242188 10.828125 -5.570312 10.609375 -5.84375 C 10.390625 -6.113281 10.078125 -6.34375 9.671875 -6.53125 C 9.265625 -6.726562 8.773438 -6.910156 8.203125 -7.078125 C 7.628906 -7.242188 6.988281 -7.425781 6.28125 -7.625 C 5.425781 -7.84375 4.679688 -8.085938 4.046875 -8.359375 C 3.410156 -8.640625 2.878906 -8.960938 2.453125 -9.328125 C 2.035156 -9.703125 1.71875 -10.132812 1.5 -10.625 C 1.289062 -11.125 1.179688 -11.722656 1.171875 -12.421875 C 1.160156 -13.328125 1.320312 -14.128906 1.65625 -14.828125 C 1.988281 -15.535156 2.445312 -16.128906 3.03125 -16.609375 C 3.625 -17.085938 4.316406 -17.453125 5.109375 -17.703125 C 5.898438 -17.953125 6.75 -18.078125 7.65625 -18.078125 C 8.914062 -18.085938 10.078125 -17.898438 11.140625 -17.515625 C 12.203125 -17.128906 13.128906 -16.675781 13.921875 -16.15625 Z M 12.421875 -13.3125 "/></g></g></g><g fill="#000000" fill-opacity="1"><g transform="translate(211.373456, 336.680117)"><g><path d="M 13.296875 -20.703125 L 16.609375 -3.125 L 13.21875 -2.484375 L 11.8125 -10 L 3.84375 -8.5 L 5.25 -0.984375 L 1.828125 -0.34375 L -1.484375 -17.921875 L 1.9375 -18.5625 L 3.28125 -11.453125 L 11.25 -12.953125 L 9.90625 -20.0625 Z M 13.296875 -20.703125 "/></g></g></g><g fill="#000000" fill-opacity="1"><g transform="translate(240.847725, 329.980797)"><g><path d="M 0.046875 -19.1875 L 2.921875 -20.296875 L 15.703125 -6.0625 L 12.359375 -4.765625 L 9.203125 -8.34375 L 3.375 -6.09375 L 3.453125 -1.328125 L 0.109375 -0.046875 Z M 7.75 -10.390625 L 2.921875 -16.0625 L 3.046875 -8.5625 Z M 7.75 -10.390625 "/></g></g></g><g fill="#000000" fill-opacity="1"><g transform="translate(266.985736, 318.8673)"><g><path d="M 6.484375 -7.453125 C 7.179688 -7.878906 7.679688 -8.378906 7.984375 -8.953125 C 8.296875 -9.535156 8.457031 -10.144531 8.46875 -10.78125 C 8.488281 -11.425781 8.375 -12.082031 8.125 -12.75 C 7.882812 -13.425781 7.566406 -14.078125 7.171875 -14.703125 L 2.40625 -22.484375 L 5.359375 -24.28125 L 10.125 -16.5 C 10.769531 -15.457031 11.242188 -14.398438 11.546875 -13.328125 C 11.859375 -12.265625 11.957031 -11.222656 11.84375 -10.203125 C 11.726562 -9.179688 11.367188 -8.210938 10.765625 -7.296875 C 10.171875 -6.378906 9.289062 -5.5625 8.125 -4.84375 C 6.90625 -4.09375 5.738281 -3.664062 4.625 -3.5625 C 3.507812 -3.457031 2.472656 -3.59375 1.515625 -3.96875 C 0.554688 -4.34375 -0.316406 -4.910156 -1.109375 -5.671875 C -1.910156 -6.441406 -2.613281 -7.320312 -3.21875 -8.3125 L -7.984375 -16.09375 L -5.015625 -17.921875 L -0.25 -10.140625 C 0.144531 -9.503906 0.582031 -8.921875 1.0625 -8.390625 C 1.550781 -7.867188 2.082031 -7.46875 2.65625 -7.1875 C 3.226562 -6.914062 3.835938 -6.785156 4.484375 -6.796875 C 5.128906 -6.804688 5.796875 -7.023438 6.484375 -7.453125 Z M 6.484375 -7.453125 "/></g></g></g><g fill="#000000" fill-opacity="1"><g transform="translate(292.231245, 302.020698)"><g><path d="M 1.375 -1.25 L -10.59375 -14.546875 L -4.703125 -19.84375 C -4.085938 -20.394531 -3.40625 -20.773438 -2.65625 -20.984375 C -1.90625 -21.191406 -1.15625 -21.253906 -0.40625 -21.171875 C 0.34375 -21.097656 1.0625 -20.890625 1.75 -20.546875 C 2.4375 -20.203125 3.019531 -19.765625 3.5 -19.234375 C 4.28125 -18.359375 4.769531 -17.375 4.96875 -16.28125 C 5.175781 -15.195312 5.054688 -14.164062 4.609375 -13.1875 L 12.140625 -10.921875 L 9.234375 -8.3125 L 2.5 -10.3125 L -0.046875 -8.03125 L 3.96875 -3.578125 Z M -2.078125 -10.296875 L 1.171875 -13.203125 C 1.410156 -13.421875 1.578125 -13.679688 1.671875 -13.984375 C 1.773438 -14.285156 1.816406 -14.597656 1.796875 -14.921875 C 1.773438 -15.253906 1.6875 -15.585938 1.53125 -15.921875 C 1.375 -16.265625 1.160156 -16.585938 0.890625 -16.890625 C 0.609375 -17.191406 0.300781 -17.429688 -0.03125 -17.609375 C -0.363281 -17.785156 -0.695312 -17.894531 -1.03125 -17.9375 C -1.375 -17.976562 -1.703125 -17.953125 -2.015625 -17.859375 C -2.335938 -17.765625 -2.613281 -17.617188 -2.84375 -17.421875 L -5.96875 -14.609375 Z M -2.078125 -10.296875 "/></g></g></g><g fill="#000000" fill-opacity="1"><g transform="translate(312.476099, 282.450955)"><g><path d="M -11.703125 -14.0625 L -2.203125 -12.25 L -6.21875 -21.09375 L -3.921875 -24.046875 L 1.25 -11.75 L 6.171875 -7.90625 L 4.046875 -5.1875 L -0.921875 -9.0625 L -14.03125 -11.09375 Z M -11.703125 -14.0625 "/></g></g></g><g fill="#000000" fill-opacity="1"><g transform="translate(328.950802, 259.7649)"><g><path d="M -12.53125 -14.53125 L -11.09375 -17.25 L 7.890625 -14.859375 L 6.21875 -11.703125 L 1.484375 -12.328125 L -1.453125 -6.8125 L 1.734375 -3.265625 L 0.0625 -0.109375 Z M -0.953125 -12.921875 L -8.328125 -14.03125 L -3.3125 -8.46875 Z M -0.953125 -12.921875 "/></g></g></g><g fill="#000000" fill-opacity="1"><g transform="translate(341.067891, 234.463812)"><g/></g></g><g fill="#000000" fill-opacity="1"><g transform="translate(346.720454, 218.060588)"><g><path d="M 3.125 -16.15625 L -8.5 -18.40625 L -0.71875 -12.203125 L -1.078125 -10.34375 L -10.609375 -7.5 L 1.015625 -5.25 L 0.359375 -1.828125 L -17.203125 -5.21875 L -16.5 -8.875 L -5.515625 -12.15625 L -14.484375 -19.328125 L -13.78125 -22.96875 L 3.78125 -19.578125 Z M 3.125 -16.15625 "/></g></g></g><g fill="#000000" fill-opacity="1"><g transform="translate(351.507333, 185.397405)"><g><path d="M 0.046875 -1.46875 L -3.578125 -1.59375 L -3.46875 -4.359375 L 0.15625 -4.234375 Z M 0.046875 -1.46875 "/></g></g></g><g fill="#000000" fill-opacity="1"><g transform="translate(58.112185, 245.276694)"><g><path d="M 51.433594 1.722656 L 66.539062 2.101562 L 70.363281 1.722656 L 74.1875 0.765625 L 78.011719 0.191406 L 81.835938 -1.339844 L 85.277344 -1.722656 L 88.910156 -3.441406 L 101.914062 -11.28125 L 107.457031 -17.015625 L 109.371094 -19.695312 L 111.472656 -23.902344 L 112.621094 -27.34375 L 113.765625 -30.59375 L 114.914062 -40.152344 L 114.53125 -46.273438 L 111.664062 -57.363281 L 109.5625 -60.421875 L 104.589844 -66.15625 L 101.148438 -69.214844 L 98.089844 -70.746094 L 94.648438 -72.847656 L 79.734375 -77.4375 L 75.910156 -78.011719 L 72.085938 -78.203125 L 68.070312 -78.96875 L 62.523438 -78.96875 L 52.390625 -81.070312 L 45.316406 -84.511719 L 42.449219 -87.191406 L 41.683594 -92.925781 L 42.640625 -98.089844 L 44.933594 -100.574219 L 47.800781 -102.675781 L 50.859375 -104.398438 L 54.300781 -105.164062 L 60.421875 -105.355469 L 66.539062 -104.589844 L 69.980469 -103.632812 L 73.421875 -101.339844 L 76.671875 -98.660156 L 79.542969 -94.835938 L 83.746094 -92.351562 L 92.734375 -93.117188 L 97.898438 -92.734375 L 101.722656 -92.734375 L 105.164062 -92.351562 L 108.796875 -95.027344 L 110.324219 -98.28125 L 109.5625 -101.914062 L 109.179688 -105.546875 L 103.824219 -115.488281 L 99.617188 -121.222656 L 87 -130.019531 L 76.289062 -133.652344 L 68.832031 -135.183594 L 54.109375 -135.566406 L 49.90625 -134.417969 L 46.082031 -134.226562 L 42.640625 -133.652344 L 35.371094 -131.359375 L 28.871094 -127.535156 L 19.695312 -121.222656 L 13.003906 -112.238281 L 9.558594 -101.722656 L 8.988281 -92.351562 L 9.179688 -86.425781 L 10.515625 -78.777344 L 13.574219 -72.085938 L 20.648438 -63.289062 L 33.652344 -56.214844 L 40.535156 -53.917969 L 70.554688 -50.476562 L 77.4375 -47.226562 L 79.925781 -44.933594 L 81.070312 -40.152344 L 79.542969 -35.371094 L 77.054688 -32.503906 L 70.554688 -29.636719 L 64.628906 -29.253906 L 61.1875 -28.679688 L 51.433594 -29.636719 L 48.183594 -31.359375 L 44.933594 -33.460938 L 38.625 -40.34375 L 34.800781 -41.875 L 31.359375 -41.492188 L 27.726562 -42.066406 L 13.003906 -41.300781 L 9.558594 -39.769531 L 8.03125 -35.753906 L 8.605469 -31.929688 L 9.367188 -28.105469 L 10.515625 -24.664062 L 14.148438 -17.589844 L 16.824219 -15.105469 L 19.3125 -12.238281 L 26.003906 -8.03125 L 28.679688 -5.164062 L 32.3125 -3.441406 L 36.136719 -2.292969 L 43.59375 0.382812 Z M 51.433594 1.722656 "/></g></g></g><g fill="#000000" fill-opacity="1"><g transform="translate(168.819471, 245.276694)"><g><path d="M 19.886719 0.574219 L 23.710938 0 L 31.167969 0.382812 L 35.371094 -0.191406 L 41.492188 0.191406 L 46.84375 -2.101562 L 49.140625 -5.546875 L 48.566406 -25.621094 L 49.140625 -31.550781 L 48.949219 -35.5625 L 49.332031 -42.449219 L 48.949219 -46.652344 L 48.949219 -54.109375 L 50.667969 -55.832031 L 52.582031 -55.066406 L 55.640625 -52.582031 L 57.933594 -49.714844 L 65.773438 -41.875 L 68.261719 -38.816406 L 73.421875 -33.84375 L 77.4375 -30.976562 L 81.644531 -30.785156 L 85.46875 -33.652344 L 88.144531 -36.519531 L 90.441406 -38.816406 L 95.792969 -45.125 L 98.472656 -47.035156 L 106.308594 -55.066406 L 108.796875 -56.214844 L 110.324219 -53.347656 L 109.941406 -42.828125 L 110.515625 -35.183594 L 110.132812 -27.726562 L 110.515625 -20.648438 L 110.132812 -17.207031 L 110.515625 -8.605469 L 110.515625 -5.734375 L 112.046875 -1.339844 L 116.0625 -0.191406 L 139.199219 0.574219 L 143.210938 -1.53125 L 145.507812 -7.074219 L 144.933594 -17.015625 L 145.316406 -20.839844 L 144.933594 -78.203125 L 145.316406 -82.410156 L 145.125 -101.339844 L 145.316406 -104.972656 L 144.933594 -113.195312 L 145.125 -116.445312 L 144.933594 -124.285156 L 145.316406 -127.917969 L 143.023438 -131.933594 L 139.007812 -134.035156 L 133.460938 -132.3125 L 129.445312 -129.828125 L 121.414062 -121.414062 L 118.929688 -118.355469 L 116.636719 -116.253906 L 113.957031 -112.8125 L 97.132812 -95.601562 L 94.648438 -92.351562 L 82.984375 -80.496094 L 79.542969 -78.203125 L 75.527344 -79.734375 L 73.230469 -82.984375 L 70.554688 -85.660156 L 67.113281 -90.058594 L 62.90625 -93.882812 L 45.507812 -113.195312 L 42.828125 -115.488281 L 37.859375 -121.414062 L 34.800781 -124.09375 L 29.828125 -129.253906 L 25.429688 -132.503906 L 20.078125 -134.035156 L 15.871094 -132.121094 L 13.765625 -128.109375 L 14.339844 -116.445312 L 13.765625 -108.988281 L 14.148438 -105.546875 L 13.957031 -74.953125 L 14.339844 -71.128906 L 13.765625 -51.816406 L 14.148438 -48.183594 L 13.957031 -5.925781 L 16.0625 -1.910156 Z M 19.886719 0.574219 "/></g></g></g></svg>