<svg xmlns="http://www.w3.org/2000/svg" xmlns:xlink="http://www.w3.org/1999/xlink" width="2304" zoomAndPan="magnify" viewBox="0 0 1728 1295.99994" height="1728" preserveAspectRatio="xMidYMid meet" version="1.0"><defs><clipPath id="e874706c6c"><path d="M 1497 164 L 1672 164 L 1672 422 L 1497 422 Z M 1497 164 " clip-rule="nonzero"/></clipPath><clipPath id="b23e57dc62"><path d="M 1529 129.601562 L 1701.058594 191.9375 L 1605.507812 455.660156 L 1433.453125 393.324219 Z M 1529 129.601562 " clip-rule="nonzero"/></clipPath><clipPath id="96b84f480a"><path d="M 1529 129.601562 L 1701.058594 191.9375 L 1605.507812 455.660156 L 1433.453125 393.324219 Z M 1529 129.601562 " clip-rule="nonzero"/></clipPath><clipPath id="3f3ef62400"><path d="M 1463 131 L 1702 131 L 1702 455 L 1463 455 Z M 1463 131 " clip-rule="nonzero"/></clipPath><clipPath id="a433c4f9cf"><path d="M 1529 129.601562 L 1701.058594 191.9375 L 1605.507812 455.660156 L 1433.453125 393.324219 Z M 1529 129.601562 " clip-rule="nonzero"/></clipPath><clipPath id="9358f11061"><path d="M 1529 129.601562 L 1701.058594 191.9375 L 1605.507812 455.660156 L 1433.453125 393.324219 Z M 1529 129.601562 " clip-rule="nonzero"/></clipPath><clipPath id="8017bd8b7b"><path d="M 1544 225 L 1617 225 L 1617 293 L 1544 293 Z M 1544 225 " clip-rule="nonzero"/></clipPath><clipPath id="33c04ee0c6"><path d="M 1529 129.601562 L 1701.058594 191.9375 L 1605.507812 455.660156 L 1433.453125 393.324219 Z M 1529 129.601562 " clip-rule="nonzero"/></clipPath><clipPath id="5cd2109424"><path d="M 1529 129.601562 L 1701.058594 191.9375 L 1605.507812 455.660156 L 1433.453125 393.324219 Z M 1529 129.601562 " clip-rule="nonzero"/></clipPath></defs><path fill="#f4f4f4" d="M 518.082031 125.195312 C 509.550781 130.230469 502.179688 136.992188 494.074219 142.691406 C 425.710938 190.714844 166.527344 364.238281 197.457031 750.121094 C 241.328125 1297.425781 466.78125 1288.625 803.433594 1288.625 C 1140.078125 1288.625 1390.566406 1336.101562 1460.75 1054.195312 C 1532.078125 767.6875 1402.996094 753.234375 1380.550781 426.402344 C 1358.097656 99.570312 1174.976562 -22.105469 906.03125 9.300781 C 737.445312 28.984375 637.882812 54.527344 518.082031 125.195312 " fill-opacity="1" fill-rule="nonzero"/><path fill="#000000" d="M 921.953125 430.402344 C 921.351562 430.402344 920.75 430.179688 920.296875 429.714844 L 912.664062 422.03125 C 911.757812 421.117188 911.757812 419.644531 912.667969 418.730469 C 913.582031 417.824219 915.066406 417.828125 915.972656 418.742188 L 923.605469 426.433594 C 924.511719 427.34375 924.503906 428.820312 923.59375 429.726562 C 923.144531 430.179688 922.542969 430.402344 921.953125 430.402344 " fill-opacity="1" fill-rule="nonzero"/><path fill="#000000" d="M 948.675781 457.324219 C 948.074219 457.324219 947.476562 457.089844 947.019531 456.628906 L 939.386719 448.9375 C 938.480469 448.023438 938.484375 446.546875 939.398438 445.640625 C 940.304688 444.734375 941.792969 444.742188 942.699219 445.65625 L 950.332031 453.347656 C 951.234375 454.261719 951.230469 455.734375 950.316406 456.640625 C 949.867188 457.089844 949.265625 457.324219 948.675781 457.324219 " fill-opacity="1" fill-rule="nonzero"/><path fill="#000000" d="M 914.3125 457.324219 C 913.722656 457.324219 913.128906 457.089844 912.667969 456.640625 C 911.757812 455.734375 911.757812 454.261719 912.664062 453.347656 L 920.296875 445.65625 C 921.203125 444.742188 922.679688 444.734375 923.59375 445.640625 C 924.503906 446.546875 924.511719 448.023438 923.605469 448.9375 L 915.972656 456.628906 C 915.515625 457.089844 914.910156 457.324219 914.3125 457.324219 " fill-opacity="1" fill-rule="nonzero"/><path fill="#000000" d="M 941.039062 430.402344 C 940.449219 430.402344 939.851562 430.179688 939.398438 429.726562 C 938.484375 428.820312 938.480469 427.34375 939.386719 426.433594 L 947.019531 418.742188 C 947.925781 417.828125 949.402344 417.824219 950.316406 418.730469 C 951.230469 419.644531 951.234375 421.117188 950.332031 422.03125 L 942.699219 429.714844 C 942.238281 430.179688 941.644531 430.402344 941.039062 430.402344 " fill-opacity="1" fill-rule="nonzero"/><path fill="#000000" d="M 997.414062 526.929688 C 991.046875 526.929688 985.875 532.144531 985.875 538.570312 C 985.875 544.988281 991.046875 550.203125 997.414062 550.203125 C 1003.777344 550.203125 1008.957031 544.988281 1008.957031 538.570312 C 1008.957031 532.144531 1003.777344 526.929688 997.414062 526.929688 Z M 997.414062 554.867188 C 988.484375 554.867188 981.207031 547.558594 981.207031 538.570312 C 981.207031 529.582031 988.484375 522.265625 997.414062 522.265625 C 1006.347656 522.265625 1013.617188 529.582031 1013.617188 538.570312 C 1013.617188 547.558594 1006.347656 554.867188 997.414062 554.867188 " fill-opacity="1" fill-rule="nonzero"/><path fill="#000000" d="M 1396.875 262.035156 C 1396.363281 262.035156 1395.84375 261.871094 1395.417969 261.527344 C 1394.417969 260.714844 1394.246094 259.25 1395.054688 258.25 C 1418.816406 228.59375 1433.675781 192.824219 1438.03125 154.785156 C 1438.175781 153.503906 1439.339844 152.582031 1440.613281 152.738281 C 1441.898438 152.882812 1442.816406 154.039062 1442.671875 155.3125 C 1438.203125 194.222656 1423.003906 230.820312 1398.695312 261.160156 C 1398.230469 261.734375 1397.554688 262.035156 1396.875 262.035156 " fill-opacity="1" fill-rule="nonzero"/><path fill="#000000" d="M 1254.570312 1247.171875 C 1253.589844 1247.171875 1252.683594 1246.550781 1252.359375 1245.566406 C 1251.957031 1244.34375 1252.621094 1243.03125 1253.84375 1242.621094 C 1302.8125 1226.441406 1346.113281 1196.617188 1379.074219 1156.386719 C 1379.875 1155.386719 1381.355469 1155.238281 1382.347656 1156.054688 C 1383.34375 1156.871094 1383.492188 1158.339844 1382.679688 1159.335938 C 1349.160156 1200.257812 1305.117188 1230.589844 1255.300781 1247.050781 C 1255.066406 1247.132812 1254.8125 1247.171875 1254.570312 1247.171875 " fill-opacity="1" fill-rule="nonzero"/><path fill="#000000" d="M 1334.015625 1268.261719 C 1333.128906 1268.261719 1332.285156 1267.753906 1331.890625 1266.898438 C 1331.363281 1265.726562 1331.878906 1264.339844 1333.054688 1263.8125 C 1367.527344 1248.117188 1396.792969 1222.925781 1417.695312 1190.949219 C 1418.394531 1189.867188 1419.839844 1189.574219 1420.914062 1190.277344 C 1421.992188 1190.980469 1422.296875 1192.417969 1421.597656 1193.503906 C 1400.210938 1226.214844 1370.253906 1251.996094 1334.976562 1268.050781 C 1334.671875 1268.199219 1334.339844 1268.261719 1334.015625 1268.261719 " fill-opacity="1" fill-rule="nonzero"/><path fill="#000000" d="M 850.171875 114.113281 C 849.898438 114.113281 849.617188 114.070312 849.347656 113.964844 C 837.078125 109.285156 824.183594 105.398438 811.019531 102.417969 C 809.761719 102.128906 808.976562 100.882812 809.261719 99.621094 C 809.550781 98.367188 810.796875 97.578125 812.050781 97.867188 C 825.429688 100.902344 838.535156 104.855469 851.011719 109.609375 C 852.210938 110.0625 852.816406 111.414062 852.351562 112.613281 C 852 113.546875 851.117188 114.113281 850.171875 114.113281 " fill-opacity="1" fill-rule="nonzero"/><path fill="#000000" d="M 653.539062 104.863281 C 652.480469 104.863281 651.523438 104.140625 651.273438 103.0625 C 650.980469 101.808594 651.761719 100.554688 653.015625 100.261719 C 699.785156 89.390625 745.476562 87.128906 788.839844 93.53125 C 790.109375 93.71875 790.996094 94.910156 790.808594 96.183594 C 790.617188 97.453125 789.421875 98.328125 788.15625 98.144531 C 745.378906 91.828125 700.265625 94.070312 654.070312 104.800781 C 653.894531 104.847656 653.714844 104.863281 653.539062 104.863281 " fill-opacity="1" fill-rule="nonzero"/><path fill="#000000" d="M 433.332031 236.828125 C 432.675781 236.828125 432.027344 236.558594 431.566406 236.023438 C 430.722656 235.054688 430.828125 233.574219 431.800781 232.738281 C 444.421875 221.8125 457.644531 211.433594 471.105469 201.886719 C 472.160156 201.140625 473.613281 201.378906 474.359375 202.429688 C 475.105469 203.488281 474.859375 204.945312 473.804688 205.683594 C 460.464844 215.148438 447.359375 225.4375 434.855469 236.261719 C 434.414062 236.644531 433.871094 236.828125 433.332031 236.828125 " fill-opacity="1" fill-rule="nonzero"/><path fill="#000000" d="M 269.371094 593.210938 C 268.160156 593.210938 267.140625 592.28125 267.046875 591.0625 C 264.574219 559.023438 266.867188 525.671875 273.863281 491.925781 C 274.128906 490.667969 275.355469 489.851562 276.625 490.121094 C 277.882812 490.378906 278.695312 491.617188 278.433594 492.875 C 271.523438 526.191406 269.253906 559.101562 271.695312 590.699219 C 271.796875 591.988281 270.835938 593.105469 269.550781 593.203125 C 269.492188 593.210938 269.429688 593.210938 269.371094 593.210938 " fill-opacity="1" fill-rule="nonzero"/><path fill="#000000" d="M 1065.53125 213.835938 C 1065.46875 213.835938 1065.414062 213.835938 1065.359375 213.824219 C 1064.070312 213.734375 1063.105469 212.613281 1063.207031 211.332031 C 1063.292969 210.117188 1063.375 208.90625 1063.425781 207.699219 C 1066.03125 150.167969 1026.601562 99.554688 969.691406 87.355469 L 930.050781 78.855469 C 928.796875 78.578125 927.992188 77.339844 928.261719 76.082031 C 928.527344 74.824219 929.765625 74.023438 931.023438 74.292969 L 970.671875 82.792969 C 998.941406 88.851562 1024.359375 104.75 1042.226562 127.554688 C 1060.210938 150.503906 1069.386719 179.042969 1068.078125 207.90625 C 1068.027344 209.164062 1067.957031 210.417969 1067.855469 211.675781 C 1067.769531 212.90625 1066.742188 213.835938 1065.53125 213.835938 " fill-opacity="1" fill-rule="nonzero"/><path fill="#000000" d="M 1107.851562 193.539062 C 1107.789062 193.539062 1107.738281 193.539062 1107.679688 193.539062 C 1106.390625 193.441406 1105.425781 192.328125 1105.519531 191.046875 L 1106.335938 179.496094 C 1108.804688 144.679688 1101.882812 109.792969 1086.308594 78.609375 C 1085.726562 77.453125 1086.199219 76.054688 1087.359375 75.484375 C 1088.496094 74.90625 1089.902344 75.367188 1090.484375 76.527344 C 1106.425781 108.457031 1113.515625 144.179688 1110.996094 179.824219 L 1110.167969 191.375 C 1110.085938 192.605469 1109.0625 193.539062 1107.851562 193.539062 " fill-opacity="1" fill-rule="nonzero"/><path fill="#000000" d="M 1208.507812 1187.394531 C 1207.570312 1187.394531 1206.6875 1186.828125 1206.324219 1185.890625 C 1205.871094 1184.6875 1206.472656 1183.339844 1207.679688 1182.882812 C 1215.769531 1179.8125 1223.910156 1176.542969 1231.851562 1173.160156 C 1233.039062 1172.664062 1234.410156 1173.210938 1234.910156 1174.398438 C 1235.414062 1175.582031 1234.863281 1176.949219 1233.675781 1177.457031 C 1225.675781 1180.851562 1217.484375 1184.148438 1209.339844 1187.246094 C 1209.066406 1187.347656 1208.785156 1187.394531 1208.507812 1187.394531 " fill-opacity="1" fill-rule="nonzero"/><path fill="#000000" d="M 1071.570312 1226.335938 C 1070.503906 1226.335938 1069.539062 1225.597656 1069.296875 1224.515625 C 1069.019531 1223.25 1069.8125 1222.007812 1071.066406 1221.730469 C 1099.003906 1215.535156 1132.113281 1207.785156 1165.886719 1197.28125 C 1167.109375 1196.902344 1168.421875 1197.589844 1168.800781 1198.820312 C 1169.179688 1200.050781 1168.496094 1201.355469 1167.265625 1201.734375 C 1133.339844 1212.292969 1100.113281 1220.066406 1072.078125 1226.285156 C 1071.910156 1226.324219 1071.742188 1226.335938 1071.570312 1226.335938 " fill-opacity="1" fill-rule="nonzero"/><path fill="#00bf63" d="M 581.019531 184.023438 L 528.046875 177.558594 C 521.515625 176.765625 515.125 179.867188 511.679688 185.503906 L 494.175781 214.171875 L 480.761719 180.625 C 478.472656 174.894531 473.261719 170.871094 467.171875 170.132812 L 418.449219 164.183594 C 409.21875 163.058594 402.640625 154.613281 403.761719 145.316406 L 416.289062 41.167969 C 417.410156 31.875 425.796875 25.253906 435.027344 26.375 L 597.597656 46.214844 C 606.828125 47.339844 613.40625 55.785156 612.285156 65.078125 L 599.757812 169.230469 C 598.636719 178.527344 590.25 185.148438 581.019531 184.023438 " fill-opacity="1" fill-rule="nonzero"/><path fill="#feffff" d="M 530.535156 114.351562 C 525.480469 113.734375 520.71875 115.636719 517.375 119.023438 L 488.351562 103.457031 C 488.433594 103.050781 488.570312 102.675781 488.621094 102.273438 C 488.710938 101.507812 488.683594 100.761719 488.667969 100.019531 L 521.65625 89.371094 C 524.140625 93.015625 528.058594 95.648438 532.75 96.230469 C 541.429688 97.308594 549.367188 91.066406 550.429688 82.324219 C 551.5 73.582031 545.300781 65.582031 536.617188 64.515625 C 527.9375 63.4375 520.003906 69.675781 518.9375 78.421875 C 518.84375 79.179688 518.871094 79.929688 518.886719 80.671875 L 485.902344 91.320312 C 483.414062 87.671875 479.5 85.035156 474.808594 84.460938 C 466.125 83.386719 458.191406 89.621094 457.125 98.363281 C 456.054688 107.109375 462.253906 115.109375 470.9375 116.175781 C 475.996094 116.804688 480.753906 114.902344 484.09375 111.507812 L 513.117188 127.085938 C 513.039062 127.476562 512.902344 127.855469 512.851562 128.265625 C 511.785156 137.011719 517.984375 145.003906 526.664062 146.078125 C 535.347656 147.144531 543.28125 140.910156 544.347656 132.164062 C 545.414062 123.421875 539.21875 115.433594 530.535156 114.351562 " fill-opacity="1" fill-rule="nonzero"/><path fill="#00bf63" d="M 401.789062 284.058594 L 367.570312 299.933594 C 363.351562 301.886719 360.652344 306.136719 360.65625 310.808594 L 360.675781 334.566406 L 340.277344 319.40625 C 336.792969 316.820312 332.183594 316.34375 328.246094 318.171875 L 296.777344 332.765625 C 290.8125 335.535156 283.753906 332.90625 281.007812 326.90625 L 250.238281 259.628906 C 247.492188 253.617188 250.097656 246.511719 256.0625 243.746094 L 361.074219 195.039062 C 367.039062 192.269531 374.097656 194.898438 376.84375 200.898438 L 407.613281 268.175781 C 410.359375 274.175781 407.753906 281.289062 401.789062 284.058594 " fill-opacity="1" fill-rule="nonzero"/><path fill="#feffff" d="M 339.929688 242.777344 C 336.425781 241.273438 332.566406 241.320312 329.054688 242.902344 C 326.429688 244.09375 324.398438 246.019531 323.015625 248.621094 C 322.320312 249.9375 321.808594 251.390625 321.484375 252.964844 C 320.105469 252.160156 318.679688 251.585938 317.238281 251.238281 C 314.390625 250.546875 311.613281 250.796875 308.988281 251.988281 C 305.476562 253.570312 302.878906 256.453125 301.671875 260.085938 C 300.480469 263.683594 300.746094 267.726562 302.425781 271.5 C 304.15625 275.371094 307.167969 278.261719 311.914062 280.613281 C 316.160156 282.710938 321.628906 284.3125 327.964844 286.171875 C 330.128906 286.804688 332.578125 287.53125 335.144531 288.316406 C 335.824219 288.523438 336.550781 288.476562 337.199219 288.183594 C 337.847656 287.890625 338.363281 287.375 338.660156 286.726562 C 339.777344 284.273438 340.871094 281.949219 341.835938 279.898438 C 344.664062 273.894531 347.105469 268.707031 348.363281 264.117188 C 349.773438 258.984375 349.625 254.796875 347.898438 250.917969 C 346.21875 247.15625 343.390625 244.265625 339.929688 242.777344 " fill-opacity="1" fill-rule="nonzero"/><path fill="#feffff" d="M 1073.152344 255.902344 C 1073.152344 255.902344 1078.492188 258.273438 1086.714844 257.398438 C 1093.667969 256.65625 1138.1875 243.203125 1156.574219 184.128906 C 1156.574219 184.128906 1250.210938 199.851562 1297.78125 196.113281 C 1345.347656 192.363281 1370.9375 188.554688 1370.9375 188.554688 C 1370.9375 188.554688 1342.378906 336.46875 1237.574219 328.980469 C 1237.574219 328.980469 1207.015625 327.082031 1206.84375 327.066406 C 1202.53125 326.683594 1146.835938 321.796875 1126.839844 320.347656 C 1106.027344 318.851562 1050.289062 327.09375 1009.414062 313.617188 C 968.539062 300.144531 947.726562 279.933594 878.613281 247.75 C 868.496094 243.046875 838.992188 234.3125 838.992188 234.3125 C 831.316406 249.027344 827.023438 267.785156 825.445312 293.34375 C 815.851562 448.882812 784.542969 485.671875 757.625 483.636719 C 757.625 483.636719 741.554688 481.726562 740.824219 481.644531 C 733.386719 480.824219 689.070312 476.167969 626.164062 473.820312 C 626.121094 473.820312 618.832031 473.675781 618.785156 473.675781 L 618.820312 473.675781 C 622.007812 511.804688 635.09375 557.324219 665.019531 603.277344 C 732.507812 706.933594 744.695312 867.683594 699.039062 861.84375 C 699.039062 861.84375 644.921875 857.675781 587.714844 857.800781 C 587.507812 857.800781 245.859375 854.519531 245.859375 854.519531 C 245.859375 854.519531 129.589844 598.441406 343.894531 630.21875 C 346.449219 630.597656 349.519531 630.761719 352.058594 630.910156 C 352.058594 630.910156 326.3125 572.9375 312.578125 499.671875 C 303.867188 453.183594 319.246094 383.847656 393.050781 383.097656 C 437.917969 382.640625 539.191406 392.191406 539.191406 392.191406 C 539.191406 392.191406 545.519531 383.921875 545.667969 383.691406 C 549.363281 377.90625 587.300781 329.507812 618.453125 249.660156 C 650.628906 167.171875 792.664062 204.371094 868.496094 198.5625 C 869.160156 198.507812 897.890625 196.363281 897.890625 196.363281 C 946.03125 193.125 1011.378906 223.683594 1073.082031 255.851562 L 1073.152344 255.902344 " fill-opacity="1" fill-rule="nonzero"/><path fill="#000000" d="M 590.375 855.464844 C 646.035156 855.464844 698.6875 859.472656 699.222656 859.515625 C 705.691406 860.335938 710.765625 857.570312 714.847656 851.066406 C 725.585938 833.9375 726.871094 794.195312 718.199219 747.335938 C 708.640625 695.730469 688.546875 643.6875 663.066406 604.5625 C 629.410156 552.871094 619.175781 505.246094 616.53125 474.261719 C 616.484375 474.082031 616.457031 473.890625 616.453125 473.683594 C 616.449219 472.433594 617.433594 471.394531 618.6875 471.339844 C 618.746094 471.339844 618.804688 471.339844 618.867188 471.339844 L 622.558594 471.417969 C 624.394531 471.453125 626.21875 471.488281 626.242188 471.488281 C 688.882812 473.820312 732.890625 478.425781 741.078125 479.328125 C 741.808594 479.40625 757.898438 481.320312 757.898438 481.320312 C 764.851562 481.835938 771.5625 479.378906 777.753906 473.984375 C 794.246094 459.617188 815.507812 416.578125 823.121094 293.195312 C 824.714844 267.285156 829.101562 248.222656 836.925781 233.230469 C 837.4375 232.242188 838.574219 231.753906 839.644531 232.078125 C 840.859375 232.433594 869.441406 240.902344 879.597656 245.640625 C 911.523438 260.503906 933.539062 273.03125 951.222656 283.101562 C 971.957031 294.894531 988.328125 304.207031 1010.144531 311.402344 C 1039.074219 320.933594 1075.371094 319.449219 1101.871094 318.375 C 1112.140625 317.953125 1121 317.59375 1127.011719 318.027344 C 1147.546875 319.503906 1204.628906 324.523438 1207.046875 324.742188 C 1207.464844 324.765625 1227.296875 326 1237.71875 326.648438 C 1280.226562 329.691406 1315.136719 307.40625 1341.527344 260.433594 C 1357.941406 231.191406 1365.71875 201.035156 1367.945312 191.320312 C 1359.554688 192.449219 1335.445312 195.484375 1297.960938 198.433594 C 1254.515625 201.859375 1172.050781 188.996094 1158.183594 186.753906 C 1139.863281 242.925781 1097.449219 258.59375 1086.964844 259.714844 C 1078.226562 260.648438 1072.449219 258.136719 1072.207031 258.03125 C 1072.113281 257.980469 1072.007812 257.933594 1071.917969 257.875 C 1009.347656 225.261719 944.980469 195.492188 898.046875 198.683594 C 898.066406 198.683594 869.335938 200.824219 868.679688 200.878906 C 849.019531 202.394531 825.082031 201.035156 799.734375 199.601562 C 726.699219 195.484375 643.914062 190.808594 620.628906 250.503906 C 602.261719 297.582031 578.546875 341.617188 550.132812 381.375 C 548.910156 383.089844 548.027344 384.332031 547.632812 384.9375 C 547.570312 385.042969 547.433594 385.261719 541.042969 393.601562 C 540.558594 394.242188 539.769531 394.582031 538.972656 394.5 C 537.960938 394.417969 437.285156 384.957031 393.074219 385.433594 C 367.195312 385.695312 346.949219 394.492188 332.902344 411.59375 C 312.214844 436.777344 310.023438 473.378906 314.871094 499.234375 C 328.398438 571.402344 353.933594 629.386719 354.1875 629.96875 C 354.515625 630.703125 354.4375 631.574219 353.972656 632.238281 C 353.511719 632.90625 352.753906 633.316406 351.921875 633.234375 L 351.539062 633.210938 C 348.980469 633.0625 346.078125 632.898438 343.550781 632.523438 C 290.644531 624.679688 253.808594 633.992188 234.054688 660.191406 C 190.976562 717.34375 241.253906 838.046875 247.386719 852.199219 C 272.078125 852.4375 586.761719 855.464844 587.730469 855.476562 C 588.613281 855.464844 589.496094 855.464844 590.375 855.464844 Z M 701.394531 864.324219 C 700.523438 864.324219 699.644531 864.265625 698.742188 864.152344 C 698.324219 864.125 644.15625 860.058594 587.71875 860.132812 C 587.507812 860.132812 302.890625 857.398438 245.835938 856.851562 C 244.929688 856.835938 244.109375 856.300781 243.738281 855.480469 C 243.582031 855.140625 228.378906 821.425781 219.152344 780.519531 C 206.675781 725.207031 210.4375 683.78125 230.332031 657.378906 C 251.1875 629.714844 289.507812 619.796875 344.238281 627.914062 C 345.535156 628.105469 346.976562 628.242188 348.429688 628.355469 C 342.714844 614.671875 322.011719 562.644531 310.289062 500.09375 C 305.246094 473.203125 307.59375 435.058594 329.296875 408.628906 C 344.261719 390.417969 365.707031 381.046875 393.03125 380.769531 C 434.75 380.359375 526.183594 388.640625 538.125 389.742188 C 540.4375 386.722656 543.5 382.710938 543.753906 382.355469 C 544.160156 381.710938 545.027344 380.5 546.339844 378.667969 C 574.527344 339.214844 598.058594 295.527344 616.28125 248.8125 C 640.800781 185.960938 725.375 190.734375 799.992188 194.945312 C 825.183594 196.367188 848.976562 197.710938 868.324219 196.230469 C 868.984375 196.175781 897.71875 194.035156 897.71875 194.035156 C 945.839844 190.792969 1010.960938 220.839844 1074.15625 253.78125 C 1074.175781 253.792969 1074.183594 253.800781 1074.203125 253.808594 C 1074.972656 254.113281 1079.671875 255.800781 1086.472656 255.074219 C 1086.949219 255.023438 1134.839844 246.140625 1154.34375 183.4375 C 1154.6875 182.320312 1155.808594 181.644531 1156.953125 181.828125 C 1157.890625 181.984375 1250.867188 197.460938 1297.597656 193.785156 C 1344.519531 190.089844 1370.339844 186.28125 1370.601562 186.25 C 1371.347656 186.125 1372.09375 186.386719 1372.621094 186.933594 C 1373.140625 187.480469 1373.378906 188.25 1373.230469 188.988281 C 1373.160156 189.363281 1365.789062 226.761719 1345.59375 262.714844 C 1320.210938 307.910156 1285.558594 331.574219 1245.03125 331.574219 C 1242.503906 331.574219 1239.964844 331.488281 1237.40625 331.304688 C 1223.480469 330.4375 1206.804688 329.40625 1206.640625 329.390625 C 1206.050781 329.335938 1147.171875 324.152344 1126.671875 322.675781 C 1120.921875 322.261719 1112.179688 322.625 1102.0625 323.035156 C 1075.207031 324.132812 1038.414062 325.632812 1008.6875 315.828125 C 986.429688 308.488281 969.875 299.074219 948.925781 287.152344 C 931.304688 277.125 909.390625 264.65625 877.628906 249.863281 C 869.234375 245.960938 846.808594 239.089844 840.183594 237.105469 C 833.222656 251.242188 829.257812 269.234375 827.777344 293.488281 C 821.578125 393.835938 805.785156 455.75 780.8125 477.496094 C 773.648438 483.75 765.777344 486.59375 757.449219 485.960938 C 757.34375 485.953125 741.296875 484.042969 740.566406 483.957031 C 732.414062 483.066406 688.546875 478.476562 626.082031 476.152344 L 622.464844 476.074219 C 622.101562 476.074219 621.730469 476.066406 621.375 476.058594 C 624.265625 506.527344 634.628906 552.332031 666.972656 602.011719 C 721.96875 686.464844 742.785156 815.3125 718.796875 853.542969 C 714.339844 860.640625 708.367188 864.324219 701.394531 864.324219 " fill-opacity="1" fill-rule="nonzero"/><path fill="#000000" d="M 413.5 638.097656 C 395.460938 638.097656 378.195312 637.167969 363.257812 634.835938 C 361.988281 634.640625 361.117188 633.445312 361.316406 632.171875 C 361.511719 630.898438 362.707031 630.042969 363.980469 630.234375 C 436.113281 641.492188 563.921875 619.578125 565.203125 619.351562 C 566.464844 619.125 567.679688 619.976562 567.898438 621.25 C 568.117188 622.519531 567.265625 623.722656 566 623.949219 C 564.972656 624.125 483.488281 638.097656 413.5 638.097656 " fill-opacity="1" fill-rule="nonzero"/><path fill="#000000" d="M 549.648438 394.824219 C 545.808594 394.824219 542.039062 394.691406 538.324219 394.429688 C 537.039062 394.335938 536.074219 393.222656 536.164062 391.933594 C 536.253906 390.65625 537.363281 389.664062 538.65625 389.777344 C 565.039062 391.644531 594.753906 386.675781 629.492188 374.570312 C 630.707031 374.136719 632.035156 374.789062 632.460938 375.996094 C 632.882812 377.210938 632.242188 378.542969 631.027344 378.96875 C 600.53125 389.601562 573.773438 394.824219 549.648438 394.824219 " fill-opacity="1" fill-rule="nonzero"/><path fill="#000000" d="M 701.429688 864.328125 C 695.375 864.328125 687.683594 861.550781 678.097656 853.53125 C 646.421875 827.019531 635.269531 771.695312 625.425781 722.890625 C 613.9375 665.894531 604.007812 616.6875 566.875 623.746094 C 555.234375 625.953125 546.0625 632.449219 539.609375 643.046875 C 520.015625 675.21875 528.527344 738.671875 541.769531 783.242188 C 542.136719 784.472656 541.433594 785.773438 540.199219 786.140625 C 538.960938 786.511719 537.667969 785.800781 537.296875 784.570312 C 523.136719 736.898438 515.257812 674.0625 535.625 640.617188 C 542.792969 628.847656 553.015625 621.628906 566.003906 619.164062 C 607.667969 611.234375 618.519531 665.023438 630 721.964844 C 639.6875 770.019531 650.667969 824.496094 681.09375 849.953125 C 693.550781 860.382812 703.535156 862.429688 710.746094 856.027344 C 724.132812 844.15625 727.628906 804.792969 719.660156 755.761719 C 710.808594 701.3125 690.179688 646.199219 663.0625 604.5625 C 604.753906 515.011719 608.628906 423.523438 630 387.164062 C 635.65625 377.550781 642.445312 372.519531 649.074219 372.972656 C 668.230469 374.300781 687.246094 402.320312 705.636719 429.414062 C 714.777344 442.878906 723.417969 455.605469 731.085938 463.324219 C 735.738281 468.015625 752.320312 482.789062 770.050781 475.976562 C 790.6875 468.03125 816.652344 429.875 823.109375 293.234375 C 823.167969 291.953125 824.285156 290.960938 825.542969 291.019531 C 826.832031 291.078125 827.832031 292.171875 827.761719 293.460938 C 822.480469 405.175781 803.632812 468.046875 771.714844 480.328125 C 751.355469 488.15625 732.933594 471.804688 727.777344 466.613281 C 719.800781 458.585938 711.046875 445.679688 701.777344 432.027344 C 684.84375 407.078125 665.640625 378.792969 648.75 377.617188 C 643.945312 377.300781 638.730469 381.515625 634.019531 389.53125 C 613.253906 424.847656 609.746094 514.132812 666.972656 602.019531 C 694.425781 644.183594 715.308594 699.941406 724.261719 755.011719 C 732.613281 806.367188 728.617188 846.410156 713.84375 859.511719 C 710.871094 862.15625 706.789062 864.328125 701.429688 864.328125 " fill-opacity="1" fill-rule="nonzero"/><path fill="#000000" d="M 839.570312 235.878906 C 839.125 235.878906 838.664062 235.753906 838.265625 235.476562 C 837.203125 234.75 836.921875 233.304688 837.648438 232.238281 C 837.648438 232.230469 837.816406 231.945312 838.027344 231.542969 C 839.027344 229.730469 840.152344 227.703125 840.773438 226.785156 C 851.101562 211.582031 866.894531 195.785156 905.753906 193.816406 C 907.074219 193.785156 908.128906 194.746094 908.195312 196.03125 C 908.261719 197.3125 907.273438 198.410156 905.980469 198.476562 C 869.183594 200.339844 854.316406 215.15625 844.636719 229.410156 C 844.078125 230.21875 842.753906 232.640625 842.117188 233.800781 C 841.78125 234.398438 841.542969 234.808594 841.511719 234.863281 C 841.050781 235.527344 840.316406 235.878906 839.570312 235.878906 " fill-opacity="1" fill-rule="nonzero"/><path fill="#000000" d="M 1253.855469 331.109375 C 1246.550781 331.109375 1223.183594 329.410156 1201.125 321.492188 C 1178.226562 313.285156 1146.285156 296.578125 1112.472656 278.898438 C 1098.734375 271.714844 1084.515625 264.273438 1071.105469 257.546875 C 1069.949219 256.964844 1069.488281 255.566406 1070.0625 254.410156 C 1070.644531 253.265625 1072.039062 252.796875 1073.1875 253.378906 C 1086.640625 260.125 1100.871094 267.570312 1114.636719 274.769531 C 1148.304688 292.367188 1180.105469 308.996094 1202.699219 317.109375 C 1224.6875 324.992188 1247.9375 326.554688 1254.332031 326.441406 C 1254.339844 326.441406 1254.355469 326.441406 1254.363281 326.441406 C 1255.636719 326.441406 1256.679688 327.46875 1256.695312 328.742188 C 1256.710938 330.03125 1255.683594 331.089844 1254.386719 331.101562 C 1254.230469 331.101562 1254.046875 331.109375 1253.855469 331.109375 " fill-opacity="1" fill-rule="nonzero"/><path fill="#000000" d="M 547.59375 384.9375 C 547.582031 384.976562 547.5625 385.027344 547.546875 385.066406 C 547.570312 385.019531 547.582031 384.96875 547.59375 384.9375 Z M 545.382812 386.53125 C 545.140625 386.53125 544.894531 386.488281 544.648438 386.417969 C 543.425781 386.011719 542.761719 384.6875 543.167969 383.460938 C 543.386719 382.8125 543.859375 382.136719 546.335938 378.675781 C 574.519531 339.226562 598.054688 295.535156 616.277344 248.816406 C 640.792969 185.96875 725.371094 190.746094 799.984375 194.957031 C 826.058594 196.429688 850.675781 197.824219 870.382812 196.070312 C 871.644531 195.972656 872.792969 196.898438 872.910156 198.183594 C 873.023438 199.46875 872.078125 200.601562 870.785156 200.714844 C 850.75 202.492188 825.96875 201.09375 799.730469 199.613281 C 726.691406 195.492188 643.910156 190.8125 620.621094 250.511719 C 602.257812 297.59375 578.539062 341.621094 550.128906 381.382812 C 548.921875 383.078125 547.78125 384.671875 547.527344 385.109375 C 547.15625 385.988281 546.296875 386.53125 545.382812 386.53125 " fill-opacity="1" fill-rule="nonzero"/><path fill="#000000" d="M 741.925781 484.101562 C 741.839844 484.101562 741.75 484.097656 741.660156 484.089844 C 741.195312 484.035156 694.214844 478.683594 625.9375 476.144531 C 624.648438 476.097656 623.644531 475.023438 623.695312 473.730469 C 623.742188 472.441406 624.816406 471.429688 626.109375 471.484375 C 694.582031 474.035156 741.722656 479.402344 742.191406 479.457031 C 743.472656 479.605469 744.390625 480.757812 744.246094 482.039062 C 744.105469 483.222656 743.097656 484.101562 741.925781 484.101562 " fill-opacity="1" fill-rule="nonzero"/><path fill="#000000" d="M 402.199219 683.136719 C 340.765625 683.136719 270.945312 679.722656 266.542969 679.503906 C 265.257812 679.4375 264.269531 678.34375 264.332031 677.054688 C 264.394531 675.769531 265.496094 674.773438 266.777344 674.84375 C 268.40625 674.921875 430.304688 682.855469 479.859375 674.871094 C 481.128906 674.652344 482.328125 675.53125 482.53125 676.804688 C 482.738281 678.070312 481.871094 679.273438 480.601562 679.476562 C 463.539062 682.222656 433.992188 683.136719 402.199219 683.136719 " fill-opacity="1" fill-rule="nonzero"/><path fill="#000000" d="M 440.691406 722.980469 C 439.417969 722.980469 438.375 721.957031 438.359375 720.683594 C 438.339844 719.398438 439.371094 718.335938 440.660156 718.316406 C 452.632812 718.15625 462.511719 717.859375 470.03125 717.453125 C 471.308594 717.410156 472.417969 718.371094 472.484375 719.660156 C 472.554688 720.945312 471.570312 722.039062 470.285156 722.113281 C 462.703125 722.519531 452.757812 722.816406 440.722656 722.980469 C 440.714844 722.980469 440.703125 722.980469 440.691406 722.980469 " fill-opacity="1" fill-rule="nonzero"/><path fill="#000000" d="M 407.695312 723.15625 C 339.65625 723.054688 252.359375 720.617188 251.484375 720.59375 C 250.199219 720.558594 249.179688 719.484375 249.21875 718.195312 C 249.253906 716.910156 250.390625 715.855469 251.613281 715.925781 C 252.488281 715.953125 339.730469 718.386719 407.703125 718.492188 C 408.992188 718.492188 410.03125 719.539062 410.027344 720.828125 C 410.027344 722.113281 408.984375 723.15625 407.695312 723.15625 " fill-opacity="1" fill-rule="nonzero"/><path fill="#000000" d="M 475.195312 763.707031 L 256.585938 763.707031 C 255.300781 763.707031 254.253906 762.667969 254.253906 761.382812 C 254.253906 760.089844 255.300781 759.046875 256.585938 759.046875 L 475.195312 759.046875 C 476.484375 759.046875 477.527344 760.089844 477.527344 761.382812 C 477.527344 762.667969 476.484375 763.707031 475.195312 763.707031 " fill-opacity="1" fill-rule="nonzero"/><path fill="#ffde59" d="M 411.53125 400.699219 L 502.886719 407.742188 C 518.101562 408.917969 533.375 409.113281 548.617188 408.324219 L 578.070312 406.816406 C 584.695312 406.46875 589.878906 412.492188 588.582031 419.046875 C 585.320312 435.492188 581.164062 465.160156 586.0625 493.234375 C 587.171875 499.609375 582.273438 505.421875 575.851562 505.296875 L 351.320312 500.972656 C 346.347656 500.871094 342.160156 497.183594 341.441406 492.222656 C 340.109375 483.042969 338.960938 467.621094 342.496094 451.453125 C 349.46875 419.621094 379.253906 398.210938 411.53125 400.699219 " fill-opacity="1" fill-rule="nonzero"/><path fill="#000000" d="M 425.320312 534.054688 C 420.851562 534.054688 416.339844 533.917969 411.890625 533.640625 L 348.117188 529.683594 C 346.832031 529.609375 345.851562 528.503906 345.933594 527.21875 C 346.015625 525.933594 347.125 524.96875 348.40625 525.03125 L 412.179688 528.988281 C 416.984375 529.285156 421.863281 529.417969 426.6875 529.386719 L 474.773438 529.066406 C 474.777344 529.066406 474.785156 529.066406 474.789062 529.066406 C 476.070312 529.066406 477.113281 530.101562 477.121094 531.382812 C 477.132812 532.671875 476.09375 533.726562 474.804688 533.730469 L 426.71875 534.050781 C 426.253906 534.054688 425.789062 534.054688 425.320312 534.054688 " fill-opacity="1" fill-rule="nonzero"/><path fill="#000000" d="M 407.527344 605.53125 C 400.988281 605.53125 394.40625 605.171875 387.917969 604.480469 L 371.519531 602.722656 C 370.238281 602.585938 369.3125 601.433594 369.449219 600.152344 C 369.585938 598.878906 370.742188 597.949219 372.015625 598.089844 L 388.414062 599.847656 C 395.78125 600.632812 403.269531 600.964844 410.671875 600.835938 L 420.144531 600.667969 C 421.457031 600.710938 422.492188 601.667969 422.515625 602.953125 C 422.539062 604.246094 421.511719 605.308594 420.226562 605.328125 L 410.753906 605.496094 C 409.683594 605.519531 408.605469 605.53125 407.527344 605.53125 " fill-opacity="1" fill-rule="nonzero"/><path fill="#000000" d="M 467.9375 572.632812 C 439.167969 572.632812 410.347656 571.21875 381.824219 568.40625 L 359.449219 566.207031 C 358.167969 566.074219 357.230469 564.933594 357.355469 563.652344 C 357.484375 562.367188 358.632812 561.433594 359.90625 561.5625 L 382.277344 563.765625 C 425.199219 567.996094 468.796875 569.03125 511.859375 566.859375 L 603.351562 562.230469 C 604.625 562.183594 605.734375 563.15625 605.800781 564.441406 C 605.863281 565.730469 604.875 566.816406 603.589844 566.886719 L 512.097656 571.519531 C 497.421875 572.257812 482.683594 572.632812 467.9375 572.632812 " fill-opacity="1" fill-rule="nonzero"/><path fill="#000000" d="M 774.398438 428.40625 C 774.351562 428.40625 774.308594 428.40625 774.257812 428.398438 L 711.800781 424.851562 C 710.515625 424.78125 709.53125 423.675781 709.609375 422.390625 C 709.679688 421.105469 710.78125 420.152344 712.066406 420.199219 L 774.527344 423.75 C 775.8125 423.816406 776.796875 424.921875 776.71875 426.207031 C 776.648438 427.445312 775.625 428.40625 774.398438 428.40625 " fill-opacity="1" fill-rule="nonzero"/><path fill="#000000" d="M 781.449219 390.363281 C 781.414062 390.363281 781.378906 390.363281 781.34375 390.363281 L 688.660156 386.296875 C 687.375 386.242188 686.378906 385.152344 686.433594 383.867188 C 686.488281 382.582031 687.617188 381.582031 688.863281 381.640625 L 781.546875 385.699219 C 782.832031 385.757812 783.832031 386.847656 783.777344 388.132812 C 783.71875 389.382812 782.683594 390.363281 781.449219 390.363281 " fill-opacity="1" fill-rule="nonzero"/><path fill="#000000" d="M 786.820312 348.425781 C 786.792969 348.425781 786.769531 348.425781 786.742188 348.425781 L 599.363281 342.339844 C 598.078125 342.296875 597.066406 341.21875 597.113281 339.933594 C 597.152344 338.640625 598.257812 337.632812 599.515625 337.679688 L 786.894531 343.761719 C 788.183594 343.808594 789.191406 344.886719 789.148438 346.171875 C 789.113281 347.429688 788.070312 348.425781 786.820312 348.425781 " fill-opacity="1" fill-rule="nonzero"/><path fill="#000000" d="M 793.535156 307.847656 C 793.476562 307.847656 793.410156 307.839844 793.347656 307.839844 C 751.628906 304.507812 624.253906 305.800781 622.972656 305.816406 C 622.964844 305.816406 622.957031 305.816406 622.949219 305.816406 C 621.671875 305.816406 620.628906 304.792969 620.617188 303.511719 C 620.601562 302.214844 621.636719 301.164062 622.921875 301.15625 C 624.207031 301.140625 751.785156 299.839844 793.726562 303.1875 C 795.003906 303.292969 795.960938 304.414062 795.855469 305.703125 C 795.757812 306.921875 794.742188 307.847656 793.535156 307.847656 " fill-opacity="1" fill-rule="nonzero"/><path fill="#ffde59" d="M 646.351562 268.3125 L 796.75 268.3125 C 798.765625 268.3125 800.519531 266.933594 800.988281 264.960938 C 802.832031 257.242188 808.296875 237.890625 819.292969 224.992188 C 821.671875 222.207031 819.898438 217.894531 816.246094 217.71875 C 789.097656 216.371094 714.84375 213.488281 681.859375 220.101562 C 679.25 220.628906 676.75 221.585938 674.464844 222.964844 C 666.5 227.78125 647.488281 241.25 642.117188 262.832031 C 641.421875 265.613281 643.507812 268.3125 646.351562 268.3125 " fill-opacity="1" fill-rule="nonzero"/><path fill="#000000" d="M 1281.421875 228.734375 C 1229.351562 228.734375 1174.6875 220.003906 1173.960938 219.886719 C 1172.691406 219.6875 1171.832031 218.480469 1172.035156 217.210938 C 1172.246094 215.9375 1173.429688 215.074219 1174.710938 215.28125 C 1175.671875 215.441406 1271.050781 230.660156 1329.082031 220.703125 C 1330.355469 220.484375 1331.554688 221.335938 1331.777344 222.605469 C 1331.992188 223.867188 1331.144531 225.082031 1329.875 225.300781 C 1315.335938 227.789062 1298.519531 228.734375 1281.421875 228.734375 " fill-opacity="1" fill-rule="nonzero"/><path fill="#000000" d="M 1291.632812 263.519531 C 1225.121094 263.519531 1149.890625 250.464844 1149.078125 250.324219 C 1147.808594 250.101562 1146.964844 248.890625 1147.1875 247.621094 C 1147.402344 246.355469 1148.621094 245.507812 1149.890625 245.734375 C 1150.769531 245.890625 1239.113281 261.207031 1308.554688 258.546875 C 1309.886719 258.515625 1310.9375 259.5 1310.976562 260.792969 C 1311.027344 262.078125 1310.035156 263.152344 1308.742188 263.207031 C 1303.144531 263.421875 1297.417969 263.519531 1291.632812 263.519531 " fill-opacity="1" fill-rule="nonzero"/><path fill="#000000" d="M 1266.890625 298.832031 C 1236.332031 298.832031 1199.433594 292.253906 1197.59375 291.917969 C 1196.328125 291.691406 1195.488281 290.46875 1195.707031 289.210938 C 1195.945312 287.941406 1197.164062 287.105469 1198.425781 287.324219 C 1198.953125 287.421875 1251.851562 296.855469 1282.875 293.390625 C 1284.152344 293.234375 1285.308594 294.171875 1285.445312 295.449219 C 1285.59375 296.726562 1284.675781 297.882812 1283.390625 298.027344 C 1278.3125 298.59375 1272.71875 298.832031 1266.890625 298.832031 " fill-opacity="1" fill-rule="nonzero"/><path fill="#000000" d="M 334.832031 1174.742188 L 926.691406 1174.742188 C 931.921875 1174.742188 936.160156 1170.507812 936.160156 1165.277344 L 936.160156 1144.324219 L 325.363281 1144.324219 L 325.363281 1165.277344 C 325.363281 1170.507812 329.601562 1174.742188 334.832031 1174.742188 " fill-opacity="1" fill-rule="nonzero"/><path fill="#000000" d="M 325.351562 1144.933594 L 681.429688 1144.933594 L 568.300781 809.816406 C 561.527344 799.335938 549.734375 792.976562 537.058594 792.976562 L 236.046875 792.976562 C 222.394531 792.976562 213.597656 806.316406 218.054688 818.082031 C 219.824219 822.761719 221.738281 827.394531 223.292969 832.152344 L 325.351562 1144.933594 " fill-opacity="1" fill-rule="nonzero"/><path fill="#f4f4f4" d="M 458.417969 964.15625 C 462.835938 978.910156 456.082031 994.007812 443.332031 997.878906 C 430.582031 1001.753906 416.664062 992.929688 412.246094 978.171875 C 407.824219 963.414062 414.582031 948.3125 427.332031 944.445312 C 440.082031 940.574219 454 949.394531 458.417969 964.15625 " fill-opacity="1" fill-rule="nonzero"/><path fill="#f4f4f4" d="M 627.3125 1144.304688 L 378.230469 1144.304688 C 376.945312 1144.304688 375.898438 1143.257812 375.898438 1141.96875 C 375.898438 1140.683594 376.945312 1139.636719 378.230469 1139.636719 L 627.3125 1139.636719 C 628.601562 1139.636719 629.644531 1140.683594 629.644531 1141.96875 C 629.644531 1143.257812 628.601562 1144.304688 627.3125 1144.304688 " fill-opacity="1" fill-rule="nonzero"/><path fill="#f4f4f4" d="M 351.03125 1144.304688 L 322.066406 1144.304688 C 320.777344 1144.304688 319.734375 1143.257812 319.734375 1141.96875 C 319.734375 1140.683594 320.777344 1139.636719 322.066406 1139.636719 L 351.03125 1139.636719 C 352.316406 1139.636719 353.363281 1140.683594 353.363281 1141.96875 C 353.363281 1143.257812 352.316406 1144.304688 351.03125 1144.304688 " fill-opacity="1" fill-rule="nonzero"/><path fill="#000000" d="M 558.242188 1277.363281 C 499.605469 1277.363281 450.902344 1274.246094 412.542969 1267.996094 C 354.191406 1258.492188 319.605469 1241.738281 309.734375 1218.195312 C 296.703125 1187.085938 331.152344 1156.574219 332.625 1155.289062 C 333.59375 1154.445312 335.066406 1154.542969 335.914062 1155.511719 C 336.757812 1156.480469 336.660156 1157.960938 335.691406 1158.800781 C 335.355469 1159.097656 302.296875 1188.410156 314.042969 1216.402344 C 325.675781 1244.125 380.574219 1272.753906 557.515625 1272.753906 C 610.417969 1272.753906 674.210938 1270.195312 751.042969 1264.292969 C 805.046875 1260.136719 903.785156 1250.523438 954.511719 1241.039062 C 955.769531 1240.792969 956.992188 1241.636719 957.234375 1242.902344 C 957.472656 1244.167969 956.632812 1245.382812 955.367188 1245.621094 C 904.460938 1255.140625 805.5 1264.785156 751.402344 1268.941406 C 678.34375 1274.558594 613.828125 1277.363281 558.242188 1277.363281 " fill-opacity="1" fill-rule="nonzero"/><path fill="#00bf63" d="M 1346.472656 654.082031 C 1346.472656 654.082031 1430.644531 659.308594 1464.699219 705.136719 C 1487.28125 735.535156 1485.183594 797.851562 1473.207031 888.796875 C 1465.296875 948.796875 1450.753906 978.664062 1436.726562 1015.527344 C 1401.449219 1108.308594 1347.316406 1133.695312 1290.648438 1138.882812 C 1219.945312 1145.355469 970.21875 1141.808594 911.140625 1140.84375 C 904.347656 1140.730469 898.191406 1136.851562 895.113281 1130.757812 L 891.300781 1123.222656 C 887.277344 1115.257812 886.179688 1090.566406 887.929688 1077.402344 C 889.027344 1069.15625 893.761719 1061.699219 901.050781 1057.777344 C 902.707031 1056.886719 904.367188 1056.253906 905.882812 1056.140625 L 1024.15625 1042.589844 C 1024.15625 1042.589844 1138.726562 895.609375 1086.691406 824.785156 C 1067.960938 799.292969 981.40625 853.613281 905.816406 842.742188 C 841.796875 833.523438 772.621094 721.625 752.929688 687.5625 C 748.964844 680.695312 747.59375 672.621094 749.144531 664.839844 C 751.554688 652.785156 757.265625 635.609375 770.632812 628.265625 C 781.789062 622.132812 802.636719 611.703125 822.292969 632.3125 C 822.292969 632.3125 871.621094 706.789062 931.015625 708.601562 C 990.414062 710.414062 1055.777344 629.707031 1247.671875 643.566406 L 1346.472656 654.082031 " fill-opacity="1" fill-rule="nonzero"/><path fill="#f4f4f4" d="M 1022.542969 1042.671875 C 1021.351562 1042.671875 1020.332031 1041.757812 1020.21875 1040.550781 C 1020.109375 1039.265625 1021.058594 1038.132812 1022.34375 1038.019531 C 1137.648438 1027.953125 1333.699219 984.363281 1351.257812 805.480469 C 1351.386719 804.195312 1352.527344 803.257812 1353.8125 803.386719 C 1355.089844 803.511719 1356.03125 804.652344 1355.902344 805.929688 C 1347.464844 891.785156 1297.652344 956.292969 1207.820312 997.652344 C 1156.507812 1021.285156 1094.238281 1036.425781 1022.746094 1042.667969 C 1022.6875 1042.671875 1022.609375 1042.671875 1022.542969 1042.671875 " fill-opacity="1" fill-rule="nonzero"/><path fill="#000000" d="M 787.628906 695.140625 C 770.097656 695.140625 758.769531 676.460938 758.289062 675.660156 C 757.628906 674.554688 757.988281 673.128906 759.097656 672.46875 C 760.203125 671.804688 761.636719 672.167969 762.296875 673.269531 C 762.394531 673.445312 772.761719 690.472656 787.636719 690.472656 C 787.738281 690.472656 787.839844 690.472656 787.941406 690.472656 C 799.5 690.292969 810.988281 680.066406 822.105469 660.089844 C 822.730469 658.964844 824.148438 658.558594 825.273438 659.183594 C 826.398438 659.808594 826.800781 661.226562 826.171875 662.359375 C 814.1875 683.910156 801.34375 694.9375 787.992188 695.136719 C 787.875 695.140625 787.75 695.140625 787.628906 695.140625 " fill-opacity="1" fill-rule="nonzero"/><path fill="#000000" d="M 948.339844 1109.039062 C 948.082031 1109.039062 947.8125 1108.992188 947.546875 1108.898438 C 946.339844 1108.464844 945.710938 1107.128906 946.148438 1105.910156 C 948.761719 1098.671875 948.53125 1092.191406 945.449219 1086.652344 C 938.515625 1074.183594 919.453125 1070.015625 919.261719 1069.972656 C 918.003906 1069.707031 917.195312 1068.46875 917.460938 1067.203125 C 917.730469 1065.945312 918.953125 1065.144531 920.222656 1065.40625 C 921.089844 1065.589844 941.535156 1070.042969 949.515625 1084.367188 C 953.289062 1091.144531 953.632812 1098.917969 950.535156 1107.5 C 950.191406 1108.449219 949.296875 1109.039062 948.339844 1109.039062 " fill-opacity="1" fill-rule="nonzero"/><path fill="#feffff" d="M 916.148438 1090.582031 C 913.089844 1086.589844 908.683594 1083.800781 903.742188 1082.992188 C 900.199219 1082.414062 896.636719 1081.445312 893.214844 1080.363281 L 845.804688 1065.417969 C 836.992188 1062.953125 827.9375 1063.976562 820.058594 1068.316406 C 796.265625 1081.417969 747.460938 1110.929688 755.191406 1128.621094 C 763.527344 1147.710938 806.859375 1129.839844 822.117188 1122.816406 C 825.605469 1121.210938 829.511719 1121.042969 833.25 1122.367188 C 842.578125 1125.664062 860.917969 1131.835938 871.488281 1133.335938 C 880.21875 1134.582031 888.085938 1130.398438 894.472656 1125.339844 C 897.382812 1123.03125 900.828125 1121.59375 904.71875 1120.839844 C 910.671875 1119.679688 915.890625 1116.109375 918.75 1110.726562 L 918.820312 1110.601562 C 921.980469 1104.675781 921.386719 1097.421875 917.300781 1092.09375 L 916.148438 1090.582031 " fill-opacity="1" fill-rule="nonzero"/><path fill="#000000" d="M 836.40625 1066.445312 C 831.121094 1066.445312 825.898438 1067.761719 821.183594 1070.359375 C 776.308594 1095.074219 752.433594 1116.503906 757.328125 1127.6875 C 758.515625 1130.414062 760.589844 1132.3125 763.660156 1133.480469 C 778.738281 1139.21875 811.46875 1125.140625 821.140625 1120.703125 C 825.175781 1118.84375 829.75 1118.65625 834.03125 1120.175781 C 843.738281 1123.605469 861.550781 1129.570312 871.8125 1131.023438 C 878.496094 1131.980469 885.433594 1129.519531 893.019531 1123.511719 C 896.105469 1121.070312 899.890625 1119.398438 904.277344 1118.550781 C 909.710938 1117.496094 914.234375 1114.246094 916.691406 1109.632812 C 916.695312 1109.632812 916.769531 1109.496094 916.769531 1109.488281 C 919.488281 1104.386719 918.976562 1098.109375 915.453125 1093.511719 L 914.300781 1092 C 911.519531 1088.375 907.636719 1085.992188 903.363281 1085.296875 C 900.171875 1084.773438 896.722656 1083.910156 892.519531 1082.589844 L 845.109375 1067.640625 C 842.242188 1066.839844 839.3125 1066.445312 836.40625 1066.445312 Z M 772.328125 1139.46875 C 768.5 1139.46875 764.988281 1138.976562 762 1137.835938 C 757.753906 1136.21875 754.746094 1133.4375 753.050781 1129.554688 C 745.195312 1111.570312 784.542969 1085.21875 818.933594 1066.273438 C 827.316406 1061.660156 837.082031 1060.554688 846.4375 1063.175781 L 893.914062 1078.140625 C 897.90625 1079.398438 901.152344 1080.207031 904.117188 1080.691406 C 909.5625 1081.585938 914.496094 1084.59375 917.996094 1089.167969 C 918.003906 1089.167969 918.003906 1089.167969 918.003906 1089.167969 L 919.15625 1090.671875 C 923.78125 1096.71875 924.464844 1104.96875 920.878906 1111.695312 C 920.871094 1111.703125 920.800781 1111.835938 920.800781 1111.835938 C 917.6875 1117.683594 911.988281 1121.800781 905.160156 1123.125 C 901.464844 1123.84375 898.445312 1125.164062 895.921875 1127.167969 C 887.273438 1134.011719 879.175781 1136.789062 871.15625 1135.644531 C 860.496094 1134.132812 842.347656 1128.050781 832.476562 1124.566406 C 829.300781 1123.441406 826.054688 1123.566406 823.085938 1124.933594 C 812.53125 1129.796875 789.355469 1139.460938 772.328125 1139.46875 " fill-opacity="1" fill-rule="nonzero"/><path fill="#feffff" d="M 643.050781 518.515625 C 644.511719 514.25 648.898438 511.75 653.28125 512.675781 C 665.53125 515.28125 728.609375 528.703125 740.367188 531.28125 C 752.132812 533.867188 752.605469 546.519531 759.300781 558.101562 C 765.128906 568.171875 785.1875 605.089844 807.042969 630.808594 C 813.621094 638.554688 814.539062 649.675781 809.417969 658.464844 C 806.480469 663.519531 802.738281 668.480469 798.304688 671.40625 C 786.539062 679.171875 777.777344 688.484375 753.171875 629.65625 C 753.171875 629.65625 741.953125 624.300781 731.148438 611.9375 C 731.148438 611.9375 692.796875 657.167969 682.988281 565.320312 C 682.117188 557.152344 685.886719 549.203125 693.003906 545.183594 C 693.566406 544.867188 694.167969 544.542969 694.792969 544.230469 L 648.839844 529.996094 C 644.035156 528.503906 641.410156 523.300781 643.050781 518.515625 " fill-opacity="1" fill-rule="nonzero"/><path fill="#000000" d="M 731.148438 609.601562 C 731.824219 609.601562 732.464844 609.898438 732.90625 610.402344 C 743.226562 622.21875 754.074219 627.496094 754.175781 627.554688 C 754.691406 627.800781 755.105469 628.226562 755.324219 628.753906 C 767.457031 657.75 776.550781 672.285156 783.960938 674.503906 C 787.621094 675.605469 790.71875 673.691406 795.484375 670.484375 C 795.992188 670.148438 796.503906 669.804688 797.027344 669.460938 C 800.574219 667.113281 804.066406 663.019531 807.398438 657.292969 C 812.039062 649.324219 811.183594 639.285156 805.261719 632.3125 C 785.660156 609.25 767.460938 577.179688 759.6875 563.488281 C 758.722656 561.792969 757.921875 560.363281 757.285156 559.269531 C 755.175781 555.621094 753.707031 551.992188 752.285156 548.480469 C 749.265625 541.003906 746.875 535.097656 739.867188 533.554688 C 727.101562 530.761719 653.539062 515.113281 652.796875 514.960938 C 649.574219 514.269531 646.335938 516.128906 645.257812 519.269531 C 644.664062 520.996094 644.796875 522.835938 645.617188 524.453125 C 646.433594 526.066406 647.824219 527.238281 649.527344 527.765625 L 695.480469 542 C 696.386719 542.28125 697.03125 543.082031 697.117188 544.023438 C 697.195312 544.972656 696.695312 545.875 695.851562 546.300781 C 695.261719 546.609375 694.695312 546.910156 694.152344 547.214844 C 687.996094 550.695312 684.519531 557.703125 685.308594 565.078125 C 689.722656 606.390625 699.730469 617.855469 707.359375 620.203125 C 718.121094 623.511719 729.265625 610.558594 729.375 610.425781 C 729.816406 609.914062 730.457031 609.609375 731.136719 609.601562 C 731.144531 609.601562 731.148438 609.601562 731.148438 609.601562 Z M 786.019531 679.484375 C 784.921875 679.484375 783.796875 679.328125 782.621094 678.976562 C 773.605469 676.277344 764.242188 662.015625 751.351562 631.339844 C 748.679688 629.9375 739.984375 624.9375 731.117188 615.378906 C 727.054688 619.40625 716.8125 627.988281 705.988281 624.660156 C 692.949219 620.644531 684.429688 600.765625 680.675781 565.566406 C 679.808594 557.453125 683.097656 549.675781 689.1875 544.929688 L 648.148438 532.222656 C 645.230469 531.316406 642.851562 529.3125 641.460938 526.570312 C 640.0625 523.816406 639.84375 520.6875 640.84375 517.757812 C 642.6875 512.386719 648.242188 509.214844 653.769531 510.398438 C 654.507812 510.554688 728.085938 526.199219 740.863281 529.003906 C 750.277344 531.070312 753.355469 538.675781 756.609375 546.730469 C 757.972656 550.097656 759.378906 553.570312 761.320312 556.933594 C 761.964844 558.039062 762.773438 559.472656 763.742188 561.179688 C 771.453125 574.761719 789.503906 606.566406 808.8125 629.296875 C 816.007812 637.765625 817.0625 649.960938 811.433594 659.640625 C 807.738281 665.992188 803.753906 670.605469 799.589844 673.351562 C 799.085938 673.683594 798.585938 674.023438 798.09375 674.355469 C 794.332031 676.878906 790.476562 679.484375 786.019531 679.484375 " fill-opacity="1" fill-rule="nonzero"/><path fill="#000000" d="M 739.9375 593.535156 C 739.550781 593.535156 739.15625 593.4375 738.792969 593.234375 C 735.777344 591.53125 730.152344 587.6875 727.875 586.113281 C 715.351562 577.441406 708.371094 568.828125 705.328125 564.46875 C 703.132812 561.328125 702.023438 557.800781 702.125 554.273438 C 702.304688 547.445312 706.929688 545.886719 708.898438 545.226562 C 716.488281 542.667969 728.515625 549.640625 729.855469 550.441406 C 730.960938 551.101562 731.324219 552.527344 730.667969 553.636719 C 730.003906 554.742188 728.570312 555.105469 727.46875 554.449219 C 724.320312 552.570312 715.113281 548.046875 710.386719 549.644531 C 708.503906 550.28125 706.882812 550.828125 706.78125 554.398438 C 706.710938 556.921875 707.535156 559.480469 709.152344 561.792969 C 712.019531 565.90625 718.605469 574.015625 730.492188 582.246094 C 732.753906 583.8125 738.238281 587.566406 741.082031 589.167969 C 742.207031 589.804688 742.601562 591.226562 741.96875 592.34375 C 741.539062 593.105469 740.75 593.535156 739.9375 593.535156 " fill-opacity="1" fill-rule="nonzero"/><path fill="#000000" d="M 731.671875 614.796875 C 731.058594 614.796875 730.457031 614.558594 730 614.085938 C 719.652344 603.460938 720.265625 592.085938 720.300781 591.609375 C 720.375 590.320312 721.484375 589.351562 722.773438 589.429688 C 724.058594 589.515625 725.03125 590.617188 724.953125 591.902344 C 724.921875 592.304688 724.503906 601.765625 733.339844 610.832031 C 734.234375 611.761719 734.21875 613.238281 733.292969 614.128906 C 732.84375 614.570312 732.253906 614.796875 731.671875 614.796875 " fill-opacity="1" fill-rule="nonzero"/><path fill="#feffff" d="M 1333.800781 649.785156 L 1346.210938 550.535156 L 1259.828125 577.230469 L 1251.101562 635.363281 C 1249 650.976562 1260.601562 661.929688 1260.601562 661.929688 C 1274.753906 676.785156 1297.855469 678.574219 1316.386719 669.902344 L 1320.679688 667.902344 C 1327.859375 664.535156 1332.816406 657.695312 1333.800781 649.785156 " fill-opacity="1" fill-rule="nonzero"/><path fill="#000000" d="M 1333.800781 649.789062 L 1333.820312 649.789062 Z M 1261.914062 579.027344 L 1253.402344 635.707031 C 1251.484375 649.941406 1262.085938 660.132812 1262.195312 660.246094 C 1274.820312 673.492188 1296.664062 676.5625 1315.390625 667.800781 L 1319.683594 665.789062 C 1326.1875 662.75 1330.589844 656.65625 1331.484375 649.492188 L 1343.449219 553.839844 Z M 1293.113281 677.53125 C 1280.019531 677.53125 1267.664062 672.734375 1258.90625 663.539062 C 1258.488281 663.148438 1246.550781 651.671875 1248.785156 635.058594 L 1257.519531 576.886719 C 1257.65625 576 1258.277344 575.269531 1259.136719 575.011719 L 1345.519531 548.3125 C 1346.265625 548.082031 1347.101562 548.246094 1347.707031 548.757812 C 1348.320312 549.265625 1348.617188 550.050781 1348.515625 550.835938 L 1336.113281 650.082031 C 1335.019531 658.839844 1329.609375 666.285156 1321.660156 670.007812 L 1317.367188 672.019531 C 1309.445312 675.726562 1301.136719 677.53125 1293.113281 677.53125 " fill-opacity="1" fill-rule="nonzero"/><path fill="#000000" d="M 1255.53125 405.390625 C 1276.933594 407.875 1246.527344 425.050781 1328.839844 415.839844 C 1361.621094 412.171875 1339.550781 445.890625 1348.050781 444.960938 C 1379.464844 441.527344 1378.382812 441.609375 1392.332031 448.007812 C 1401.5625 452.246094 1404.78125 471.199219 1400.65625 484.21875 C 1395.226562 501.40625 1379.925781 503.417969 1360.664062 538.378906 C 1347.125 562.933594 1346.605469 579.1875 1335.488281 581.175781 C 1324.25 583.179688 1318.894531 567.613281 1306.449219 568.871094 C 1290.359375 570.5 1288.800781 597.652344 1271.941406 606.085938 C 1261.324219 611.402344 1238.835938 610.789062 1206.648438 587.523438 C 1201.429688 583.753906 1199.617188 576.761719 1202.359375 570.917969 C 1205.878906 563.429688 1210.371094 553.980469 1215.40625 545.328125 C 1239.445312 504.066406 1256.855469 496.824219 1253.148438 484.394531 C 1247.457031 465.355469 1212.632812 469.621094 1209.632812 454.269531 C 1206.523438 438.332031 1226.230469 401.996094 1255.53125 405.390625 " fill-opacity="1" fill-rule="nonzero"/><path fill="#feffff" d="M 1316.355469 494.324219 L 1308.34375 504.605469 C 1304.5625 509.445312 1301.136719 514.539062 1298.058594 519.855469 C 1292.273438 529.824219 1282.21875 546.902344 1275.871094 556.03125 C 1266.527344 569.453125 1223.09375 543.472656 1223.09375 543.472656 L 1221.847656 533.960938 L 1216.8125 530.816406 C 1215.84375 530.203125 1214.988281 529.386719 1214.449219 528.371094 C 1213.097656 525.832031 1213.597656 522.859375 1215.457031 520.929688 C 1225.601562 510.386719 1247.09375 486.484375 1257.304688 463.445312 C 1257.304688 463.445312 1293.378906 460.546875 1316.355469 494.324219 " fill-opacity="1" fill-rule="nonzero"/><path fill="#000000" d="M 1314.035156 494.246094 C 1313.140625 493.394531 1312.316406 492.597656 1311.582031 491.761719 C 1310.78125 490.910156 1310.332031 490.105469 1309.25 489.011719 C 1307.332031 486.96875 1305.515625 484.820312 1303.34375 483.050781 C 1299.289062 479.203125 1294.59375 476.074219 1289.675781 473.441406 C 1284.742188 470.796875 1279.449219 468.847656 1273.996094 467.554688 C 1272.636719 467.207031 1271.25 466.980469 1269.882812 466.691406 C 1268.507812 466.464844 1267.117188 466.265625 1265.734375 466.097656 C 1262.980469 465.789062 1260.089844 465.644531 1257.5 465.753906 L 1259.433594 464.378906 C 1253.070312 478.167969 1244.203125 490.328125 1234.765625 501.84375 C 1229.992188 507.5625 1225.070312 513.136719 1219.976562 518.5625 L 1218.0625 520.597656 L 1217.09375 521.605469 L 1216.621094 522.097656 C 1216.507812 522.222656 1216.386719 522.347656 1216.292969 522.488281 C 1215.453125 523.574219 1215.09375 525.046875 1215.460938 526.382812 C 1215.859375 527.800781 1216.726562 528.601562 1218.210938 529.316406 C 1219.855469 530.164062 1221.503906 531.023438 1223.078125 532 C 1223.679688 532.367188 1224.054688 532.976562 1224.136719 533.625 L 1224.136719 533.667969 L 1225.429688 543.171875 L 1224.304688 541.445312 C 1233.605469 546.769531 1243.453125 551.605469 1253.546875 554.917969 C 1256.082031 555.714844 1258.640625 556.398438 1261.175781 556.851562 C 1263.71875 557.300781 1266.277344 557.515625 1268.585938 557.242188 C 1270.953125 556.984375 1272.746094 556.058594 1273.855469 554.542969 C 1275.378906 552.34375 1276.863281 550.074219 1278.328125 547.789062 C 1284.164062 538.628906 1289.714844 529.207031 1295.226562 519.789062 C 1297.976562 515.011719 1301.042969 510.300781 1304.371094 505.859375 C 1305.179688 504.765625 1306.113281 503.566406 1306.863281 502.617188 C 1307.621094 501.667969 1308.390625 500.734375 1309.164062 499.800781 C 1310.722656 497.949219 1312.347656 496.113281 1314.035156 494.246094 Z M 1318.691406 494.40625 C 1317.007812 496.847656 1315.273438 499.332031 1313.464844 501.785156 L 1308.230469 508.71875 C 1305.046875 513.050781 1302.179688 517.546875 1299.511719 522.273438 C 1294.019531 531.757812 1288.449219 541.1875 1282.539062 550.472656 C 1281.066406 552.808594 1279.554688 555.117188 1277.96875 557.398438 C 1276.914062 558.792969 1275.53125 560.140625 1273.9375 560.835938 C 1273.179688 561.285156 1272.371094 561.460938 1271.578125 561.769531 C 1270.792969 561.910156 1269.996094 562.136719 1269.207031 562.203125 C 1266.09375 562.5625 1263.132812 562.234375 1260.308594 561.726562 C 1257.464844 561.210938 1254.730469 560.460938 1252.046875 559.59375 C 1246.710938 557.832031 1241.578125 555.667969 1236.574219 553.285156 C 1231.5625 550.882812 1226.703125 548.332031 1221.878906 545.496094 C 1221.238281 545.113281 1220.84375 544.460938 1220.75 543.777344 L 1219.550781 534.257812 L 1220.621094 535.917969 C 1219.050781 534.925781 1217.570312 533.816406 1216.074219 532.707031 C 1215.292969 532.167969 1214.28125 531.335938 1213.617188 530.359375 C 1212.925781 529.351562 1212.46875 528.257812 1212.242188 527.125 C 1211.742188 524.839844 1212.257812 522.367188 1213.675781 520.507812 C 1213.84375 520.265625 1214.042969 520.054688 1214.234375 519.839844 L 1214.714844 519.324219 L 1215.667969 518.320312 L 1217.554688 516.292969 C 1222.5625 510.902344 1227.355469 505.300781 1231.898438 499.523438 C 1236.460938 493.757812 1240.765625 487.796875 1244.710938 481.625 C 1248.660156 475.476562 1252.296875 469.121094 1255.199219 462.503906 L 1255.207031 462.460938 C 1255.5625 461.671875 1256.324219 461.179688 1257.132812 461.128906 C 1260.324219 460.945312 1263.234375 461.136719 1266.242188 461.4375 C 1267.726562 461.613281 1269.21875 461.820312 1270.695312 462.0625 C 1272.152344 462.363281 1273.636719 462.597656 1275.085938 462.960938 C 1280.914062 464.328125 1286.582031 466.394531 1291.875 469.214844 C 1297.160156 472.015625 1302.21875 475.367188 1306.578125 479.476562 C 1308.886719 481.410156 1310.816406 483.710938 1312.839844 485.910156 C 1313.816406 486.878906 1314.933594 488.511719 1315.917969 489.945312 C 1316.925781 491.429688 1317.84375 492.9375 1318.691406 494.40625 " fill-opacity="1" fill-rule="nonzero"/><path fill="#feffff" d="M 1300.976562 532.402344 C 1300.976562 532.402344 1320.230469 507.664062 1329.546875 518.863281 C 1338.867188 530.0625 1317 556.757812 1300.976562 532.402344 " fill-opacity="1" fill-rule="nonzero"/><g clip-path="url(#e874706c6c)"><g clip-path="url(#b23e57dc62)"><g clip-path="url(#96b84f480a)"><path fill="#ff3131" d="M 1520.472656 420.378906 C 1520.46875 419.546875 1520.902344 414.105469 1521.4375 408.285156 C 1523.132812 389.878906 1522.078125 369.042969 1518.34375 347.128906 C 1516.199219 334.546875 1515.730469 332.496094 1507.707031 300.585938 C 1494.742188 249.027344 1494.039062 235.617188 1503.15625 213.679688 C 1511.511719 193.578125 1524.300781 180.886719 1545.390625 171.769531 C 1562.890625 164.203125 1579.945312 162.359375 1598.546875 166.023438 C 1644.652344 175.101562 1677.089844 217.832031 1670.992188 261.453125 C 1669.570312 271.625 1663.238281 287.71875 1657.539062 295.644531 C 1651.285156 304.335938 1633.183594 319.949219 1609.335938 337.210938 C 1566.296875 368.367188 1548.191406 385.15625 1529.855469 410.917969 C 1522.757812 420.890625 1520.484375 423.183594 1520.472656 420.378906 Z M 1520.472656 420.378906 " fill-opacity="1" fill-rule="nonzero"/></g></g></g><g clip-path="url(#3f3ef62400)"><g clip-path="url(#a433c4f9cf)"><g clip-path="url(#9358f11061)"><path stroke-linecap="butt" transform="matrix(0.990115, 0.358722, -0.341783, 0.943362, 2925.307054, -378.806471)" fill="none" stroke-linejoin="miter" d="M -995.719932 1225.798663 C -995.99255 1225.020343 -997.365524 1219.774328 -998.770385 1214.138782 C -1003.21053 1196.31585 -1010.891763 1177.149807 -1021.314131 1157.883251 C -1027.29855 1146.821439 -1028.380395 1145.058913 -1045.865353 1117.881723 C -1074.117467 1073.970735 -1079.082876 1061.643591 -1078.03905 1037.992069 C -1077.081426 1016.319491 -1069.768626 1000.085353 -1053.888831 984.38235 C -1040.712404 971.351215 -1026.082492 963.833616 -1008.289978 960.951904 C -964.19095 953.806023 -921.409354 982.833894 -912.743566 1025.778698 C -910.722799 1035.792864 -911.170285 1053.023022 -913.694822 1062.384633 C -916.466929 1072.651978 -927.577575 1093.427581 -943.285084 1117.698589 C -971.632192 1161.504655 -982.366006 1183.383338 -990.403275 1213.747998 C -993.514241 1225.502371 -994.802263 1228.422788 -995.719932 1225.798663 Z M -995.719932 1225.798663 " stroke="#5a0000" stroke-width="5.7" stroke-opacity="1" stroke-miterlimit="4"/></g></g></g><g clip-path="url(#8017bd8b7b)"><g clip-path="url(#33c04ee0c6)"><g clip-path="url(#5cd2109424)"><path fill="#ffde59" d="M 1614.800781 270.988281 C 1608.597656 288.109375 1588.308594 296.460938 1569.480469 289.640625 C 1550.652344 282.820312 1540.421875 263.410156 1546.625 246.289062 C 1552.828125 229.167969 1573.117188 220.816406 1591.945312 227.636719 C 1610.769531 234.457031 1621.003906 253.867188 1614.800781 270.988281 Z M 1614.800781 270.988281 " fill-opacity="1" fill-rule="nonzero"/></g></g></g></svg>