<svg xmlns="http://www.w3.org/2000/svg" xmlns:xlink="http://www.w3.org/1999/xlink" width="2304" zoomAndPan="magnify" viewBox="0 0 1728 1295.99994" height="1728" preserveAspectRatio="xMidYMid meet" version="1.0"><defs><g/></defs><path fill="#efefef" d="M 495.625 65.9375 C 755.507812 -77.488281 1103.664062 71.511719 1285.085938 236.695312 C 1336.917969 283.894531 1462.585938 401.605469 1492.261719 590.289062 C 1529.121094 824.65625 1408.460938 1108.730469 1131.734375 1230.246094 C 830.527344 1362.503906 493.738281 1237.152344 336.113281 1033.6875 C 188.699219 843.402344 218.203125 619.335938 228.746094 539.296875 C 241.113281 445.382812 277.898438 186.097656 495.625 65.9375 " fill-opacity="1" fill-rule="nonzero"/><path fill="#000000" d="M 1448.574219 604.6875 C 1447.667969 604.6875 1446.804688 604.148438 1446.445312 603.269531 L 1441.839844 592.222656 C 1441.355469 591.046875 1441.914062 589.6875 1443.089844 589.203125 C 1444.277344 588.714844 1445.625 589.265625 1446.109375 590.449219 L 1450.714844 601.488281 C 1451.199219 602.664062 1450.640625 604.023438 1449.453125 604.519531 C 1449.175781 604.636719 1448.863281 604.6875 1448.574219 604.6875 " fill-opacity="1" fill-rule="nonzero"/><path fill="#000000" d="M 1459.269531 630.414062 C 1458.363281 630.414062 1457.5 629.882812 1457.128906 628.996094 L 1452.542969 617.949219 C 1452.050781 616.765625 1452.605469 615.417969 1453.789062 614.929688 C 1454.96875 614.441406 1456.316406 614.992188 1456.804688 616.171875 L 1461.40625 627.210938 C 1461.894531 628.394531 1461.332031 629.75 1460.15625 630.238281 C 1459.867188 630.355469 1459.566406 630.414062 1459.269531 630.414062 " fill-opacity="1" fill-rule="nonzero"/><path fill="#000000" d="M 1433.238281 619.675781 C 1432.332031 619.675781 1431.472656 619.136719 1431.09375 618.25 C 1430.609375 617.078125 1431.167969 615.714844 1432.347656 615.230469 L 1443.390625 610.644531 C 1444.574219 610.148438 1445.929688 610.703125 1446.410156 611.878906 C 1446.90625 613.0625 1446.347656 614.417969 1445.175781 614.90625 L 1434.125 619.496094 C 1433.839844 619.613281 1433.53125 619.675781 1433.238281 619.675781 " fill-opacity="1" fill-rule="nonzero"/><path fill="#000000" d="M 1458.972656 608.980469 C 1458.070312 608.980469 1457.203125 608.4375 1456.839844 607.550781 C 1456.347656 606.375 1456.902344 605.015625 1458.078125 604.519531 L 1469.125 599.933594 C 1470.308594 599.441406 1471.65625 600.007812 1472.144531 601.175781 C 1472.632812 602.359375 1472.078125 603.71875 1470.902344 604.203125 L 1459.855469 608.796875 C 1459.566406 608.914062 1459.265625 608.980469 1458.972656 608.980469 " fill-opacity="1" fill-rule="nonzero"/><path fill="#000000" d="M 372.804688 232.816406 C 371.898438 232.816406 371.039062 232.28125 370.667969 231.394531 L 366.074219 220.34375 C 365.582031 219.171875 366.144531 217.8125 367.320312 217.320312 C 368.5 216.835938 369.851562 217.394531 370.34375 218.570312 L 374.9375 229.609375 C 375.425781 230.792969 374.871094 232.144531 373.691406 232.632812 C 373.398438 232.761719 373.097656 232.816406 372.804688 232.816406 " fill-opacity="1" fill-rule="nonzero"/><path fill="#000000" d="M 383.503906 258.535156 C 382.597656 258.535156 381.738281 257.992188 381.367188 257.105469 L 376.773438 246.066406 C 376.285156 244.882812 376.84375 243.535156 378.023438 243.039062 C 379.203125 242.554688 380.554688 243.113281 381.042969 244.285156 L 385.636719 255.328125 C 386.125 256.511719 385.570312 257.867188 384.390625 258.355469 C 384.101562 258.472656 383.796875 258.535156 383.503906 258.535156 " fill-opacity="1" fill-rule="nonzero"/><path fill="#000000" d="M 357.472656 247.789062 C 356.566406 247.789062 355.707031 247.253906 355.335938 246.367188 C 354.84375 245.1875 355.40625 243.835938 356.582031 243.347656 L 367.628906 238.753906 C 368.808594 238.261719 370.160156 238.816406 370.648438 239.996094 C 371.140625 241.175781 370.582031 242.53125 369.40625 243.023438 L 358.359375 247.617188 C 358.070312 247.734375 357.769531 247.789062 357.472656 247.789062 " fill-opacity="1" fill-rule="nonzero"/><path fill="#000000" d="M 383.199219 237.09375 C 382.292969 237.09375 381.433594 236.554688 381.0625 235.667969 C 380.570312 234.484375 381.132812 233.136719 382.3125 232.644531 L 393.355469 228.058594 C 394.53125 227.5625 395.886719 228.121094 396.375 229.300781 C 396.867188 230.480469 396.308594 231.839844 395.128906 232.320312 L 384.085938 236.914062 C 383.796875 237.039062 383.496094 237.09375 383.199219 237.09375 " fill-opacity="1" fill-rule="nonzero"/><path fill="#ffde59" d="M 1223.132812 151.296875 C 1249.585938 105.601562 1308.054688 90.003906 1353.738281 116.445312 C 1399.433594 142.886719 1415.035156 201.371094 1388.59375 247.054688 C 1362.140625 292.746094 1303.667969 308.347656 1257.984375 281.898438 C 1212.292969 255.453125 1196.691406 196.980469 1223.132812 151.296875 Z M 1160.082031 146.5625 C 1157.113281 154.777344 1154.851562 163.121094 1153.328125 171.53125 L 1113.796875 180.402344 L 1113.761719 217.53125 L 1153.328125 226.503906 C 1154.851562 234.988281 1157.078125 243.339844 1159.980469 251.460938 L 1130.140625 278.945312 L 1148.675781 311.125 L 1187.363281 299.132812 C 1192.875 305.667969 1198.992188 311.773438 1205.664062 317.40625 L 1193.570312 356.117188 L 1225.710938 374.71875 L 1253.25 344.953125 C 1261.457031 347.925781 1269.808594 350.191406 1278.21875 351.710938 L 1287.089844 391.230469 L 1324.214844 391.277344 L 1333.191406 351.722656 C 1341.6875 350.191406 1350.027344 347.960938 1358.152344 345.054688 L 1385.632812 374.886719 L 1417.808594 356.363281 L 1405.820312 317.667969 C 1412.351562 312.164062 1418.460938 306.039062 1424.09375 299.363281 L 1462.808594 311.457031 L 1481.40625 279.324219 L 1451.632812 251.785156 C 1454.609375 243.574219 1456.875 235.230469 1458.398438 226.808594 L 1497.917969 217.945312 L 1497.964844 180.8125 L 1458.40625 171.847656 C 1456.875 163.355469 1454.648438 155.011719 1451.746094 146.878906 L 1481.574219 119.394531 L 1463.046875 87.226562 L 1424.363281 99.21875 C 1418.851562 92.683594 1412.722656 86.578125 1406.050781 80.933594 L 1418.144531 42.230469 L 1386.011719 23.628906 L 1358.476562 53.394531 C 1350.257812 50.425781 1341.90625 48.160156 1333.507812 46.628906 L 1324.632812 7.109375 L 1287.507812 7.070312 L 1278.53125 46.628906 C 1270.039062 48.160156 1261.6875 50.386719 1253.566406 53.296875 L 1226.082031 23.453125 L 1193.90625 41.988281 L 1205.90625 80.671875 C 1199.375 86.1875 1193.265625 92.3125 1187.621094 98.980469 L 1148.917969 86.882812 L 1130.320312 119.023438 L 1160.082031 146.5625 " fill-opacity="1" fill-rule="nonzero"/><path fill="#ffde59" d="M 288.070312 611.027344 C 303.6875 584.039062 338.234375 574.824219 365.21875 590.4375 C 392.210938 606.066406 401.425781 640.605469 385.804688 667.59375 C 370.1875 694.582031 335.640625 703.796875 308.652344 688.179688 C 281.664062 672.554688 272.449219 638.015625 288.070312 611.027344 Z M 250.828125 608.230469 C 249.070312 613.082031 247.730469 618.015625 246.832031 622.980469 L 223.484375 628.222656 L 223.460938 650.15625 L 246.828125 655.457031 C 247.730469 660.464844 249.046875 665.402344 250.765625 670.199219 L 233.140625 686.433594 L 244.085938 705.4375 L 266.941406 698.355469 C 270.195312 702.21875 273.808594 705.824219 277.75 709.152344 L 270.609375 732.023438 L 289.589844 743.007812 L 305.859375 725.425781 C 310.710938 727.179688 315.640625 728.519531 320.609375 729.414062 L 325.847656 752.761719 L 347.785156 752.789062 L 353.078125 729.421875 C 358.097656 728.519531 363.027344 727.199219 367.828125 725.488281 L 384.058594 743.109375 L 403.066406 732.160156 L 395.980469 709.3125 C 399.84375 706.054688 403.449219 702.4375 406.78125 698.496094 L 429.644531 705.644531 L 440.636719 686.65625 L 423.046875 670.386719 C 424.804688 665.539062 426.144531 660.605469 427.042969 655.636719 L 450.390625 650.394531 L 450.414062 628.46875 L 427.046875 623.164062 C 426.144531 618.152344 424.828125 613.21875 423.109375 608.417969 L 440.734375 592.1875 L 429.789062 573.179688 L 406.933594 580.265625 C 403.679688 576.410156 400.0625 572.792969 396.121094 569.46875 L 403.265625 546.597656 L 384.285156 535.613281 L 368.015625 553.203125 C 363.164062 551.441406 358.234375 550.105469 353.265625 549.207031 L 348.027344 525.859375 L 326.09375 525.832031 L 320.796875 549.207031 C 315.777344 550.105469 310.847656 551.417969 306.046875 553.136719 L 289.8125 535.515625 L 270.808594 546.460938 L 277.890625 569.308594 C 274.035156 572.566406 270.425781 576.183594 267.09375 580.125 L 244.230469 572.976562 L 233.238281 591.964844 L 250.828125 608.230469 " fill-opacity="1" fill-rule="nonzero"/><path fill="#000000" d="M 958.464844 373.953125 L 370.160156 323.527344 C 347.539062 323.527344 329.136719 341.929688 329.136719 364.550781 L 329.136719 1028.558594 C 329.136719 1051.175781 347.539062 1069.582031 370.160156 1069.582031 L 713.847656 1046.300781 L 669.71875 1207.351562 L 623.03125 1207.71875 C 608.476562 1207.71875 596.632812 1219.566406 596.632812 1234.121094 C 596.632812 1248.683594 608.476562 1260.527344 623.03125 1260.527344 L 1014.027344 1241.878906 C 1028.582031 1241.878906 1001.34375 1069.582031 1001.34375 1069.582031 C 1001.34375 1069.582031 981.085938 373.953125 958.464844 373.953125 " fill-opacity="1" fill-rule="nonzero"/><path fill="#ffffff" d="M 995.191406 984.6875 L 752.644531 984.6875 L 683.835938 1235.847656 L 1064.003906 1235.847656 L 995.191406 984.6875 " fill-opacity="1" fill-rule="nonzero"/><path fill="#000000" d="M 686.867188 1233.535156 L 1060.976562 1233.535156 L 993.429688 987 L 754.410156 987 Z M 1064.003906 1238.160156 L 683.835938 1238.160156 C 683.113281 1238.160156 682.433594 1237.824219 681.996094 1237.25 C 681.558594 1236.671875 681.414062 1235.929688 681.605469 1235.230469 L 750.414062 984.082031 C 750.6875 983.074219 751.601562 982.375 752.644531 982.375 L 995.191406 982.375 C 996.234375 982.375 997.148438 983.074219 997.421875 984.082031 L 1066.230469 1235.230469 C 1066.425781 1235.929688 1066.277344 1236.671875 1065.839844 1237.25 C 1065.40625 1237.824219 1064.726562 1238.160156 1064.003906 1238.160156 " fill-opacity="1" fill-rule="nonzero"/><path fill="#efefef" d="M 1358.160156 325.851562 L 389.675781 325.851562 C 368.300781 325.851562 350.972656 343.175781 350.972656 364.554688 L 350.972656 1028.558594 C 350.972656 1049.933594 368.300781 1067.265625 389.675781 1067.265625 L 1358.160156 1067.265625 C 1379.539062 1067.265625 1396.867188 1049.933594 1396.867188 1028.558594 L 1396.867188 364.554688 C 1396.867188 343.175781 1379.539062 325.851562 1358.160156 325.851562 " fill-opacity="1" fill-rule="nonzero"/><path fill="#ffffff" d="M 1105.300781 1210.039062 L 642.550781 1210.039062 C 629.253906 1210.039062 618.46875 1220.820312 618.46875 1234.121094 C 618.46875 1247.425781 629.253906 1258.207031 642.550781 1258.207031 L 1105.300781 1258.207031 C 1118.597656 1258.207031 1129.378906 1247.425781 1129.378906 1234.121094 C 1129.378906 1220.820312 1118.597656 1210.039062 1105.300781 1210.039062 " fill-opacity="1" fill-rule="nonzero"/><path fill="#000000" d="M 642.550781 1212.351562 C 630.546875 1212.351562 620.78125 1222.121094 620.78125 1234.121094 C 620.78125 1246.125 630.546875 1255.894531 642.550781 1255.894531 L 1105.289062 1255.894531 C 1117.296875 1255.894531 1127.066406 1246.125 1127.066406 1234.121094 C 1127.066406 1222.121094 1117.296875 1212.351562 1105.289062 1212.351562 Z M 1105.289062 1260.523438 L 642.550781 1260.523438 C 627.996094 1260.523438 616.15625 1248.675781 616.15625 1234.121094 C 616.15625 1219.570312 627.996094 1207.726562 642.550781 1207.726562 L 1105.289062 1207.726562 C 1119.847656 1207.726562 1131.691406 1219.570312 1131.691406 1234.121094 C 1131.691406 1248.675781 1119.847656 1260.523438 1105.289062 1260.523438 " fill-opacity="1" fill-rule="nonzero"/><path fill="#000000" d="M 429.648438 1069.582031 L 389.675781 1069.582031 C 367.058594 1069.582031 348.65625 1051.175781 348.65625 1028.5625 L 348.65625 364.554688 C 348.65625 341.941406 367.058594 323.539062 389.675781 323.539062 L 414.230469 323.539062 C 415.507812 323.539062 416.546875 324.574219 416.546875 325.851562 C 416.546875 327.128906 415.507812 328.160156 414.230469 328.160156 L 389.675781 328.160156 C 369.609375 328.160156 353.285156 344.492188 353.285156 364.554688 L 353.285156 1028.5625 C 353.285156 1048.621094 369.609375 1064.953125 389.675781 1064.953125 L 429.648438 1064.953125 C 430.925781 1064.953125 431.960938 1065.988281 431.960938 1067.265625 C 431.960938 1068.539062 430.925781 1069.582031 429.648438 1069.582031 " fill-opacity="1" fill-rule="nonzero"/><path fill="#000000" d="M 1260.941406 1069.628906 C 1259.675781 1069.628906 1258.636719 1068.59375 1258.636719 1067.316406 C 1258.636719 1066.035156 1259.667969 1065.003906 1260.941406 1065.003906 L 1358.164062 1064.953125 C 1378.226562 1064.953125 1394.550781 1048.621094 1394.550781 1028.558594 L 1394.550781 364.554688 C 1394.550781 344.492188 1378.226562 328.164062 1358.164062 328.164062 L 1339.265625 328.164062 C 1337.988281 328.164062 1336.949219 327.125 1336.949219 325.851562 C 1336.949219 324.578125 1337.988281 323.535156 1339.265625 323.535156 L 1358.164062 323.535156 C 1380.773438 323.535156 1399.179688 341.941406 1399.179688 364.554688 L 1399.179688 1028.558594 C 1399.179688 1051.171875 1380.773438 1069.578125 1358.164062 1069.578125 L 1260.941406 1069.628906 " fill-opacity="1" fill-rule="nonzero"/><path fill="#000000" d="M 778.078125 1069.578125 C 776.804688 1069.578125 775.773438 1068.542969 775.765625 1067.269531 C 775.757812 1065.992188 776.792969 1064.953125 778.074219 1064.953125 L 1080.042969 1063.972656 L 1080.050781 1063.972656 C 1081.324219 1063.972656 1082.359375 1065 1082.363281 1066.28125 C 1082.371094 1067.558594 1081.339844 1068.59375 1080.0625 1068.601562 L 778.085938 1069.578125 L 778.078125 1069.578125 " fill-opacity="1" fill-rule="nonzero"/><path fill="#000000" d="M 1343.207031 1035.171875 L 1262.996094 1035.171875 C 1261.730469 1035.171875 1260.6875 1034.136719 1260.6875 1032.859375 C 1260.6875 1031.578125 1261.730469 1030.542969 1262.996094 1030.542969 L 1343.207031 1030.542969 C 1352.546875 1030.542969 1360.144531 1022.949219 1360.144531 1013.613281 L 1360.144531 751.988281 C 1360.144531 750.710938 1361.183594 749.675781 1362.460938 749.675781 C 1363.738281 749.675781 1364.769531 750.710938 1364.769531 751.988281 L 1364.769531 1013.613281 C 1364.769531 1025.5 1355.101562 1035.171875 1343.207031 1035.171875 " fill-opacity="1" fill-rule="nonzero"/><path fill="#000000" d="M 1047.160156 1035.171875 L 788.246094 1035.171875 C 786.972656 1035.171875 785.941406 1034.136719 785.941406 1032.855469 C 785.941406 1031.578125 786.972656 1030.542969 788.246094 1030.542969 L 1047.160156 1030.542969 C 1048.441406 1030.542969 1049.472656 1031.578125 1049.472656 1032.855469 C 1049.472656 1034.136719 1048.441406 1035.171875 1047.160156 1035.171875 " fill-opacity="1" fill-rule="nonzero"/><path fill="#000000" d="M 423.308594 1035.171875 L 404.621094 1035.171875 C 392.734375 1035.171875 383.0625 1025.5 383.0625 1013.613281 L 383.0625 854.078125 C 383.0625 852.800781 384.097656 851.765625 385.375 851.765625 C 386.652344 851.765625 387.6875 852.800781 387.6875 854.078125 L 387.6875 1013.613281 C 387.6875 1022.949219 395.285156 1030.542969 404.621094 1030.542969 L 423.308594 1030.542969 C 424.585938 1030.542969 425.617188 1031.578125 425.617188 1032.855469 C 425.617188 1034.136719 424.585938 1035.171875 423.308594 1035.171875 " fill-opacity="1" fill-rule="nonzero"/><path fill="#000000" d="M 385.375 455.035156 C 384.097656 455.035156 383.0625 453.996094 383.0625 452.722656 L 383.0625 411.894531 C 383.0625 410.621094 384.097656 409.582031 385.375 409.582031 C 386.652344 409.582031 387.6875 410.621094 387.6875 411.894531 L 387.6875 452.722656 C 387.6875 453.996094 386.652344 455.035156 385.375 455.035156 " fill-opacity="1" fill-rule="nonzero"/><path fill="#000000" d="M 385.375 381.8125 C 384.097656 381.8125 383.0625 380.769531 383.0625 379.496094 C 383.0625 367.609375 392.734375 357.9375 404.621094 357.9375 L 460.441406 357.9375 C 461.71875 357.9375 462.753906 358.972656 462.753906 360.246094 C 462.753906 361.53125 461.71875 362.5625 460.441406 362.5625 L 404.621094 362.5625 C 395.285156 362.5625 387.6875 370.15625 387.6875 379.496094 C 387.6875 380.769531 386.652344 381.8125 385.375 381.8125 " fill-opacity="1" fill-rule="nonzero"/><path fill="#000000" d="M 1362.460938 414.214844 C 1361.183594 414.214844 1360.144531 413.171875 1360.144531 411.90625 L 1360.144531 379.5 C 1360.144531 370.160156 1352.546875 362.566406 1343.207031 362.566406 C 1341.941406 362.566406 1340.898438 361.535156 1340.898438 360.257812 C 1340.898438 358.980469 1341.941406 357.9375 1343.207031 357.9375 C 1355.101562 357.9375 1364.769531 367.617188 1364.769531 379.5 L 1364.769531 411.90625 C 1364.769531 413.171875 1363.738281 414.214844 1362.460938 414.214844 " fill-opacity="1" fill-rule="nonzero"/><path fill="#000000" d="M 1362.460938 504.652344 C 1361.183594 504.652344 1360.144531 503.609375 1360.144531 502.332031 L 1360.144531 457.214844 C 1360.144531 455.9375 1361.183594 454.898438 1362.460938 454.898438 C 1363.738281 454.898438 1364.769531 455.9375 1364.769531 457.214844 L 1364.769531 502.332031 C 1364.769531 503.609375 1363.738281 504.652344 1362.460938 504.652344 " fill-opacity="1" fill-rule="nonzero"/><path fill="#00bf63" d="M 386.84375 81.359375 C 363.589844 91.660156 357.8125 111.96875 354.691406 133.796875 L 451.046875 138.417969 C 437.871094 113.308594 413.230469 89.214844 390.429688 81.207031 C 389.261719 80.800781 387.96875 80.855469 386.84375 81.359375 " fill-opacity="1" fill-rule="nonzero"/><path fill="#ffffff" d="M 1306.691406 101.566406 C 1293.457031 88.628906 1275.6875 81.382812 1257.171875 81.382812 L 390.8125 81.382812 C 390.363281 81.382812 390.183594 81.949219 390.539062 82.214844 C 410.902344 97.515625 424.082031 117.222656 422.570312 146.664062 L 422.570312 1031.082031 L 1326.019531 1031.082031 L 1326.019531 146.664062 C 1326.019531 129.472656 1319.703125 114.292969 1306.691406 101.566406 " fill-opacity="1" fill-rule="nonzero"/><path fill="#efefef" d="M 507.859375 464.429688 L 963.761719 464.429688 C 971.050781 464.429688 976.960938 458.515625 976.960938 451.226562 C 976.960938 443.9375 971.050781 438.027344 963.761719 438.027344 L 507.859375 438.027344 C 500.566406 438.027344 494.65625 443.9375 494.65625 451.226562 C 494.65625 458.515625 500.566406 464.429688 507.859375 464.429688 " fill-opacity="1" fill-rule="nonzero"/><path fill="#efefef" d="M 746.882812 525.929688 L 1204.238281 525.929688 C 1211.519531 525.929688 1217.433594 520.015625 1217.433594 512.722656 C 1217.433594 505.441406 1211.519531 499.527344 1204.238281 499.527344 L 746.882812 499.527344 C 739.597656 499.527344 733.6875 505.441406 733.6875 512.722656 C 733.6875 520.015625 739.597656 525.929688 746.882812 525.929688 " fill-opacity="1" fill-rule="nonzero"/><path fill="#efefef" d="M 507.324219 589.261719 L 844.890625 589.261719 C 852.6875 589.261719 859.011719 583.347656 859.011719 576.058594 C 859.011719 568.769531 852.6875 562.859375 844.890625 562.859375 L 507.324219 562.859375 C 499.523438 562.859375 493.203125 568.769531 493.203125 576.058594 C 493.203125 583.347656 499.523438 589.261719 507.324219 589.261719 " fill-opacity="1" fill-rule="nonzero"/><path fill="#efefef" d="M 710.949219 206.90625 L 1014.359375 206.90625 C 1021.378906 206.90625 1027.058594 201 1027.058594 193.707031 C 1027.058594 186.417969 1021.378906 180.511719 1014.359375 180.511719 L 710.949219 180.511719 C 703.9375 180.511719 698.253906 186.417969 698.253906 193.707031 C 698.253906 201 703.9375 206.90625 710.949219 206.90625 " fill-opacity="1" fill-rule="nonzero"/><path fill="#efefef" d="M 885.761719 589.261719 L 1093.015625 589.261719 C 1097.808594 589.261719 1101.6875 583.347656 1101.6875 576.058594 C 1101.6875 568.761719 1097.808594 562.859375 1093.015625 562.859375 L 885.761719 562.859375 C 880.976562 562.859375 877.089844 568.761719 877.089844 576.058594 C 877.089844 583.347656 880.976562 589.261719 885.761719 589.261719 " fill-opacity="1" fill-rule="nonzero"/><path fill="#efefef" d="M 506.300781 652.316406 L 806.46875 652.316406 C 813.761719 652.316406 819.664062 646.40625 819.664062 639.117188 C 819.664062 631.828125 813.761719 625.917969 806.46875 625.917969 L 506.300781 625.917969 C 499.011719 625.917969 493.105469 631.828125 493.105469 639.117188 C 493.105469 646.40625 499.011719 652.316406 506.300781 652.316406 " fill-opacity="1" fill-rule="nonzero"/><path fill="#efefef" d="M 974.011719 713.957031 L 1210.035156 713.957031 C 1215.757812 713.957031 1220.410156 708.046875 1220.410156 700.753906 C 1220.410156 693.464844 1215.757812 687.546875 1210.035156 687.546875 L 974.011719 687.546875 C 968.28125 687.546875 963.628906 693.464844 963.628906 700.753906 C 963.628906 708.046875 968.28125 713.957031 974.011719 713.957031 " fill-opacity="1" fill-rule="nonzero"/><path fill="#efefef" d="M 506.609375 968.339844 L 841.824219 968.339844 C 849.964844 968.339844 856.566406 962.425781 856.566406 955.136719 C 856.566406 947.851562 849.964844 941.9375 841.824219 941.9375 L 506.609375 941.9375 C 498.46875 941.9375 491.867188 947.851562 491.867188 955.136719 C 491.867188 962.425781 498.46875 968.339844 506.609375 968.339844 " fill-opacity="1" fill-rule="nonzero"/><path fill="#efefef" d="M 502.25 902.035156 L 738.261719 902.035156 C 744 902.035156 748.644531 896.132812 748.644531 888.84375 C 748.644531 881.550781 744 875.644531 738.261719 875.644531 L 502.25 875.644531 C 496.515625 875.644531 491.867188 881.550781 491.867188 888.84375 C 491.867188 896.132812 496.515625 902.035156 502.25 902.035156 " fill-opacity="1" fill-rule="nonzero"/><path fill="#efefef" d="M 853.191406 652.308594 L 1153.355469 652.308594 C 1160.644531 652.308594 1166.558594 646.40625 1166.558594 639.121094 C 1166.558594 631.820312 1160.644531 625.917969 1153.355469 625.917969 L 853.191406 625.917969 C 845.894531 625.917969 839.996094 631.820312 839.996094 639.121094 C 839.996094 646.40625 845.894531 652.308594 853.191406 652.308594 " fill-opacity="1" fill-rule="nonzero"/><path fill="#efefef" d="M 506.816406 714.082031 L 934.171875 714.082031 C 942.292969 714.082031 948.878906 708.179688 948.878906 700.890625 C 948.878906 693.601562 942.292969 687.691406 934.171875 687.691406 L 506.816406 687.691406 C 498.695312 687.691406 492.113281 693.601562 492.113281 700.890625 C 492.113281 708.179688 498.695312 714.082031 506.816406 714.082031 " fill-opacity="1" fill-rule="nonzero"/><path fill="#efefef" d="M 506.691406 774.046875 L 1020.613281 774.046875 C 1028.78125 774.046875 1035.402344 768.136719 1035.402344 760.847656 C 1035.402344 753.558594 1028.78125 747.648438 1020.613281 747.648438 L 506.691406 747.648438 C 498.523438 747.648438 491.902344 753.558594 491.902344 760.847656 C 491.902344 768.136719 498.523438 774.046875 506.691406 774.046875 " fill-opacity="1" fill-rule="nonzero"/><path fill="#efefef" d="M 504.769531 842.058594 L 877.425781 842.058594 C 884.714844 842.058594 890.617188 836.148438 890.617188 828.859375 C 890.617188 821.570312 884.714844 815.660156 877.425781 815.660156 L 504.769531 815.660156 C 497.480469 815.660156 491.570312 821.570312 491.570312 828.859375 C 491.570312 836.148438 497.480469 842.058594 504.769531 842.058594 " fill-opacity="1" fill-rule="nonzero"/><path fill="#efefef" d="M 909.570312 842.058594 L 1089.164062 842.058594 C 1092.679688 842.058594 1095.53125 836.148438 1095.53125 828.859375 C 1095.53125 821.570312 1092.679688 815.660156 1089.164062 815.660156 L 909.570312 815.660156 C 906.054688 815.660156 903.210938 821.570312 903.210938 828.859375 C 903.210938 836.148438 906.054688 842.058594 909.570312 842.058594 " fill-opacity="1" fill-rule="nonzero"/><path fill="#efefef" d="M 808.433594 902.023438 L 1164.109375 902.023438 C 1170.511719 902.023438 1175.691406 896.113281 1175.691406 888.824219 C 1175.691406 881.535156 1170.511719 875.625 1164.109375 875.625 L 808.433594 875.625 C 802.03125 875.625 796.839844 881.535156 796.839844 888.824219 C 796.839844 896.113281 802.03125 902.023438 808.433594 902.023438 " fill-opacity="1" fill-rule="nonzero"/><path fill="#efefef" d="M 513.441406 401.453125 L 1081.015625 401.453125 C 1090.78125 401.453125 1098.6875 395.546875 1098.6875 388.253906 C 1098.6875 380.964844 1090.78125 375.058594 1081.015625 375.058594 L 513.441406 375.058594 C 503.679688 375.058594 495.769531 380.964844 495.769531 388.253906 C 495.769531 395.546875 503.679688 401.453125 513.441406 401.453125 " fill-opacity="1" fill-rule="nonzero"/><path fill="#efefef" d="M 511.582031 337.296875 L 1019.652344 337.296875 C 1028.390625 337.296875 1035.464844 331.382812 1035.464844 324.09375 C 1035.464844 316.804688 1028.390625 310.898438 1019.652344 310.898438 L 511.582031 310.898438 C 502.847656 310.898438 495.761719 316.804688 495.761719 324.09375 C 495.761719 331.382812 502.847656 337.296875 511.582031 337.296875 " fill-opacity="1" fill-rule="nonzero"/><path fill="#efefef" d="M 886.574219 241.527344 L 710.460938 241.527344 C 701.789062 241.527344 694.75 247.394531 694.75 254.636719 C 694.75 261.875 701.789062 267.742188 710.460938 267.742188 L 886.984375 267.742188 C 896.011719 267.742188 903.285156 261.519531 902.78125 253.890625 C 902.316406 246.878906 894.992188 241.527344 886.574219 241.527344 " fill-opacity="1" fill-rule="nonzero"/><path fill="#efefef" d="M 1251.972656 310.914062 L 1075.847656 310.914062 C 1067.171875 310.914062 1060.144531 316.78125 1060.144531 324.023438 C 1060.144531 331.253906 1067.171875 337.125 1075.847656 337.125 L 1252.371094 337.125 C 1261.40625 337.125 1268.671875 330.90625 1268.164062 323.277344 C 1267.710938 316.261719 1260.390625 310.914062 1251.972656 310.914062 " fill-opacity="1" fill-rule="nonzero"/><path fill="#efefef" d="M 681.527344 499.003906 L 505.410156 499.003906 C 496.734375 499.003906 489.703125 504.867188 489.703125 512.105469 C 489.703125 519.34375 496.734375 525.207031 505.410156 525.207031 L 681.933594 525.207031 C 690.96875 525.207031 698.226562 518.996094 697.730469 511.367188 C 697.269531 504.347656 689.945312 499.003906 681.527344 499.003906 " fill-opacity="1" fill-rule="nonzero"/><path fill="#efefef" d="M 1145.898438 241.527344 L 939.769531 241.527344 C 929.613281 241.527344 921.382812 247.394531 921.382812 254.636719 C 921.382812 261.875 929.613281 267.742188 939.769531 267.742188 L 1146.386719 267.742188 C 1156.953125 267.742188 1165.453125 261.519531 1164.863281 253.890625 C 1164.332031 246.878906 1155.757812 241.527344 1145.898438 241.527344 " fill-opacity="1" fill-rule="nonzero"/><path fill="#00bf63" d="M 555.316406 211.027344 L 586.785156 211.027344 L 571 160.25 Z M 595.230469 238.265625 L 546.871094 238.265625 L 538.425781 265.613281 L 500.726562 265.613281 L 554.410156 119.234375 L 587.585938 119.234375 L 641.679688 265.613281 L 603.773438 265.613281 L 595.230469 238.265625 " fill-opacity="1" fill-rule="nonzero"/><path fill="#00bf63" d="M 422.570312 1030.046875 C 421.292969 1030.046875 420.257812 1029.011719 420.257812 1027.734375 L 420.257812 146.667969 C 421.578125 120.855469 411.695312 101 389.152344 84.0625 C 388.191406 83.339844 387.800781 82.09375 388.179688 80.964844 C 388.558594 79.832031 389.613281 79.070312 390.808594 79.070312 L 1257.171875 79.070312 C 1276.410156 79.070312 1294.554688 86.46875 1308.300781 99.914062 C 1321.589844 112.90625 1328.332031 128.632812 1328.332031 146.667969 L 1328.332031 1024.660156 C 1328.332031 1025.929688 1327.289062 1026.972656 1326.019531 1026.972656 C 1324.746094 1026.972656 1323.710938 1025.929688 1323.710938 1024.660156 L 1323.710938 146.667969 C 1323.710938 129.925781 1317.433594 115.3125 1305.066406 103.21875 C 1292.1875 90.632812 1275.179688 83.691406 1257.171875 83.691406 L 396.164062 83.691406 C 417.054688 100.921875 426.199219 121.09375 424.878906 146.78125 L 424.882812 1027.734375 C 424.882812 1029.011719 423.847656 1030.046875 422.570312 1030.046875 " fill-opacity="1" fill-rule="nonzero"/><path fill="#000000" d="M 410.710938 1191.292969 C 351.519531 1136.734375 382.15625 1101.539062 382.15625 1101.539062 C 382.15625 1101.539062 408.597656 1058.707031 501.386719 1114.703125 C 594.179688 1170.707031 683.996094 1149.882812 704.308594 1141.492188 C 724.621094 1133.097656 795.589844 1080.332031 835.582031 1077.363281 C 857.839844 1075.714844 884.476562 1092.449219 861.109375 1137.683594 C 812.789062 1231.207031 681.550781 1241.882812 681.550781 1241.882812 C 681.550781 1241.882812 617.933594 1253.835938 552.582031 1242.253906 C 552.582031 1242.253906 469.902344 1245.855469 410.710938 1191.292969 " fill-opacity="1" fill-rule="nonzero"/><path fill="#ffffff" d="M 564.3125 1202.46875 L 585.273438 1214.191406 L 574.808594 1235.9375 L 557.457031 1224.828125 L 564.3125 1202.46875 " fill-opacity="1" fill-rule="nonzero"/><path fill="#000000" d="M 560.183594 1223.828125 L 573.855469 1232.582031 L 582.246094 1215.148438 L 565.683594 1205.882812 Z M 574.808594 1238.25 C 574.371094 1238.25 573.9375 1238.125 573.558594 1237.886719 L 556.210938 1226.777344 C 555.335938 1226.21875 554.945312 1225.144531 555.246094 1224.148438 L 562.101562 1201.789062 C 562.304688 1201.117188 562.800781 1200.578125 563.453125 1200.320312 C 564.097656 1200.0625 564.832031 1200.113281 565.441406 1200.449219 L 586.398438 1212.171875 C 587.46875 1212.773438 587.886719 1214.09375 587.355469 1215.199219 L 576.890625 1236.9375 C 576.605469 1237.539062 576.074219 1237.984375 575.4375 1238.160156 C 575.230469 1238.222656 575.019531 1238.25 574.808594 1238.25 " fill-opacity="1" fill-rule="nonzero"/><path fill="#00bf63" d="M 577.046875 1211.421875 C 579.472656 1208.296875 584.210938 1208.328125 586.5625 1211.523438 L 596.734375 1225.324219 L 582.992188 1243.023438 L 564.789062 1234.660156 C 566.039062 1226.804688 572.40625 1217.40625 577.046875 1211.421875 " fill-opacity="1" fill-rule="nonzero"/><path fill="#ffffff" d="M 574.933594 1226.113281 L 580.492188 1220.496094 C 582.492188 1218.46875 585.621094 1218.082031 588.050781 1219.558594 L 592 1221.949219 L 592.851562 1220.113281 C 593.773438 1218.121094 596.03125 1217.140625 598.113281 1217.832031 C 610.789062 1222.066406 652.898438 1236.574219 666.980469 1247.015625 C 683.640625 1259.351562 671.8125 1286.8125 642.753906 1284.015625 C 619.730469 1281.792969 588.257812 1256.113281 576.1875 1245.550781 C 573.820312 1243.476562 574.417969 1239.648438 577.300781 1238.375 L 577.332031 1238.363281 L 574.257812 1233.945312 C 572.570312 1231.515625 572.851562 1228.222656 574.933594 1226.113281 " fill-opacity="1" fill-rule="nonzero"/><path fill="#000000" d="M 574.933594 1226.113281 L 574.949219 1226.113281 Z M 584.859375 1220.976562 C 583.863281 1220.976562 582.878906 1221.363281 582.136719 1222.117188 L 576.578125 1227.742188 C 575.28125 1229.054688 575.101562 1231.109375 576.160156 1232.625 L 579.230469 1237.042969 C 579.621094 1237.601562 579.742188 1238.308594 579.566406 1238.960938 C 579.390625 1239.621094 578.9375 1240.167969 578.324219 1240.453125 C 577.324219 1240.894531 577.113281 1241.695312 577.058594 1242.015625 C 577.011719 1242.34375 576.972656 1243.164062 577.710938 1243.8125 C 589.917969 1254.492188 620.707031 1279.5625 642.976562 1281.710938 C 659.171875 1283.269531 668.265625 1275.105469 671.132812 1267.636719 C 673.839844 1260.59375 671.71875 1253.398438 665.601562 1248.867188 C 651.792969 1238.636719 609.894531 1224.207031 597.378906 1220.027344 C 596.421875 1219.714844 595.378906 1220.160156 594.949219 1221.082031 L 594.101562 1222.921875 C 593.824219 1223.519531 593.304688 1223.96875 592.675781 1224.164062 C 592.046875 1224.359375 591.367188 1224.273438 590.804688 1223.925781 L 586.851562 1221.535156 C 586.230469 1221.160156 585.542969 1220.976562 584.859375 1220.976562 Z M 646.945312 1286.53125 C 645.527344 1286.53125 644.054688 1286.460938 642.53125 1286.3125 C 618.925781 1284.035156 587.207031 1258.265625 574.667969 1247.292969 C 572.957031 1245.796875 572.144531 1243.5625 572.488281 1241.320312 C 572.691406 1239.992188 573.277344 1238.796875 574.152344 1237.847656 L 572.363281 1235.265625 C 570.035156 1231.921875 570.421875 1227.382812 573.289062 1224.484375 L 578.847656 1218.867188 C 581.609375 1216.070312 585.886719 1215.539062 589.25 1217.582031 L 591.007812 1218.644531 C 592.554688 1215.917969 595.824219 1214.632812 598.847656 1215.636719 C 611.519531 1219.871094 653.996094 1234.511719 668.359375 1245.15625 C 676.097656 1250.886719 678.878906 1260.359375 675.449219 1269.292969 C 672.28125 1277.542969 662.992188 1286.53125 646.945312 1286.53125 " fill-opacity="1" fill-rule="nonzero"/><path fill="#000000" d="M 611.074219 1258.433594 C 610.742188 1258.433594 610.402344 1258.355469 610.082031 1258.210938 C 608.929688 1257.65625 608.4375 1256.28125 608.984375 1255.128906 L 618.398438 1235.328125 C 618.945312 1234.179688 620.324219 1233.6875 621.480469 1234.242188 C 622.628906 1234.785156 623.121094 1236.167969 622.574219 1237.324219 L 613.160156 1257.113281 C 612.765625 1257.941406 611.9375 1258.433594 611.074219 1258.433594 " fill-opacity="1" fill-rule="nonzero"/><path fill="#ffffff" d="M 654.683594 1203.039062 C 654.042969 1203.039062 653.40625 1202.773438 652.949219 1202.257812 L 649.871094 1198.761719 C 649.449219 1198.289062 649.246094 1197.652344 649.304688 1197.015625 C 649.363281 1196.378906 649.691406 1195.792969 650.195312 1195.410156 L 748.042969 1119.898438 C 749.058594 1119.121094 750.503906 1119.304688 751.285156 1120.316406 C 752.070312 1121.328125 751.882812 1122.785156 750.871094 1123.558594 L 654.972656 1197.558594 L 656.417969 1199.195312 C 657.261719 1200.152344 657.171875 1201.613281 656.214844 1202.460938 C 655.773438 1202.851562 655.226562 1203.039062 654.683594 1203.039062 " fill-opacity="1" fill-rule="nonzero"/><path fill="#ffffff" d="M 658.054688 1206.828125 L 615.460938 1222.117188 L 622.203125 1245.296875 L 673.625 1231.269531 L 658.054688 1206.828125 " fill-opacity="1" fill-rule="nonzero"/><path fill="#000000" d="M 618.289062 1223.5625 L 623.785156 1242.464844 L 669.988281 1229.863281 L 657.097656 1209.628906 Z M 622.199219 1247.601562 C 621.195312 1247.601562 620.273438 1246.945312 619.980469 1245.9375 L 613.238281 1222.765625 C 612.898438 1221.589844 613.527344 1220.355469 614.675781 1219.941406 L 657.273438 1204.652344 C 658.289062 1204.28125 659.425781 1204.671875 660.007812 1205.582031 L 675.574219 1230.027344 C 675.96875 1230.648438 676.046875 1231.417969 675.78125 1232.101562 C 675.515625 1232.785156 674.941406 1233.304688 674.230469 1233.5 L 622.8125 1247.523438 C 622.605469 1247.582031 622.402344 1247.601562 622.199219 1247.601562 " fill-opacity="1" fill-rule="nonzero"/><path fill="#00bf63" d="M 624.03125 1220.738281 C 622.152344 1217.25 617.472656 1216.511719 614.628906 1219.269531 L 602.324219 1231.207031 L 612.960938 1250.933594 L 632.292969 1245.671875 C 632.355469 1237.726562 627.621094 1227.40625 624.03125 1220.738281 " fill-opacity="1" fill-rule="nonzero"/><path fill="#ffffff" d="M 623.691406 1235.582031 L 619.136719 1229.117188 C 617.5 1226.792969 614.476562 1225.894531 611.835938 1226.953125 L 607.542969 1228.664062 L 607.007812 1226.714844 C 606.429688 1224.597656 604.359375 1223.257812 602.195312 1223.597656 C 588.992188 1225.6875 545.074219 1233.066406 529.460938 1241.03125 C 511 1250.464844 518.144531 1279.5 547.265625 1281.519531 C 570.34375 1283.121094 605.613281 1262.976562 619.253906 1254.546875 C 621.9375 1252.890625 621.976562 1249.011719 619.339844 1247.285156 L 619.3125 1247.273438 L 623.070312 1243.414062 C 625.140625 1241.296875 625.402344 1238 623.691406 1235.582031 " fill-opacity="1" fill-rule="nonzero"/><path fill="#000000" d="M 602.867188 1225.855469 C 602.765625 1225.855469 602.664062 1225.859375 602.558594 1225.882812 C 589.523438 1227.941406 545.8125 1235.28125 530.515625 1243.09375 C 523.734375 1246.554688 520.464844 1253.304688 521.972656 1260.6875 C 523.570312 1268.53125 531.199219 1278.089844 547.425781 1279.214844 C 569.75 1280.746094 604.242188 1261.101562 618.039062 1252.574219 C 618.875 1252.066406 618.972656 1251.25 618.980469 1250.921875 C 618.980469 1250.589844 618.902344 1249.765625 618.074219 1249.222656 C 617.492188 1248.84375 617.101562 1248.222656 617.027344 1247.53125 C 616.949219 1246.847656 617.175781 1246.148438 617.65625 1245.660156 L 621.417969 1241.800781 C 622.703125 1240.480469 622.867188 1238.425781 621.804688 1236.910156 L 617.246094 1230.453125 C 616.222656 1229 614.347656 1228.441406 612.691406 1229.097656 L 608.402344 1230.808594 C 607.792969 1231.0625 607.105469 1231.023438 606.515625 1230.734375 C 605.925781 1230.4375 605.488281 1229.914062 605.3125 1229.277344 L 604.777344 1227.320312 C 604.539062 1226.441406 603.746094 1225.855469 602.867188 1225.855469 Z M 549.90625 1283.921875 C 548.957031 1283.921875 548.023438 1283.890625 547.105469 1283.828125 C 528.289062 1282.519531 519.367188 1271.042969 517.4375 1261.617188 C 515.523438 1252.238281 519.832031 1243.359375 528.410156 1238.980469 C 544.316406 1230.851562 588.628906 1223.402344 601.832031 1221.3125 C 604.976562 1220.8125 607.992188 1222.621094 609.070312 1225.570312 L 610.976562 1224.808594 C 614.628906 1223.339844 618.761719 1224.574219 621.027344 1227.789062 L 625.585938 1234.246094 C 627.933594 1237.582031 627.570312 1242.117188 624.722656 1245.027344 L 622.535156 1247.28125 C 623.238281 1248.355469 623.621094 1249.636719 623.601562 1250.976562 C 623.574219 1253.246094 622.402344 1255.320312 620.46875 1256.515625 C 606.84375 1264.9375 573.488281 1283.921875 549.90625 1283.921875 " fill-opacity="1" fill-rule="nonzero"/><path fill="#000000" d="M 583.105469 1261.535156 C 582.097656 1261.535156 581.171875 1260.878906 580.882812 1259.859375 L 574.859375 1238.789062 C 574.507812 1237.558594 575.21875 1236.28125 576.449219 1235.929688 C 577.671875 1235.582031 578.953125 1236.289062 579.304688 1237.515625 L 585.332031 1258.585938 C 585.683594 1259.816406 584.96875 1261.09375 583.742188 1261.449219 C 583.527344 1261.507812 583.316406 1261.535156 583.105469 1261.535156 " fill-opacity="1" fill-rule="nonzero"/><path fill="#000000" d="M 548.921875 1277.765625 C 548.503906 1277.765625 548.078125 1277.65625 547.695312 1277.414062 C 523.578125 1262.308594 533.242188 1242.578125 533.34375 1242.375 C 533.921875 1241.234375 535.316406 1240.789062 536.453125 1241.359375 C 537.589844 1241.941406 538.042969 1243.332031 537.472656 1244.464844 C 537.125 1245.160156 529.734375 1260.710938 550.152344 1273.488281 C 551.234375 1274.167969 551.5625 1275.601562 550.886719 1276.683594 C 550.445312 1277.382812 549.691406 1277.765625 548.921875 1277.765625 " fill-opacity="1" fill-rule="nonzero"/><path fill="#ffffff" d="M 565.636719 1199.542969 C 565.484375 1199.542969 565.332031 1199.53125 565.175781 1199.503906 C 563.921875 1199.242188 563.113281 1198.027344 563.367188 1196.777344 L 564.5625 1190.886719 C 559.453125 1186.820312 536.777344 1168.917969 501.320312 1142.839844 C 461.050781 1113.226562 452.214844 1107.152344 452.128906 1107.097656 C 451.074219 1106.375 450.804688 1104.9375 451.527344 1103.882812 C 452.25 1102.824219 453.6875 1102.554688 454.742188 1103.273438 C 454.828125 1103.335938 463.667969 1109.410156 504.0625 1139.117188 C 544.460938 1168.832031 568.324219 1187.96875 568.5625 1188.15625 C 569.234375 1188.699219 569.550781 1189.574219 569.378906 1190.417969 L 567.902344 1197.695312 C 567.675781 1198.789062 566.714844 1199.542969 565.636719 1199.542969 " fill-opacity="1" fill-rule="nonzero"/><path fill="#00bf63" d="M 757.6875 1056.496094 C 754.648438 1042.875 735.222656 992.664062 720.574219 955.660156 C 708.882812 926.136719 680.621094 904.851562 646.980469 900.570312 C 621.9375 897.382812 594.789062 896.738281 568.683594 898.796875 C 525.152344 902.226562 487.765625 928.871094 473.367188 967.066406 C 460.398438 1001.46875 446.265625 1043.699219 445.945312 1065.097656 C 445.605469 1087.894531 459.375 1109.667969 474.40625 1126.578125 C 493.363281 1147.917969 520.410156 1161.21875 549.617188 1163.921875 C 591.339844 1167.785156 656.449219 1171.664062 686.019531 1162 C 731.378906 1147.183594 765.050781 1089.457031 757.6875 1056.496094 " fill-opacity="1" fill-rule="nonzero"/><path fill="#000000" d="M 599.175781 899.921875 C 589.023438 899.921875 578.867188 900.320312 568.863281 901.097656 C 526.191406 904.460938 489.558594 930.671875 475.535156 967.882812 C 457.945312 1014.539062 448.511719 1048.175781 448.257812 1065.132812 C 447.980469 1083.753906 457.359375 1103.917969 476.132812 1125.046875 C 494.710938 1145.949219 520.882812 1158.9375 549.828125 1161.621094 C 587.628906 1165.125 655.496094 1169.546875 685.308594 1159.804688 C 729.171875 1145.472656 762.539062 1088.820312 755.429688 1057 C 752.460938 1043.699219 733.664062 995.019531 718.421875 956.511719 C 706.972656 927.589844 679.484375 907.035156 646.6875 902.863281 C 631.324219 900.910156 615.261719 899.921875 599.175781 899.921875 Z M 627.625 1170.398438 C 601.945312 1170.398438 573.640625 1168.46875 549.402344 1166.226562 C 519.285156 1163.4375 492.035156 1149.902344 472.679688 1128.113281 C 453.109375 1106.097656 443.335938 1084.878906 443.632812 1065.0625 C 443.964844 1042.96875 458.808594 999.132812 471.203125 966.246094 C 485.859375 927.375 524.050781 899.988281 568.5 896.496094 C 594.667969 894.429688 621.90625 895.046875 647.269531 898.277344 C 681.742188 902.65625 710.652344 924.320312 722.722656 954.816406 C 738.023438 993.464844 756.914062 1042.402344 759.945312 1055.992188 C 767.605469 1090.289062 733.480469 1148.925781 686.738281 1164.199219 C 672.789062 1168.757812 651.324219 1170.398438 627.625 1170.398438 " fill-opacity="1" fill-rule="nonzero"/><path fill="#ffffff" d="M 734.460938 993.3125 L 537.3125 993.3125 C 528.367188 993.3125 521.113281 1000.566406 521.113281 1009.519531 L 521.113281 1139.867188 C 521.113281 1148.8125 528.367188 1156.066406 537.3125 1156.066406 L 734.460938 1156.066406 C 743.410156 1156.066406 750.660156 1148.8125 750.660156 1139.867188 L 750.660156 1009.519531 C 750.660156 1000.566406 743.410156 993.3125 734.460938 993.3125 " fill-opacity="1" fill-rule="nonzero"/><path fill="#000000" d="M 537.3125 995.625 C 529.65625 995.625 523.425781 1001.859375 523.425781 1009.519531 L 523.425781 1139.867188 C 523.425781 1147.519531 529.65625 1153.753906 537.3125 1153.753906 L 734.460938 1153.753906 C 742.117188 1153.753906 748.351562 1147.519531 748.351562 1139.867188 L 748.351562 1009.519531 C 748.351562 1001.859375 742.117188 995.625 734.460938 995.625 Z M 734.460938 1158.378906 L 537.3125 1158.378906 C 527.105469 1158.378906 518.800781 1150.078125 518.800781 1139.867188 L 518.800781 1009.519531 C 518.800781 999.308594 527.105469 991 537.3125 991 L 734.460938 991 C 744.671875 991 752.972656 999.308594 752.972656 1009.519531 L 752.972656 1139.867188 C 752.972656 1150.078125 744.671875 1158.378906 734.460938 1158.378906 " fill-opacity="1" fill-rule="nonzero"/><path fill="#efefef" d="M 747.519531 1156.851562 L 520.890625 1156.851562 C 515.257812 1156.851562 510.695312 1161.417969 510.695312 1167.050781 C 510.695312 1172.683594 515.257812 1177.246094 520.890625 1177.246094 L 747.519531 1177.246094 C 753.160156 1177.246094 757.722656 1172.683594 757.722656 1167.050781 C 757.722656 1161.417969 753.160156 1156.851562 747.519531 1156.851562 " fill-opacity="1" fill-rule="nonzero"/><path fill="#000000" d="M 520.890625 1159.160156 C 516.542969 1159.160156 513.003906 1162.699219 513.003906 1167.050781 C 513.003906 1171.398438 516.542969 1174.933594 520.890625 1174.933594 L 747.519531 1174.933594 C 751.875 1174.933594 755.410156 1171.398438 755.410156 1167.050781 C 755.410156 1162.699219 751.875 1159.160156 747.519531 1159.160156 Z M 747.519531 1179.558594 L 520.890625 1179.558594 C 513.992188 1179.558594 508.378906 1173.949219 508.378906 1167.050781 C 508.378906 1160.148438 513.992188 1154.535156 520.890625 1154.535156 L 747.519531 1154.535156 C 754.425781 1154.535156 760.035156 1160.148438 760.035156 1167.050781 C 760.035156 1173.949219 754.425781 1179.558594 747.519531 1179.558594 " fill-opacity="1" fill-rule="nonzero"/><path fill="#ffde59" d="M 644.441406 1067.734375 C 644.441406 1074.253906 639.152344 1079.542969 632.632812 1079.542969 C 626.109375 1079.542969 620.824219 1074.253906 620.824219 1067.734375 C 620.824219 1061.214844 626.109375 1055.925781 632.632812 1055.925781 C 639.152344 1055.925781 644.441406 1061.214844 644.441406 1067.734375 " fill-opacity="1" fill-rule="nonzero"/><path fill="#ffffff" d="M 656.777344 839.382812 C 656.933594 838.753906 644.894531 825.9375 644.894531 825.9375 L 622.949219 827.671875 C 609.828125 827.085938 608.484375 852.34375 608.484375 852.34375 C 608.484375 852.34375 609.410156 855.078125 609.871094 858.285156 C 607.359375 866.488281 602.800781 877.308594 593.914062 887.394531 C 585.398438 897.0625 578.476562 899.738281 578.992188 905.105469 C 579.847656 913.992188 599.972656 918.679688 609.144531 920.820312 C 618.769531 923.0625 641.824219 927.097656 644.132812 921.078125 C 644.617188 919.8125 645.496094 914.683594 623.328125 900.128906 L 626.589844 893.324219 C 626.628906 893.351562 626.671875 893.371094 626.710938 893.398438 C 632.679688 896.957031 639.429688 894.363281 641.628906 887.773438 L 645.507812 876.148438 L 648.441406 876.878906 C 650.234375 877.328125 651.90625 875.839844 651.660156 874.007812 C 649.8125 860.25 655.597656 844.121094 656.777344 839.382812 " fill-opacity="1" fill-rule="nonzero"/><path fill="#000000" d="M 654.53125 838.824219 Z M 610.824219 852.070312 C 611.121094 853.03125 611.78125 855.328125 612.164062 857.957031 C 612.210938 858.292969 612.183594 858.640625 612.082031 858.964844 C 608.5625 870.464844 603.03125 880.542969 595.648438 888.917969 C 592.371094 892.644531 589.316406 895.363281 586.867188 897.542969 C 582.960938 901.023438 581.09375 902.792969 581.292969 904.886719 C 581.988281 912.121094 602.097656 916.808594 609.667969 918.570312 C 626.980469 922.601562 641 922.785156 641.972656 920.246094 C 641.988281 920.203125 642.621094 915.558594 622.058594 902.058594 C 621.089844 901.421875 620.746094 900.171875 621.242188 899.121094 L 624.503906 892.324219 C 624.785156 891.746094 625.296875 891.300781 625.917969 891.113281 C 626.539062 890.925781 627.207031 891.003906 627.769531 891.339844 C 630.140625 892.75 632.5625 893.042969 634.71875 892.246094 C 636.914062 891.429688 638.589844 889.585938 639.4375 887.042969 L 643.316406 875.417969 C 643.699219 874.273438 644.902344 873.617188 646.070312 873.902344 L 649.003906 874.636719 C 649.039062 874.644531 649.160156 874.671875 649.273438 874.574219 C 649.390625 874.46875 649.375 874.355469 649.367188 874.316406 C 647.746094 862.226562 651.773438 848.398438 653.710938 841.75 C 653.929688 841.003906 654.121094 840.339844 654.28125 839.773438 C 652.816406 837.945312 648.292969 832.953125 643.964844 828.335938 L 623.128906 829.976562 C 623.03125 829.984375 622.9375 829.984375 622.84375 829.984375 C 613.042969 829.578125 611.082031 849.011719 610.824219 852.070312 Z M 633.511719 926.578125 C 625.035156 926.585938 614.523438 924.453125 608.621094 923.078125 C 592.5625 919.332031 577.582031 914.59375 576.691406 905.328125 C 576.257812 900.800781 579.414062 897.988281 583.789062 894.09375 C 586.148438 891.996094 589.082031 889.382812 592.179688 885.867188 C 599.015625 878.101562 604.171875 868.765625 607.503906 858.109375 C 607.066406 855.386719 606.304688 853.113281 606.296875 853.085938 C 606.199219 852.816406 606.164062 852.519531 606.175781 852.226562 C 606.238281 851.117188 607.777344 825.351562 622.472656 825.351562 C 622.613281 825.351562 622.757812 825.351562 622.902344 825.359375 L 644.710938 823.632812 C 645.414062 823.582031 646.097656 823.84375 646.578125 824.359375 C 659.484375 838.089844 659.386719 838.480469 659.023438 839.941406 C 658.832031 840.703125 658.527344 841.757812 658.152344 843.046875 C 656.304688 849.382812 652.460938 862.585938 653.949219 873.703125 C 654.167969 875.324219 653.570312 876.9375 652.355469 878.027344 C 651.140625 879.109375 649.464844 879.519531 647.882812 879.132812 L 647.023438 878.914062 L 643.824219 888.5 C 642.539062 892.34375 639.8125 895.285156 636.332031 896.585938 C 633.542969 897.621094 630.53125 897.554688 627.660156 896.429688 L 626.28125 899.3125 C 641.632812 909.597656 648.175781 916.996094 646.289062 921.910156 C 644.945312 925.410156 639.785156 926.578125 633.511719 926.578125 " fill-opacity="1" fill-rule="nonzero"/><path fill="#000000" d="M 625.789062 853.703125 C 625.914062 853.042969 626.082031 852.027344 626.15625 850.765625 C 626.53125 844.304688 623.886719 841.074219 625.546875 838.425781 C 626.453125 836.972656 628.136719 836.523438 629.09375 836.273438 C 633.839844 835 638.050781 838.734375 647.074219 844.714844 C 658.28125 852.136719 659.519531 853.085938 662.160156 853.09375 C 668.871094 853.101562 674.996094 846.992188 677.574219 840.941406 C 678.296875 839.25 681.898438 830.140625 676.25 822.328125 C 672.175781 816.679688 664.898438 813.949219 657.667969 815.324219 C 657.832031 813.332031 657.722656 810.382812 655.882812 808.195312 C 651.519531 803 640.886719 806.164062 637.167969 807.273438 C 633.726562 808.300781 627.351562 810.777344 621.039062 817.175781 C 620.199219 816.09375 616.984375 812.222656 612.027344 811.863281 C 604.648438 811.335938 599.878906 819.039062 599.4375 819.785156 C 594.304688 828.355469 598.523438 839.460938 601.714844 847.847656 C 604.003906 853.875 606.75 858.46875 608.722656 861.410156 C 610.558594 861.164062 612.390625 860.917969 614.230469 860.675781 C 613.199219 859.003906 611.480469 855.660156 611.59375 851.3125 C 611.628906 849.898438 611.738281 844.121094 614.777344 843.058594 C 616.957031 842.304688 619.386719 844.40625 619.730469 844.714844 C 623.417969 847.914062 622.398438 853.566406 622.300781 854.074219 C 623.464844 853.949219 624.625 853.828125 625.789062 853.703125 " fill-opacity="1" fill-rule="nonzero"/><path fill="#ffffff" d="M 611.484375 872.40625 L 611.484375 873.527344 C 611.484375 875.992188 611.957031 880.527344 613.621094 882.351562 L 626.589844 893.324219 L 611.484375 872.40625 " fill-opacity="1" fill-rule="nonzero"/><path fill="#000000" d="M 626.585938 895.632812 C 626.058594 895.632812 625.53125 895.460938 625.09375 895.089844 L 612.128906 884.113281 C 612.054688 884.050781 611.984375 883.980469 611.917969 883.910156 C 609.304688 881.042969 609.171875 874.753906 609.171875 873.527344 L 609.171875 872.417969 C 609.171875 871.136719 610.207031 870.101562 611.484375 870.101562 C 612.761719 870.101562 613.796875 871.136719 613.796875 872.417969 L 613.796875 873.527344 C 613.796875 876.511719 614.445312 879.675781 615.257812 880.703125 L 628.085938 891.5625 C 629.058594 892.386719 629.179688 893.847656 628.355469 894.816406 C 627.894531 895.355469 627.242188 895.632812 626.585938 895.632812 " fill-opacity="1" fill-rule="nonzero"/><path fill="#000000" d="M 1454.929688 665.148438 C 1453.3125 665.148438 1451.789062 665.769531 1450.636719 666.90625 C 1448.238281 669.277344 1448.210938 673.15625 1450.582031 675.558594 C 1452.953125 677.957031 1456.828125 677.984375 1459.230469 675.613281 C 1460.394531 674.46875 1461.03125 672.929688 1461.046875 671.304688 C 1461.058594 669.667969 1460.429688 668.125 1459.285156 666.964844 C 1458.136719 665.804688 1456.601562 665.15625 1454.972656 665.148438 C 1454.957031 665.148438 1454.945312 665.148438 1454.929688 665.148438 Z M 1454.929688 681.992188 C 1452.160156 681.992188 1449.382812 680.933594 1447.289062 678.808594 C 1443.128906 674.589844 1443.171875 667.773438 1447.386719 663.617188 C 1449.410156 661.617188 1452.089844 660.523438 1454.929688 660.523438 C 1454.957031 660.523438 1454.972656 660.523438 1455 660.523438 C 1457.871094 660.542969 1460.558594 661.675781 1462.574219 663.714844 C 1464.585938 665.761719 1465.6875 668.464844 1465.667969 671.332031 C 1465.648438 674.203125 1464.515625 676.886719 1462.484375 678.90625 C 1460.394531 680.96875 1457.664062 681.992188 1454.929688 681.992188 " fill-opacity="1" fill-rule="nonzero"/><path fill="#ffde59" d="M 1185.867188 1070.441406 C 1167.945312 1038.390625 1170.164062 1023.375 1175.277344 1015.574219 C 1184.386719 1001.699219 1204.757812 1007.550781 1213.773438 992.480469 C 1223.0625 976.972656 1206.238281 962.894531 1212.496094 943.019531 C 1219.894531 919.519531 1256.617188 897.347656 1280.191406 910.664062 C 1300.351562 922.054688 1305.65625 956.433594 1293.671875 974.191406 C 1280.363281 993.898438 1251.039062 985.289062 1242.78125 1003.660156 C 1235.1875 1020.550781 1256.085938 1036.550781 1249.398438 1052.15625 C 1245.550781 1061.109375 1232.160156 1071.023438 1185.867188 1070.441406 " fill-opacity="1" fill-rule="nonzero"/><path fill="#ffffff" d="M 1182.492188 1085.824219 C 1182.246094 1085.824219 1181.984375 1085.785156 1181.734375 1085.699219 C 1180.53125 1085.28125 1179.886719 1083.964844 1180.308594 1082.757812 C 1213.195312 987.742188 1256.234375 957.011719 1258.058594 955.753906 C 1259.097656 955.027344 1260.539062 955.285156 1261.269531 956.332031 C 1261.992188 957.375 1261.746094 958.820312 1260.695312 959.546875 C 1260.265625 959.847656 1217.015625 990.859375 1184.671875 1084.265625 C 1184.347656 1085.222656 1183.449219 1085.824219 1182.492188 1085.824219 " fill-opacity="1" fill-rule="nonzero"/><path fill="#00bf63" d="M 1158.058594 1059.378906 C 1157.867188 1029.445312 1166.441406 1011.222656 1174.308594 1000.113281 C 1188.664062 979.839844 1204.558594 977.753906 1210.035156 958.167969 C 1215.207031 939.671875 1203.109375 934.066406 1207.160156 913.238281 C 1211.984375 888.429688 1231.03125 886.714844 1235.929688 866.289062 C 1241.902344 841.429688 1217.332031 828.851562 1204.996094 793.945312 C 1189.042969 748.789062 1215.5 728.359375 1209.441406 686.191406 C 1199.628906 617.742188 1113.148438 554.664062 1076.167969 571.859375 C 1041.289062 588.082031 1038.753906 681.089844 1066.929688 748.660156 C 1096.976562 820.695312 1143.515625 819.65625 1150.277344 879.863281 C 1154.953125 921.46875 1135.414062 945.855469 1145.464844 1009.800781 C 1148.871094 1031.449219 1154.253906 1048.660156 1158.058594 1059.378906 " fill-opacity="1" fill-rule="nonzero"/><path fill="#ffde59" d="M 1167.222656 1087.195312 C 1166.335938 1087.195312 1165.503906 1086.691406 1165.113281 1085.847656 C 1147.140625 1046.59375 1154.433594 1003.582031 1163.667969 949.128906 C 1168.515625 920.519531 1174.019531 888.09375 1176.148438 852.394531 C 1182.078125 752.925781 1098.960938 632.542969 1098.121094 631.335938 C 1097.398438 630.289062 1097.652344 628.84375 1098.695312 628.121094 C 1099.742188 627.386719 1101.183594 627.644531 1101.914062 628.691406 C 1102.761719 629.902344 1186.785156 751.59375 1180.761719 852.667969 C 1178.621094 888.621094 1173.105469 921.175781 1168.226562 949.90625 C 1159.125 1003.570312 1151.933594 1045.964844 1169.320312 1083.917969 C 1169.859375 1085.078125 1169.34375 1086.453125 1168.175781 1086.984375 C 1167.867188 1087.125 1167.542969 1087.195312 1167.222656 1087.195312 " fill-opacity="1" fill-rule="nonzero"/><path fill="#ffde59" d="M 1135.984375 1066.679688 C 1131.960938 1047.636719 1127.726562 1019.582031 1129.140625 985.746094 C 1131.433594 930.585938 1146.75 907.113281 1131.363281 886.5 C 1114.398438 863.773438 1085.835938 878.988281 1065.613281 851.957031 C 1051.824219 833.53125 1058.734375 817.953125 1039.792969 800.605469 C 1036.191406 797.300781 1024.4375 786.832031 1007.855469 785.546875 C 992.480469 784.347656 987.046875 792.160156 967.429688 799.011719 C 931.875 811.414062 916.023438 797.519531 902.949219 810.566406 C 891.378906 822.121094 889.070312 847.703125 900.109375 861.816406 C 920.894531 888.398438 975.882812 857.441406 996.515625 882.65625 C 1014.144531 904.175781 983.765625 938.648438 1003.050781 962.644531 C 1020.421875 984.261719 1055.210938 968.890625 1069.464844 991.519531 C 1080.359375 1008.820312 1065.09375 1025.863281 1075.195312 1043.898438 C 1085.734375 1062.710938 1114.742188 1066.308594 1135.984375 1066.679688 " fill-opacity="1" fill-rule="nonzero"/><path fill="#ffffff" d="M 1149.21875 1086.367188 C 1148.726562 1086.367188 1148.226562 1086.214844 1147.800781 1085.886719 C 1129.707031 1071.894531 1123.457031 1048.660156 1114 1013.496094 C 1106.871094 986.964844 1097.988281 953.941406 1080.808594 913.496094 C 1064.695312 875.515625 1035.542969 850.484375 994.167969 839.082031 C 963.15625 830.535156 936.535156 833.304688 936.273438 833.332031 C 934.96875 833.457031 933.863281 832.554688 933.726562 831.285156 C 933.582031 830.011719 934.496094 828.871094 935.773438 828.730469 C 936.886719 828.613281 963.398438 825.847656 995.234375 834.582031 C 1024.726562 842.675781 1064.246094 862.621094 1085.074219 911.683594 C 1102.363281 952.433594 1111.289062 985.625 1118.472656 1012.296875 C 1127.683594 1046.558594 1133.769531 1069.191406 1150.636719 1082.234375 C 1151.652344 1083.007812 1151.828125 1084.460938 1151.046875 1085.476562 C 1150.59375 1086.058594 1149.902344 1086.367188 1149.21875 1086.367188 " fill-opacity="1" fill-rule="nonzero"/><path fill="#00bf63" d="M 1082.9375 1083.511719 C 1085.914062 1084.84375 1239.257812 1083.511719 1239.257812 1083.511719 L 1220.117188 1240 C 1219.589844 1244.226562 1218.675781 1248.414062 1217.125 1252.375 C 1209.589844 1271.589844 1190.9375 1284.691406 1169.703125 1284.691406 C 1145.96875 1284.691406 1125.371094 1268.292969 1120.058594 1245.15625 L 1082.9375 1083.511719 " fill-opacity="1" fill-rule="nonzero"/><path fill="#feffff" d="M 671.058594 175.851562 L 1037.714844 175.851562 C 1045.636719 175.851562 1053.234375 178.996094 1058.835938 184.601562 C 1064.4375 190.203125 1067.585938 197.800781 1067.585938 205.722656 L 1067.585938 256.617188 C 1067.585938 264.539062 1064.4375 272.136719 1058.835938 277.738281 C 1053.234375 283.339844 1045.636719 286.488281 1037.714844 286.488281 L 671.058594 286.488281 C 654.558594 286.488281 641.1875 273.113281 641.1875 256.617188 L 641.1875 205.722656 C 641.1875 189.226562 654.558594 175.851562 671.058594 175.851562 Z M 671.058594 175.851562 " fill-opacity="1" fill-rule="nonzero"/><g fill="#00bf63" fill-opacity="1"><g transform="translate(662.573646, 260.044587)"><g><path d="M 21.03125 -73.953125 L 21.03125 -41.25 C 22.75 -43.21875 24.867188 -44.707031 27.390625 -45.71875 C 29.921875 -46.726562 32.523438 -47.234375 35.203125 -47.234375 C 41.671875 -47.234375 47.101562 -44.898438 51.5 -40.234375 C 55.894531 -35.566406 58.09375 -29.789062 58.09375 -22.90625 C 58.09375 -15.894531 55.878906 -10.070312 51.453125 -5.4375 C 47.035156 -0.800781 41.585938 1.515625 35.109375 1.515625 C 32.078125 1.515625 29.328125 0.9375 26.859375 -0.21875 C 24.398438 -1.375 22.515625 -2.992188 21.203125 -5.078125 L 21.03125 -5.078125 L 21.03125 0 L 4.8125 0 L 4.8125 -73.953125 Z M 30.921875 -12.5625 C 34.003906 -12.5625 36.507812 -13.46875 38.4375 -15.28125 C 40.375 -17.09375 41.34375 -19.601562 41.34375 -22.8125 C 41.34375 -25.84375 40.390625 -28.320312 38.484375 -30.25 C 36.585938 -32.1875 34.035156 -33.15625 30.828125 -33.15625 C 27.796875 -33.15625 25.316406 -32.1875 23.390625 -30.25 C 21.460938 -28.320312 20.5 -25.84375 20.5 -22.8125 C 20.5 -19.71875 21.460938 -17.234375 23.390625 -15.359375 C 25.316406 -13.492188 27.828125 -12.5625 30.921875 -12.5625 Z M 30.921875 -12.5625 "/></g></g></g><g fill="#00bf63" fill-opacity="1"><g transform="translate(723.346266, 260.044587)"><g><path d="M 57.03125 -22.8125 C 57.03125 -15.625 54.457031 -9.769531 49.3125 -5.25 C 44.175781 -0.738281 37.570312 1.515625 29.5 1.515625 C 21.476562 1.515625 14.878906 -0.722656 9.703125 -5.203125 C 4.535156 -9.691406 1.953125 -15.5625 1.953125 -22.8125 C 1.953125 -30 4.535156 -35.863281 9.703125 -40.40625 C 14.878906 -44.957031 21.476562 -47.234375 29.5 -47.234375 C 37.519531 -47.234375 44.113281 -44.972656 49.28125 -40.453125 C 54.445312 -35.941406 57.03125 -30.0625 57.03125 -22.8125 Z M 29.5 -12.5625 C 32.707031 -12.5625 35.242188 -13.507812 37.109375 -15.40625 C 38.984375 -17.3125 39.921875 -19.78125 39.921875 -22.8125 C 39.921875 -25.71875 38.96875 -28.164062 37.0625 -30.15625 C 35.164062 -32.15625 32.613281 -33.15625 29.40625 -33.15625 C 26.375 -33.15625 23.890625 -32.1875 21.953125 -30.25 C 20.023438 -28.320312 19.0625 -25.84375 19.0625 -22.8125 C 19.0625 -19.71875 20.023438 -17.234375 21.953125 -15.359375 C 23.890625 -13.492188 26.40625 -12.5625 29.5 -12.5625 Z M 29.5 -12.5625 "/></g></g></g><g fill="#00bf63" fill-opacity="1"><g transform="translate(782.336697, 260.044587)"><g><path d="M 21.296875 -45.71875 L 21.296875 -20.9375 C 21.296875 -17.550781 21.929688 -15.113281 23.203125 -13.625 C 24.484375 -12.144531 26.550781 -11.40625 29.40625 -11.40625 C 32.4375 -11.40625 34.546875 -12.207031 35.734375 -13.8125 C 36.921875 -15.414062 37.515625 -17.789062 37.515625 -20.9375 L 37.515625 -45.71875 L 53.734375 -45.71875 L 53.734375 -17.90625 C 53.734375 -4.957031 45.625 1.515625 29.40625 1.515625 C 13.1875 1.515625 5.078125 -4.988281 5.078125 -18 L 5.078125 -45.71875 Z M 21.296875 -45.71875 "/></g></g></g><g fill="#00bf63" fill-opacity="1"><g transform="translate(841.059805, 260.044587)"><g><path d="M 23.078125 -59.4375 L 23.078125 -45.71875 L 32.25 -45.71875 L 32.25 -32.34375 L 23.078125 -32.34375 L 23.078125 0 L 6.859375 0 L 6.859375 -32.34375 L 1.609375 -32.34375 L 1.609375 -45.71875 L 6.859375 -45.71875 L 6.859375 -59.4375 Z M 23.078125 -59.4375 "/></g></g></g><g fill="#00bf63" fill-opacity="1"><g transform="translate(873.139194, 260.044587)"><g/></g></g><g fill="#00bf63" fill-opacity="1"><g transform="translate(903.703728, 260.044587)"><g><path d="M 51.765625 -38.5 C 53.492188 -41.34375 55.707031 -43.507812 58.40625 -45 C 61.113281 -46.488281 64.070312 -47.234375 67.28125 -47.234375 C 77.613281 -47.171875 82.8125 -41.285156 82.875 -29.578125 L 82.875 0 L 66.65625 0 L 66.65625 -23.875 C 66.65625 -30.832031 64.425781 -34.3125 59.96875 -34.3125 C 57.414062 -34.3125 55.484375 -33.429688 54.171875 -31.671875 C 52.867188 -29.921875 52.21875 -26.816406 52.21875 -22.359375 L 52.21875 0 L 36 0 L 36 -22.359375 C 36 -27.054688 35.40625 -30.28125 34.21875 -32.03125 C 33.03125 -33.78125 31.21875 -34.65625 28.78125 -34.65625 C 26.40625 -34.65625 24.609375 -33.765625 23.390625 -31.984375 C 22.171875 -30.203125 21.5625 -26.992188 21.5625 -22.359375 L 21.5625 0 L 5.34375 0 L 5.34375 -45.71875 L 21.5625 -45.71875 L 21.5625 -40.015625 L 21.75 -40.015625 C 25.425781 -44.828125 30.234375 -47.234375 36.171875 -47.234375 C 43.359375 -47.109375 48.554688 -44.195312 51.765625 -38.5 Z M 51.765625 -38.5 "/></g></g></g><g fill="#00bf63" fill-opacity="1"><g transform="translate(991.832955, 260.044587)"><g><path d="M 18.171875 -20.140625 C 18.171875 -13.367188 21.5625 -9.984375 28.34375 -9.984375 C 31.78125 -9.984375 34.363281 -11.378906 36.09375 -14.171875 L 51.6875 -14.171875 C 50.613281 -9.421875 47.984375 -5.617188 43.796875 -2.765625 C 39.609375 0.0859375 34.457031 1.515625 28.34375 1.515625 C 20.257812 1.515625 13.835938 -0.695312 9.078125 -5.125 C 4.328125 -9.550781 1.953125 -15.445312 1.953125 -22.8125 C 1.953125 -30.238281 4.253906 -36.164062 8.859375 -40.59375 C 13.460938 -45.019531 19.597656 -47.234375 27.265625 -47.234375 C 35.109375 -47.234375 41.242188 -44.957031 45.671875 -40.40625 C 50.097656 -35.863281 52.3125 -29.550781 52.3125 -21.46875 L 52.3125 -20.140625 Z M 37.25 -29.5 C 36.769531 -31.75 35.65625 -33.515625 33.90625 -34.796875 C 32.15625 -36.078125 30.179688 -36.71875 27.984375 -36.71875 C 25.609375 -36.71875 23.539062 -36.09375 21.78125 -34.84375 C 20.03125 -33.59375 18.921875 -31.8125 18.453125 -29.5 Z M 37.25 -29.5 "/></g></g></g></svg>